<svg width="368" height="265" viewBox="0 0 368 265" fill="none" xmlns="http://www.w3.org/2000/svg">
<path d="M199.205 8.33911H203.306C218.801 8.34217 233.66 13.3352 244.616 22.2201C255.571 31.105 261.726 43.1542 261.726 55.7178V146.104H140.753V55.7178C140.753 49.4947 142.265 43.3326 145.203 37.5834C148.141 31.8342 152.446 26.6106 157.874 22.2109C163.302 17.8112 169.746 14.3216 176.838 11.9415C183.93 9.56131 191.53 8.33722 199.205 8.33911Z" fill="#FFB7D5"/>
<path d="M223.203 91.6949V147.511H169.524V91.6949H223.203ZM224.626 90.5415H168.101V148.664H224.626V90.5415Z" fill="#CA7358"/>
<path d="M224.626 90.5388H168.101V102.554H224.626V90.5388Z" fill="#CA7358"/>
<path d="M167.799 61.5136V147.791H135.49V61.5136H167.799ZM169.222 60.3602H134.067V148.944H169.222V60.3602Z" fill="#CA7358"/>
<path d="M267.576 44.0483V147.511H224.928V44.0483H267.576ZM268.998 42.8949H223.506V148.664H268.998V42.8949Z" fill="#CA7358"/>
<path d="M241.999 57.0066H242.408C243.953 57.0066 245.434 57.5042 246.527 58.39C247.619 59.2757 248.233 60.4771 248.233 61.7298V72.3756H236.17V61.7298C236.17 61.1093 236.321 60.4948 236.614 59.9216C236.907 59.3484 237.336 58.8276 237.877 58.389C238.419 57.9503 239.061 57.6025 239.768 57.3653C240.476 57.1281 241.233 57.0062 241.999 57.0066Z" fill="#CA7358"/>
<path d="M234.793 65.389H249.613" stroke="#FFB7D5" stroke-width="4" stroke-linecap="round" stroke-linejoin="round"/>
<path d="M241.999 84.5786H242.408C243.953 84.5786 245.434 85.0762 246.527 85.962C247.619 86.8478 248.233 88.0491 248.233 89.3018V99.9476H236.17V89.3018C236.17 88.6813 236.321 88.0669 236.614 87.4936C236.907 86.9204 237.336 86.3996 237.877 85.961C238.419 85.5223 239.061 85.1745 239.768 84.9373C240.476 84.7001 241.233 84.5782 241.999 84.5786Z" fill="#F5EBDD"/>
<path d="M234.793 92.9608H249.613" stroke="#FFB7D5" stroke-width="4" stroke-linecap="round" stroke-linejoin="round"/>
<path d="M241.999 112.151H242.408C243.953 112.151 245.434 112.648 246.527 113.534C247.619 114.42 248.233 115.621 248.233 116.874V127.52H236.17V116.874C236.17 115.621 236.784 114.42 237.876 113.534C238.969 112.648 240.45 112.151 241.995 112.151H241.999Z" fill="#F5EBDD"/>
<path d="M234.793 120.533H249.613" stroke="#FFB7D5" stroke-width="4" stroke-linecap="round" stroke-linejoin="round"/>
<path d="M241.999 139.723H242.408C243.953 139.723 245.434 140.22 246.527 141.106C247.619 141.992 248.233 143.193 248.233 144.446V154.226H236.17V144.446C236.17 143.825 236.321 143.211 236.614 142.638C236.907 142.064 237.336 141.544 237.877 141.105C238.419 140.666 239.061 140.318 239.768 140.081C240.476 139.844 241.233 139.722 241.999 139.723Z" fill="#30242A"/>
<path d="M268.998 42.8949H223.506V47.5056H268.998V42.8949Z" fill="#CA7358"/>
<path d="M169.222 58.1254H134.067V62.7361H169.222V58.1254Z" fill="#CA7358"/>
<path d="M190.332 113.454H178.269V126.029H190.332V113.454Z" fill="#F5EBDD"/>
<path d="M176.889 119.042H191.712" stroke="#FFB7D5" stroke-width="4" stroke-linecap="round" stroke-linejoin="round"/>
<path d="M184.301 126.588V119.042" stroke="#FFB7D5" stroke-width="4" stroke-linecap="round" stroke-linejoin="round"/>
<path d="M190.332 136.164H178.269V148.739H190.332V136.164Z" fill="#CA7358"/>
<path d="M176.889 141.752H191.712" stroke="#FFB7D5" stroke-width="4" stroke-linecap="round" stroke-linejoin="round"/>
<path d="M184.301 149.299V141.752" stroke="#FFB7D5" stroke-width="4" stroke-linecap="round" stroke-linejoin="round"/>
<path d="M213.078 113.454H201.015V126.029H213.078V113.454Z" fill="#30242A"/>
<path d="M199.639 119.042H214.459" stroke="#FFB7D5" stroke-width="4" stroke-linecap="round" stroke-linejoin="round"/>
<path d="M207.047 126.588V119.042" stroke="#FFB7D5" stroke-width="4" stroke-linecap="round" stroke-linejoin="round"/>
<path d="M213.078 136.164H201.015V148.739H213.078V136.164Z" fill="#F5EBDD"/>
<path d="M199.639 141.752H214.459" stroke="#FFB7D5" stroke-width="4" stroke-linecap="round" stroke-linejoin="round"/>
<path d="M207.047 149.299V141.752" stroke="#FFB7D5" stroke-width="4" stroke-linecap="round" stroke-linejoin="round"/>
<path d="M176.114 42.4768C181.063 42.4768 185.076 39.2235 185.076 35.2104C185.076 31.1972 181.063 27.944 176.114 27.944C171.164 27.944 167.152 31.1972 167.152 35.2104C167.152 39.2235 171.164 42.4768 176.114 42.4768Z" fill="#F5EBDD"/>
<path d="M277.235 146.15H125.244V154.532H277.235V146.15Z" fill="#F5EBDD"/>
<path d="M203.64 0H198.85C161.06 0 130.426 24.8384 130.426 55.4784V154.532H272.078V55.4784C272.068 24.8384 241.43 0 203.64 0ZM196.072 146.15H140.753V76.2886H196.072V146.15ZM196.072 67.9062H140.753V55.7639C140.754 43.6356 146.49 31.9692 156.782 23.1674C167.073 14.3657 181.135 9.09882 196.072 8.45151V67.9062ZM261.726 146.15H206.41V76.2886H261.726V146.15ZM261.726 67.9062H206.41V8.45151C221.347 9.09884 235.409 14.3658 245.7 23.1676C255.99 31.9695 261.726 43.6358 261.726 55.7639V67.9062Z" fill="#F5EBDD"/>
<path d="M13.7844 264.912C21.3973 264.912 27.5688 259.908 27.5688 253.736C27.5688 247.563 21.3973 242.559 13.7844 242.559C6.17149 242.559 0 247.563 0 253.736C0 259.908 6.17149 264.912 13.7844 264.912Z" fill="#FFB7D5"/>
<path d="M321.206 162.629C321.208 162.938 321.13 163.243 320.978 163.526C319.911 165.495 315.352 165.786 310.817 164.175C307.019 162.828 304.437 160.573 304.327 158.719V183.309H321.216V162.629H321.206Z" fill="#FFBE21"/>
<path d="M314.712 157.049C310.177 155.438 305.625 155.729 304.551 157.698C304.378 158.021 304.302 158.373 304.327 158.725C304.437 160.579 307.019 162.834 310.817 164.18C315.352 165.792 319.904 165.501 320.978 163.532C321.13 163.249 321.208 162.943 321.206 162.635C321.216 160.758 318.602 158.428 314.712 157.049Z" fill="#A15842"/>
<path d="M334.154 170.74C334.044 172.594 331.462 174.849 327.664 176.199C323.126 177.808 318.578 177.519 317.5 175.547C317.349 175.265 317.272 174.961 317.272 174.653V183.304H334.158V170.74H334.154Z" fill="#FFBE21"/>
<path d="M333.93 169.714C332.863 167.744 328.304 167.453 323.766 169.065C319.879 170.446 317.265 172.773 317.272 174.653C317.272 174.961 317.349 175.265 317.5 175.547C318.567 177.519 323.126 177.808 327.664 176.199C331.462 174.849 334.044 172.594 334.154 170.74C334.18 170.389 334.103 170.037 333.93 169.714Z" fill="#A15842"/>
<path d="M317.767 183.315V174.933" stroke="#A15842" stroke-width="4" stroke-miterlimit="10" stroke-linecap="round"/>
<path d="M312.77 155.23V159.982" stroke="#30242A" stroke-width="4" stroke-linecap="round" stroke-linejoin="round"/>
<path d="M325.715 167.248V172.277" stroke="#30242A" stroke-width="4" stroke-linecap="round" stroke-linejoin="round"/>
<path d="M240.459 264.993C240.028 264.993 239.603 264.91 239.219 264.752C238.835 264.593 238.503 264.362 238.25 264.079C237.997 263.796 237.831 263.468 237.765 263.123C237.699 262.777 237.735 262.424 237.87 262.092L246.405 241.002C246.585 240.56 246.933 240.175 247.398 239.903C247.864 239.63 248.423 239.483 248.998 239.483H254.979C255.455 239.482 255.922 239.583 256.334 239.774C256.747 239.966 257.09 240.241 257.331 240.573C257.571 240.906 257.7 241.283 257.705 241.669C257.71 242.054 257.591 242.434 257.359 242.77L242.827 263.86C242.592 264.202 242.249 264.488 241.833 264.687C241.416 264.886 240.942 264.992 240.459 264.993Z" fill="#30242A"/>
<path d="M354.802 264.993C355.234 264.993 355.659 264.91 356.043 264.752C356.427 264.593 356.759 264.362 357.011 264.079C357.264 263.796 357.43 263.468 357.496 263.123C357.562 262.777 357.527 262.424 357.391 262.092L348.856 241.002C348.676 240.561 348.329 240.176 347.864 239.903C347.4 239.631 346.841 239.483 346.267 239.483H340.282C339.807 239.483 339.341 239.584 338.929 239.776C338.517 239.967 338.174 240.243 337.934 240.575C337.693 240.907 337.564 241.284 337.559 241.669C337.553 242.054 337.672 242.433 337.903 242.77L352.434 263.86C352.669 264.202 353.013 264.487 353.429 264.686C353.845 264.885 354.319 264.991 354.802 264.993Z" fill="#30242A"/>
<path d="M368 183.315H227.727V248.424H368V183.315Z" fill="#A15842"/>
<path d="M357.658 191.698H238.065V240.042H357.658V191.698Z" fill="#FFB7D5"/>
<path d="M297.734 190.861V240.881" stroke="#A15842" stroke-width="4" stroke-miterlimit="10"/>
<path d="M311.828 218.799C313.823 218.799 315.441 217.488 315.441 215.87C315.441 214.252 313.823 212.94 311.828 212.94C309.832 212.94 308.214 214.252 308.214 215.87C308.214 217.488 309.832 218.799 311.828 218.799Z" fill="#30242A"/>
<path d="M283.896 218.799C285.892 218.799 287.509 217.488 287.509 215.87C287.509 214.252 285.892 212.94 283.896 212.94C281.9 212.94 280.283 214.252 280.283 215.87C280.283 217.488 281.9 218.799 283.896 218.799Z" fill="#30242A"/>
<path d="M55.4507 237.888V242.637H106.114V237.888H55.4507Z" fill="#A15842"/>
<path d="M114.461 262.536L101.911 201.478H109.585C110.408 201.478 111.197 201.213 111.778 200.742C112.36 200.27 112.686 199.631 112.686 198.964C112.686 198.297 112.36 197.657 111.778 197.186C111.197 196.714 110.408 196.449 109.585 196.449H52.04C51.2176 196.449 50.4288 196.714 49.8472 197.186C49.2656 197.657 48.9389 198.297 48.9389 198.964C48.9389 199.631 49.2656 200.27 49.8472 200.742C50.4288 201.213 51.2176 201.478 52.04 201.478H59.6542L47.1038 262.536C47.0419 262.838 47.0618 263.148 47.1623 263.444C47.2628 263.739 47.4415 264.013 47.6858 264.247C47.9302 264.481 48.2343 264.668 48.5773 264.797C48.9202 264.926 49.2936 264.993 49.6715 264.993C50.2656 264.993 50.842 264.829 51.3046 264.527C51.7673 264.224 52.0883 263.803 52.2143 263.332L68.8438 201.478H92.7211L109.347 263.332C109.474 263.803 109.796 264.224 110.259 264.526C110.722 264.828 111.299 264.993 111.893 264.993C112.271 264.993 112.645 264.926 112.988 264.797C113.33 264.668 113.635 264.481 113.879 264.247C114.123 264.013 114.302 263.739 114.403 263.444C114.503 263.148 114.523 262.838 114.461 262.536Z" fill="#FFBE21"/>
<path d="M109.585 201.478C110.408 201.478 111.197 201.213 111.778 200.742C112.36 200.27 112.686 199.631 112.686 198.964C112.686 198.297 112.36 197.657 111.778 197.186C111.197 196.714 110.408 196.449 109.585 196.449H52.0401C51.2176 196.449 50.4288 196.714 49.8473 197.186C49.2657 197.657 48.939 198.297 48.939 198.964C48.939 199.631 49.2657 200.27 49.8473 200.742C50.4288 201.213 51.2176 201.478 52.0401 201.478H59.6542V201.556H68.8367L68.8581 201.478H92.7354L92.7567 201.556H101.939V201.478H109.585Z" fill="#A15842"/>
<path d="M112.996 237.807H149.626C150.081 231.501 151.707 223.136 153.054 211.836C154.253 201.816 155.284 193.404 155.217 186.461C155.103 174.887 118.586 188.895 118.586 188.895C118.586 191.424 119.216 193.851 119.234 196.204C119.276 202.317 115.457 207.519 112.729 214.892C108.593 226.072 112.039 237.807 112.039 237.807H112.996Z" fill="#4856DF"/>
<path d="M151.579 261.838H119.511C119.066 261.953 118.686 262.193 118.44 262.515C118.194 262.837 118.098 263.22 118.169 263.594C118.24 263.969 118.474 264.31 118.829 264.557C119.183 264.804 119.634 264.94 120.101 264.941L167.291 264.993C167.707 261.273 165.1 258.473 157.745 254.324C153.549 257.274 151.579 261.838 151.579 261.838Z" fill="#3EC1F3"/>
<path d="M156.092 253.421C154.568 252.623 153.253 251.591 152.219 250.382C149.729 247.421 149.203 243.433 149.612 237.807H117.868C117.929 242.013 118.303 246.213 118.988 250.382C119.799 255.103 120.894 258.349 121.773 261.763H120.105C119.903 261.763 119.703 261.789 119.511 261.838H151.579C151.579 261.838 153.549 257.274 157.745 254.341C157.219 254.04 156.668 253.733 156.092 253.421Z" fill="#A15842"/>
<path d="M149.996 232.756C148.033 229.587 146.695 226.188 146.031 222.683C143.708 209.601 145.085 202.894 138.537 197.02H119.379" stroke="#30242A" stroke-width="4" stroke-linecap="round" stroke-linejoin="round"/>
<path d="M161.942 238.923L161.977 238.992L190.257 228.254C188.056 222.914 185.755 215.809 181.975 206.51C178.433 197.808 176.089 191.305 173.87 186.274C170.766 188.086 166.939 188.893 163.14 188.535C159.34 188.177 155.843 186.68 153.335 184.339C150.827 181.998 149.488 178.981 149.582 175.881C149.676 172.781 151.196 169.821 153.844 167.583C138.747 162.052 85.1282 158.445 85.1282 158.445L54.7962 154.812C53.1958 156.957 51.8337 160.357 51.094 164.327H61.6919V173.517C61.6863 175.375 60.7724 177.156 59.1505 178.469C57.5287 179.781 55.3311 180.519 53.0393 180.521H52.4347C52.2925 180.521 52.1502 180.521 52.0115 180.521C54.9064 189.171 62.3534 196.458 77.5532 196.458H138.9C145.447 202.326 144.071 209.033 146.393 222.121C148.292 232.828 157.294 240.72 157.294 240.72L161.942 238.923Z" fill="#4856DF"/>
<path d="M205.023 251.221L176.857 261.579C176.38 261.849 176.046 262.255 175.921 262.716C175.796 263.176 175.889 263.658 176.181 264.066C176.474 264.474 176.945 264.777 177.501 264.916C178.057 265.055 178.658 265.02 179.183 264.817L221.923 248.67C220.248 244.921 215.941 243.479 205.738 242.038L205.301 241.971C204.455 245.009 204.361 248.153 205.023 251.221Z" fill="#3EC1F3"/>
<path d="M205.301 241.96C202.363 241.504 200.059 240.711 198.156 239.512C194.649 237.297 192.501 233.693 190.257 228.266L161.977 239.004C164.374 243.471 167.739 248.168 170.943 252.268C173.742 255.838 176.413 258.949 178.208 261.034L177.188 261.435C177.072 261.481 176.961 261.535 176.857 261.596L205.023 251.239C204.356 248.161 204.451 245.007 205.301 241.96Z" fill="#A15842"/>
<path d="M164.915 188.624C168.131 188.625 171.265 187.803 173.87 186.274C169.456 176.216 165.63 172.026 154.057 167.661L153.844 167.583C151.764 169.342 150.367 171.557 149.827 173.954C149.287 176.352 149.628 178.825 150.808 181.066C151.988 183.307 153.954 185.218 156.462 186.561C158.97 187.903 161.909 188.619 164.915 188.618V188.624Z" fill="#3EC1F3"/>
<path d="M53.0393 180.521C55.3354 180.521 57.5375 179.782 59.1614 178.466C60.7853 177.149 61.6981 175.364 61.699 173.503V164.313H51.1011C50.1658 169.298 50.2191 175.163 52.0115 180.512C52.1502 180.512 52.2925 180.512 52.4347 180.512L53.0393 180.521Z" fill="#3EC1F3"/>
<path d="M138.377 197.147H148.716" stroke="#30242A" stroke-width="4" stroke-linecap="round" stroke-linejoin="round"/>
<path d="M182.846 108.284C182.846 108.284 164.236 90.9599 142.247 84.6768" stroke="#30242A" stroke-width="4" stroke-linecap="round" stroke-linejoin="round"/>
<path d="M124.472 91.4442C123.796 90.1207 126.051 88.0445 129.807 86.2914C124.721 85.2649 121.108 83.3531 121.471 81.747C121.833 80.1409 126.044 79.3854 131.251 79.8814C128.512 77.1709 127.307 74.5815 128.516 73.5377C130.056 72.2026 134.942 73.8866 139.427 77.2862C143.339 80.2562 145.65 83.5607 145.159 85.2418C144.886 86.9546 141.283 89.3825 136.333 91.0434C130.639 92.958 125.336 93.1368 124.472 91.4442Z" fill="#4756DF"/>
<path d="M145.344 90.6224C148.931 90.6224 151.838 88.2651 151.838 85.3572C151.838 82.4493 148.931 80.0919 145.344 80.0919C141.758 80.0919 138.85 82.4493 138.85 85.3572C138.85 88.2651 141.758 90.6224 145.344 90.6224Z" fill="#30242A"/>
<path d="M159.027 92.1384C160.811 91.6013 160 86.2365 157.215 80.1558C154.431 74.0751 150.727 69.5812 148.943 70.1184C147.159 70.6555 147.97 76.0203 150.754 82.101C153.539 88.1816 157.242 92.6755 159.027 92.1384Z" fill="#30242A"/>
<path d="M158.709 93.1945C158.709 93.1945 161.469 99.3421 160.089 105.769" stroke="#30242A" stroke-width="4" stroke-linecap="round" stroke-linejoin="round"/>
<path d="M108.383 68.7079C102.501 74.0741 96.2489 75.2592 96.2489 75.2592C92.2053 71.6837 84.8686 71.6837 83.7483 76.75C82.5285 82.3641 91.0922 83.9097 91.0922 83.9097C91.0922 83.9097 93.2509 91.153 89.9399 94.7314C87.0166 97.9032 83.2611 98.4252 75.5652 99.123C85.5941 112.863 95.8363 111.779 99.2469 111.779C107.426 111.779 109.731 104.083 110.375 100.115C108.512 99.5883 106.612 99.154 104.685 98.8144L103.582 93.4511C103.582 93.4511 108.728 94.939 113.142 92.8542C117.555 90.7695 118.657 86.8912 117.185 80.931C116.314 77.3987 116.346 73.0302 115.599 69.126C112.686 69.5268 108.383 68.7079 108.383 68.7079Z" fill="#A15842"/>
<path d="M169.567 98.6442C168.005 93.5779 155.782 90.83 155.782 90.83C155.782 90.83 156.515 79.4575 153.367 79.0942C150.956 78.8058 148.541 83.5665 146.475 92.7879C144.164 103.093 145.44 122.127 145.44 122.127C145.44 122.127 142.883 120.244 139.256 117.623C138.893 118.217 138.337 118.72 137.647 119.076C136.958 119.431 136.161 119.627 135.344 119.642C135.86 120.172 136.183 120.808 136.277 121.479C136.371 122.15 136.232 122.829 135.876 123.439C135.52 124.05 134.961 124.567 134.262 124.934C133.563 125.301 132.752 125.502 131.919 125.515C132.435 126.046 132.758 126.682 132.852 127.353C132.946 128.024 132.807 128.702 132.451 129.313C132.096 129.923 131.537 130.441 130.837 130.808C130.138 131.175 129.327 131.376 128.494 131.389C129.036 131.946 129.364 132.618 129.439 133.325C129.514 134.031 129.332 134.739 128.916 135.362C128.5 135.986 127.868 136.496 127.097 136.832C126.327 137.167 125.453 137.312 124.582 137.248C132.132 141.233 142.396 145.882 149.235 145.882C185.076 145.87 170.601 101.998 169.567 98.6442Z" fill="#A15842"/>
<path d="M129.014 135.175C129.369 134.565 129.508 133.886 129.414 133.215C129.321 132.545 128.998 131.908 128.484 131.378C129.316 131.364 130.128 131.163 130.827 130.796C131.526 130.429 132.085 129.912 132.441 129.301C132.797 128.691 132.936 128.012 132.841 127.341C132.747 126.67 132.424 126.034 131.909 125.504C132.741 125.491 133.553 125.289 134.252 124.923C134.951 124.556 135.51 124.038 135.866 123.428C136.222 122.817 136.36 122.138 136.266 121.468C136.172 120.797 135.849 120.16 135.333 119.63C136.151 119.616 136.947 119.42 137.637 119.064C138.327 118.708 138.883 118.206 139.245 117.612C132.993 113.096 123.565 106.401 118.547 103.393C116.118 101.937 113.024 100.859 110.368 100.115C109.742 104.094 107.451 111.779 99.2719 111.779C95.8756 111.779 85.6191 112.863 75.5902 99.1229L72.3681 99.4113C61.2723 100.412 56.2223 105.253 53.2492 111.038C51.4106 114.616 49.9382 121.173 49.9382 121.173C48.7975 127.185 48.2103 133.257 48.1814 139.339L62.6095 150.167L101.345 150.942C104.446 147.234 110.137 140.386 112.014 137.759C114.425 134.405 114.77 131.611 114.77 131.611C114.77 131.611 118.91 134.235 124.582 137.231C125.491 137.296 126.403 137.133 127.195 136.766C127.987 136.399 128.622 135.843 129.014 135.175Z" fill="#FFBE21"/>
<path d="M112.43 62.1479C108.02 57.6785 95.8861 54.697 86.3266 60.3602C76.7672 66.0233 77.5034 75.2649 77.8697 78.8433C77.8697 78.8433 67.5776 76.1588 60.2231 82.4189C58.0946 84.2086 56.5445 86.397 55.7106 88.7895C54.8768 91.182 54.7849 93.7045 55.4433 96.1328C55.4433 96.1328 41.9008 95.8242 39.2655 105.971C37.7683 111.738 40.5636 115.576 43.6647 117.952C45.4835 119.336 47.6084 120.429 49.9274 121.173C49.9274 121.173 51.3998 114.616 53.2384 111.038C56.2115 105.253 61.2615 100.412 72.3573 99.4113L75.5794 99.1229C83.2753 98.4251 87.0308 97.8946 89.9541 94.7314C93.2615 91.153 91.0922 83.9096 91.0922 83.9096C91.0922 83.9096 82.5178 82.3641 83.7376 76.7557C84.8437 71.6894 92.1946 71.6894 96.2382 75.2649C96.2382 75.2649 102.49 74.074 108.372 68.7079C108.372 68.7079 112.676 69.5268 115.61 69.126C115.108 66.4386 114.226 63.9732 112.43 62.1479Z" fill="#30242A"/>
<path d="M170.331 102.626C169.289 102.237 168.667 101.257 168.845 99.3824C168.845 99.3824 166.69 101.574 164.396 100.599C162.102 99.6246 163.019 97.5255 163.019 97.5255C163.019 97.5255 160.95 98.6443 159.228 97.2371C157.667 95.9713 158.873 93.8836 158.873 93.8836C158.873 93.8836 156.582 94.642 155.772 93.3242C154.751 91.6749 155.992 89.9477 157.336 88.6241" stroke="#30242A" stroke-width="8" stroke-linecap="round" stroke-linejoin="round"/>
<path d="M54.7891 96.375C55.1787 97.869 55.8812 99.2977 56.866 100.599" stroke="black" stroke-width="4" stroke-miterlimit="10" stroke-linecap="round"/>
<path d="M144.75 122.488L145.615 131.199" stroke="#30242A" stroke-width="4" stroke-linecap="round" stroke-linejoin="round"/>
<path d="M113.561 121.972C115.812 125.259 115.784 129.204 115.492 131.542" stroke="#30242A" stroke-width="4" stroke-linecap="round" stroke-linejoin="round"/>
<path d="M93.226 131.199L82.1978 131.479" stroke="#30242A" stroke-width="4" stroke-linecap="round" stroke-linejoin="round"/>
<path d="M103.394 94.0019C101.852 93.5114 100.349 92.9461 98.8914 92.3093" stroke="#30242A" stroke-width="4" stroke-linecap="round" stroke-linejoin="round"/>
<path d="M106.15 102.278L105.549 99.1893" stroke="#30242A" stroke-width="4" stroke-linecap="round" stroke-linejoin="round"/>
<path d="M77.1265 78.9558L77.8911 84.1115" stroke="black" stroke-width="4" stroke-miterlimit="10" stroke-linecap="round"/>
<path d="M113.561 85.0919C112.782 85.5014 110.201 85.6369 108.963 83.8116" stroke="#30242A" stroke-width="4" stroke-linecap="round" stroke-linejoin="round"/>
<path d="M92.8811 79.2211L89.4351 77.8254" stroke="#30242A" stroke-width="4" stroke-linecap="round" stroke-linejoin="round"/>
<path d="M108.792 77.984C108.241 78.5924 105.641 79.7718 103.685 78.4252" stroke="#30242A" stroke-width="4" stroke-linecap="round" stroke-linejoin="round"/>
<path d="M117.167 77.1047C116.756 77.1756 116.331 77.18 115.917 77.1177C115.503 77.0553 115.109 76.9274 114.756 76.7413" stroke="#30242A" stroke-width="4" stroke-linecap="round" stroke-linejoin="round"/>
<path d="M112.505 78.1427C112.9 78.8665 113.28 79.6652 113.199 79.9709C113.077 80.3426 112.804 80.6699 112.423 80.8993" stroke="#30242A" stroke-width="4" stroke-linecap="round" stroke-linejoin="round"/>
<path d="M90.9927 82.5976L86.2876 86.1962C86.0329 86.3909 85.844 86.6354 85.7389 86.9062C85.6339 87.1769 85.6162 87.4651 85.6875 87.743C85.7588 88.0209 85.9168 88.2793 86.1464 88.4937C86.376 88.708 86.6695 88.871 86.9989 88.9672L92.561 90.5676C92.8916 90.6623 93.2467 90.6867 93.5922 90.6384C93.9378 90.5901 94.2622 90.4706 94.5345 90.2915C94.8068 90.1124 95.0179 89.8796 95.1475 89.6154C95.277 89.3512 95.3208 89.0645 95.2745 88.7827L94.4175 83.5924C94.3673 83.2907 94.2159 83.0059 93.9797 82.7693C93.7435 82.5326 93.4317 82.3532 93.0782 82.2505C92.7247 82.1478 92.3433 82.1259 91.9755 82.1871C91.6077 82.2483 91.2677 82.3903 90.9927 82.5976Z" fill="#F4E6D8"/>
<path d="M158.538 83.5549C158.538 83.5549 160.95 82.4361 163.019 82.9955C166.22 83.8605 165.751 86.2769 165.751 86.2769C165.751 86.2769 170.239 84.9649 171.11 88.8115C171.11 88.8115 175.157 89.5468 174.247 92.8282C174.247 92.8282 177.522 92.9695 176.871 96.4499C176.221 99.9302 173.358 102.822 171.636 102.822C169.858 102.822 168.603 101.937 168.845 99.3622C168.845 99.3622 166.69 101.554 164.396 100.579C162.102 99.6044 163.019 97.5052 163.019 97.5052C163.019 97.5052 160.95 98.624 159.228 97.2169C157.667 95.951 158.873 93.8634 158.873 93.8634C158.873 93.8634 156.582 94.6217 155.772 93.304C154.047 90.5099 158.791 87.5053 159.563 86.5999L158.538 83.5549Z" fill="#A15842"/>
<path d="M157.514 94.8812C159.883 93.1194 163.916 89.7947 165.829 86.3057" stroke="#30242A" stroke-width="4" stroke-linecap="round" stroke-linejoin="round"/>
<path d="M161.864 98.9039C165.8 96.1899 169.012 92.854 171.306 89.1" stroke="#30242A" stroke-width="4" stroke-linecap="round" stroke-linejoin="round"/>
<path d="M167.956 100.974C169.022 99.9188 172.753 96.127 174.602 93.1252" stroke="#30242A" stroke-width="4" stroke-linecap="round" stroke-linejoin="round"/>
<path d="M167.287 165.152H107.597L121.165 130.397C121.566 129.374 122.358 128.481 123.427 127.847C124.497 127.214 125.787 126.873 127.111 126.874H177.55C178.531 126.873 179.497 127.06 180.371 127.419C181.245 127.779 182.003 128.3 182.582 128.941C183.161 129.582 183.546 130.324 183.705 131.109C183.864 131.893 183.792 132.696 183.497 133.454L172.276 162.193C171.939 163.052 171.274 163.801 170.377 164.333C169.48 164.865 168.398 165.152 167.287 165.152Z" fill="#30242A"/>
<path d="M72.9549 161.239C72.7788 161.689 72.7361 162.167 72.8302 162.633C72.9243 163.099 73.1527 163.54 73.4967 163.922C73.8407 164.303 74.2906 164.613 74.8101 164.827C75.3295 165.04 75.9038 165.152 76.4863 165.152H167.287C168.397 165.15 169.478 164.862 170.373 164.329C171.268 163.796 171.931 163.046 172.266 162.188L172.621 161.239H72.9549Z" fill="#30242A"/>
<path d="M158.144 143.021C156.757 141.481 150.451 145.547 149.989 145.884C149.747 145.547 146.468 141.481 144.061 143.021C141.973 144.356 146.55 150.316 147.784 151.836C147.835 151.882 147.898 151.919 147.967 151.944C148.037 151.97 148.113 151.983 148.189 151.983C148.266 151.983 148.342 151.97 148.412 151.944C148.481 151.919 148.544 151.882 148.595 151.836C150.839 150.302 159.349 144.342 158.144 143.021Z" fill="#FFBE21"/>
<path d="M152.382 141.933C152.883 140.628 152.863 139.463 152.336 139.33C151.809 139.197 150.975 140.146 150.474 141.451C149.973 142.756 149.994 143.921 150.521 144.054C151.048 144.187 151.881 143.237 152.382 141.933Z" fill="#FFBE21"/>
<path d="M38.7535 133.641C39.5283 133.883 40.3707 133.946 41.187 133.823C42.0033 133.7 42.7614 133.395 43.3768 132.943C43.4498 133.617 43.7535 134.26 44.2537 134.801C44.7539 135.342 45.4306 135.758 46.2074 136.003C46.9842 136.249 47.8301 136.313 48.6497 136.189C49.4692 136.065 50.2296 135.758 50.8451 135.302C50.92 135.975 51.2249 136.617 51.7255 137.157C52.2261 137.696 52.9026 138.112 53.6788 138.357C54.455 138.602 55.3 138.666 56.1188 138.542C56.9376 138.419 57.6977 138.113 58.3134 137.658C58.3704 138.189 58.5712 138.703 58.9015 139.164C59.2318 139.625 59.6835 140.021 60.2242 140.323C60.765 140.626 61.3815 140.829 62.0299 140.916C62.6783 141.004 63.3425 140.974 63.9751 140.83L69.3523 129.12C71.4234 124.625 72.4051 119.848 72.2436 115.051L71.6995 99.4805C71.6995 99.4805 59.2914 100.317 52.0543 107.583C48.3414 111.311 41.0545 121.161 36.385 131.871C36.8757 132.679 37.7201 133.31 38.7535 133.641Z" fill="#FFBE21"/>
<path d="M61.155 140.714C60.3762 140.471 59.6968 140.056 59.194 139.516C58.6912 138.976 58.385 138.332 58.31 137.658C57.6942 138.113 56.9342 138.419 56.1153 138.542C55.2965 138.666 54.4515 138.602 53.6753 138.357C52.8991 138.112 52.2226 137.696 51.722 137.157C51.2214 136.617 50.9165 135.975 50.8416 135.302C50.2261 135.758 49.4657 136.065 48.6462 136.189C47.8267 136.313 46.9807 136.249 46.2039 136.004C45.4271 135.758 44.7504 135.342 44.2502 134.801C43.75 134.26 43.4463 133.617 43.3733 132.943C42.8614 133.321 42.2482 133.598 41.582 133.751C40.9159 133.904 40.215 133.93 39.5345 133.827C38.854 133.723 38.2124 133.492 37.6604 133.154C37.1083 132.815 36.6608 132.377 36.3531 131.874C32.3059 141.156 30.2219 151.086 34.141 158.235C42.5767 173.63 67.8943 168.211 73.869 166.787C79.8436 165.363 91.4516 160.515 99.1866 161.372C106.922 162.228 115.709 165.363 117.118 161.372C117.118 161.372 121.851 161.274 120.361 157.623C120.361 157.623 122.74 157.384 123.092 155.959C123.804 153.108 115.357 150.544 115.357 150.544C115.357 150.544 122.04 151.409 123.444 150.256C125.223 148.814 123.494 146.487 112.58 144.342C100.591 141.989 84.7692 143.413 61.2119 146.833L63.9681 140.827C63.0403 141.038 62.0527 140.999 61.155 140.714Z" fill="#A15842"/>
<path d="M69.4447 127.566L61.5745 146.193" stroke="#30242A" stroke-width="4" stroke-linecap="round" stroke-linejoin="round"/>
<path d="M117.48 150.749C113.661 149.573 107.302 147.768 102.366 147.116" stroke="#30242A" stroke-width="4" stroke-linecap="round" stroke-linejoin="round"/>
<path d="M120.461 157.473C115.553 155.683 106.178 152.433 101.135 151.822" stroke="#30242A" stroke-width="4" stroke-linecap="round" stroke-linejoin="round"/>
<path d="M61.2686 146.234C58.6227 146.58 54.4689 147.153 50.3186 147.825" stroke="#30242A" stroke-width="4" stroke-linecap="round" stroke-linejoin="round"/>
<path d="M116.972 161.764C113.291 160.244 105.535 157.222 100.083 156.38" stroke="#30242A" stroke-width="4" stroke-linecap="round" stroke-linejoin="round"/>
<path d="M281.712 124.971C281.712 124.971 278.917 130.069 271.584 130.069C264.251 130.069 261.441 124.971 261.441 124.971C261.441 124.971 240.814 163.206 261.086 183.315H282.043C302.304 163.206 281.712 124.971 281.712 124.971Z" fill="#3EC1F3"/>
<path d="M271.566 130.069C278.899 130.069 281.694 124.971 281.694 124.971H261.423C261.423 124.971 264.229 130.069 271.566 130.069Z" fill="#30242A"/>
<path d="M290.511 159.01C279.109 159.175 265.616 162.514 255.232 174.293" stroke="#F5EBDD" stroke-width="4" stroke-linecap="round" stroke-linejoin="round"/>
<path d="M253.407 149.653C261.061 148.14 275.553 146.698 289.6 149.408" stroke="#F5EBDD" stroke-width="4" stroke-linecap="round" stroke-linejoin="round"/>
<path d="M289.536 168.825C284.436 168.874 275.009 173.56 276.047 183.004" stroke="#F5EBDD" stroke-width="4" stroke-linecap="round" stroke-linejoin="round"/>
<path d="M270.282 128.373C270.069 124.264 268.721 107.935 260.719 98.3558" stroke="#30242A" stroke-width="4" stroke-miterlimit="10" stroke-linecap="round"/>
<path d="M268.615 115.817C269.638 114.411 264.215 110.281 256.503 106.591C248.791 102.902 241.709 101.051 240.686 102.457C239.663 103.863 245.086 107.993 252.798 111.682C260.51 115.372 267.592 117.223 268.615 115.817Z" fill="#30242A"/>
<path d="M265.62 75.0663C267.121 74.3722 266.35 70.9811 263.896 67.492C261.443 64.003 258.236 61.7373 256.735 62.4314C255.233 63.1255 256.005 66.5167 258.459 70.0057C260.912 73.4947 264.118 75.7605 265.62 75.0663Z" fill="#30242A"/>
<path d="M239.207 89.8582C240.014 88.4021 243.812 88.2954 248.429 89.4113C245.584 85.285 244.712 81.4471 246.594 80.458C248.475 79.469 252.451 81.6576 255.94 85.4551C256.555 81.5826 258.219 78.8231 260.207 78.8058C262.718 78.8058 264.774 83.2954 264.798 88.849C264.814 90.4371 264.64 92.0227 264.279 93.5837C263.184 93.1772 261.982 92.9989 260.78 93.065C259.579 93.1312 258.417 93.4397 257.4 93.9626C256.383 94.4854 255.544 95.206 254.957 96.0589C254.371 96.9117 254.057 97.8698 254.044 98.8461C252.203 98.48 250.407 97.9761 248.681 97.3409C242.411 95.0658 238.179 91.7181 239.207 89.8582Z" fill="#4756DF"/>
<path d="M257.32 94.0018C258.34 93.464 259.511 93.1441 260.725 93.072C261.939 92.9999 263.155 93.1779 264.262 93.5894C263.65 96.1701 262.544 98.0848 261.214 98.7076C259.948 99.4544 257.266 99.4833 254.026 98.8518C254.04 97.8859 254.347 96.9377 254.922 96.0915C255.496 95.2453 256.32 94.5274 257.32 94.0018Z" fill="#30242A"/>
<path d="M272.95 128.125C273.931 123.587 279.042 101.335 287.221 88.7452" stroke="#30242A" stroke-width="4" stroke-miterlimit="10" stroke-linecap="round"/>
<path d="M314.829 119.583C315.418 118.111 307.561 114.728 297.28 112.028C287 109.327 278.189 108.332 277.6 109.804C277.012 111.277 284.869 114.66 295.15 117.36C305.43 120.061 314.241 121.056 314.829 119.583Z" fill="#30242A"/>
<path d="M285.681 69.2383C287.645 69.0941 289.622 71.7268 290.685 75.5358C293.715 71.499 297.421 69.0019 299.409 69.8467C301.397 70.6916 300.992 74.5728 298.619 78.9009C303.086 77.439 306.881 77.2544 307.866 78.6442C309.104 80.4147 305.28 84.0739 299.331 86.8132C297.634 87.6018 295.847 88.2565 293.996 88.7682C293.895 87.7964 293.496 86.8604 292.836 86.0452C292.176 85.2299 291.275 84.561 290.216 84.0992C289.156 83.6373 287.971 83.3971 286.769 83.4002C285.566 83.4033 284.383 83.6497 283.327 84.1171C282.819 82.6354 282.48 81.1191 282.313 79.5872C281.656 74.0566 283.181 69.4229 285.681 69.2383Z" fill="#4756DF"/>
<path d="M290.116 84.0654C291.195 84.5229 292.113 85.1938 292.786 86.016C293.46 86.8382 293.866 87.7849 293.967 88.7684C290.891 89.6017 288.277 89.7603 286.969 89.1259C285.546 88.5982 284.198 86.7153 283.288 84.1173C284.332 83.6525 285.502 83.4045 286.694 83.3954C287.885 83.3863 289.061 83.6165 290.116 84.0654Z" fill="#30242A"/>
<path d="M306.884 95.6367V95.6598C305.212 96.219 303.858 97.266 303.091 98.5945C302.324 99.9229 302.198 101.436 302.739 102.836C303.28 104.236 304.449 105.42 306.014 106.156C307.579 106.892 309.428 107.125 311.195 106.81V106.833C301.824 109.212 293.26 108.635 292.065 105.542C290.87 102.448 297.513 98.0156 306.884 95.6367Z" fill="#4756DF"/>
<path d="M304.654 105.334C305.476 105.067 306.143 104.558 306.522 103.909C306.901 103.26 306.963 102.519 306.696 101.835C306.429 101.15 305.853 100.573 305.084 100.218C304.314 99.8632 303.407 99.7574 302.545 99.9217C302.782 98.9764 303.302 98.0929 304.06 97.3495C304.818 96.6061 305.791 96.0258 306.891 95.6599L311.202 106.81C310.045 107.018 308.843 106.991 307.701 106.734C306.559 106.477 305.513 105.996 304.654 105.334Z" fill="#FFB7D5"/>
<path d="M306.681 101.845C306.945 102.527 306.884 103.264 306.508 103.91C306.132 104.557 305.471 105.065 304.654 105.334C303.767 104.65 303.107 103.795 302.739 102.849C302.37 101.902 302.303 100.895 302.545 99.9218C303.407 99.7619 304.311 99.8711 305.077 100.228C305.844 100.584 306.417 101.162 306.681 101.845Z" fill="#30242A"/>
</svg>
