<svg width="368" height="267" viewBox="0 0 368 267" fill="none" xmlns="http://www.w3.org/2000/svg">
<path d="M62.1027 264.997C61.6048 264.997 61.1143 264.862 60.6729 264.603C60.2315 264.344 59.8523 263.969 59.5677 263.51C59.283 263.051 59.1013 262.522 59.038 261.967C58.9747 261.412 59.0317 260.849 59.2042 260.324L66.7827 237.257H78.8354L64.7455 263.346C64.4676 263.852 64.0787 264.27 63.616 264.559C63.1532 264.848 62.6322 264.999 62.1027 264.997Z" fill="black"/>
<path d="M169.389 264.997C169.887 264.997 170.378 264.862 170.819 264.603C171.261 264.344 171.64 263.969 171.924 263.51C172.209 263.051 172.391 262.522 172.454 261.967C172.517 261.412 172.46 260.849 172.288 260.324L164.709 237.257H152.657L166.747 263.346C167.024 263.852 167.413 264.27 167.876 264.559C168.339 264.848 168.86 264.999 169.389 264.997Z" fill="black"/>
<path d="M181.301 168.717H50.1909V245.661H181.301V168.717Z" fill="#CA7358"/>
<path d="M172.482 178.624H59.01V235.754H172.482V178.624Z" fill="#FFBE21"/>
<path d="M172.629 207.278H59.01" stroke="#CA7358" stroke-width="4" stroke-miterlimit="10"/>
<path d="M115.746 197.206C117.532 197.206 118.98 195.58 118.98 193.574C118.98 191.567 117.532 189.941 115.746 189.941C113.96 189.941 112.512 191.567 112.512 193.574C112.512 195.58 113.96 197.206 115.746 197.206Z" fill="#30242A"/>
<path d="M115.746 224.946C117.532 224.946 118.98 223.32 118.98 221.313C118.98 219.307 117.532 217.681 115.746 217.681C113.96 217.681 112.512 219.307 112.512 221.313C112.512 223.32 113.96 224.946 115.746 224.946Z" fill="#30242A"/>
<path d="M90.9056 136.113C93.2597 136.113 95.1681 133.969 95.1681 131.324C95.1681 128.68 93.2597 126.536 90.9056 126.536C88.5515 126.536 86.6431 128.68 86.6431 131.324C86.6431 133.969 88.5515 136.113 90.9056 136.113Z" fill="#FFBE21"/>
<path d="M112.953 136.113C115.307 136.113 117.216 133.969 117.216 131.324C117.216 128.68 115.307 126.536 112.953 126.536C110.599 126.536 108.691 128.68 108.691 131.324C108.691 133.969 110.599 136.113 112.953 136.113Z" fill="#FFBE21"/>
<path d="M101.929 126.536C101.357 126.536 100.792 126.682 100.277 126.962C100.02 126.004 99.503 125.16 98.798 124.549C98.0929 123.937 97.2353 123.589 96.3452 123.552C95.4551 123.515 94.577 123.792 93.8338 124.343C93.0906 124.895 92.5194 125.693 92.2002 126.627C91.881 127.562 91.8297 128.584 92.0536 129.553C92.2774 130.521 92.7652 131.387 93.4486 132.029C94.132 132.67 94.9769 133.056 95.865 133.132C96.7532 133.207 97.6402 132.969 98.4019 132.45C98.6638 133.172 99.0954 133.799 99.6505 134.266C100.206 134.733 100.863 135.021 101.553 135.1C102.243 135.179 102.939 135.045 103.566 134.714C104.194 134.383 104.729 133.866 105.115 133.219C105.501 132.571 105.723 131.819 105.757 131.041C105.792 130.263 105.637 129.489 105.309 128.802C104.982 128.116 104.494 127.542 103.899 127.143C103.304 126.743 102.623 126.534 101.929 126.536Z" fill="#FFBE21"/>
<path d="M109.552 126.549C109.259 125.746 108.777 125.048 108.159 124.529C107.54 124.01 106.807 123.689 106.038 123.602C105.27 123.514 104.495 123.663 103.796 124.031C103.097 124.4 102.5 124.976 102.069 125.696C101.639 126.416 101.39 127.255 101.351 128.121C101.312 128.988 101.483 129.85 101.846 130.616C102.209 131.382 102.75 132.022 103.412 132.469C104.074 132.916 104.832 133.153 105.604 133.154C105.752 133.153 105.9 133.145 106.048 133.127C106.395 133.749 106.879 134.26 107.452 134.612C108.026 134.964 108.67 135.145 109.324 135.138C109.977 135.13 110.618 134.935 111.185 134.57C111.752 134.204 112.226 133.682 112.562 133.053C112.898 132.423 113.085 131.707 113.104 130.973C113.124 130.239 112.976 129.512 112.674 128.861C112.372 128.21 111.926 127.657 111.38 127.255C110.833 126.852 110.204 126.614 109.552 126.562V126.549Z" fill="#FFBE21"/>
<path d="M100.46 128.517C102.246 128.517 103.693 126.891 103.693 124.885C103.693 122.879 102.246 121.252 100.46 121.252C98.6738 121.252 97.2261 122.879 97.2261 124.885C97.2261 126.891 98.6738 128.517 100.46 128.517Z" fill="#FFBE21"/>
<path d="M111.189 119.931C112.407 119.931 113.394 118.822 113.394 117.455C113.394 116.087 112.407 114.978 111.189 114.978C109.972 114.978 108.985 116.087 108.985 117.455C108.985 118.822 109.972 119.931 111.189 119.931Z" fill="#FFBE21"/>
<path d="M84.3884 131.159L90.2678 168.806H94.4333L89.7798 131.159H84.3884Z" fill="#FF7235"/>
<path d="M113.982 131.159L109.326 168.806H113.491L119.371 131.159H113.982Z" fill="#FF7235"/>
<path d="M106.633 131.159L104.434 168.806H109.326L113.982 131.159H106.633Z" fill="#F5EBDD"/>
<path d="M89.7798 131.159L94.4333 168.806H99.3249L97.129 131.159H89.7798Z" fill="#F5EBDD"/>
<path d="M97.1289 131.159L99.3248 168.806H104.434L106.633 131.159H97.1289Z" fill="#FF7235"/>
<path d="M154.223 143.16H209.228V265H130.444V169.869C130.445 162.785 132.951 155.992 137.41 150.983C141.869 145.974 147.917 143.16 154.223 143.16Z" fill="#FFB7D5"/>
<path d="M215.075 77.0933H292.75C299.056 77.0941 305.104 79.9089 309.563 84.9184C314.022 89.9279 316.526 96.7218 316.526 103.806V264.997H191.296V103.806C191.296 96.7213 193.801 89.9268 198.261 84.9172C202.72 79.9076 208.768 77.0933 215.075 77.0933Z" fill="#FFB7D5"/>
<path d="M187.148 175.695H292.75C299.056 175.695 305.103 178.51 309.562 183.519C314.02 188.527 316.526 195.32 316.526 202.404V264.997H163.369V202.404C163.37 195.32 165.875 188.526 170.335 183.517C174.794 178.509 180.842 175.695 187.148 175.695Z" fill="#FFB7D5"/>
<path d="M237.302 205.346H173.176" stroke="#CA7358" stroke-width="4" stroke-miterlimit="10"/>
<path d="M163.369 202.404V264.997" stroke="#CA7358" stroke-width="4" stroke-miterlimit="10"/>
<path d="M316.526 142.767H266.804" stroke="#CA7358" stroke-width="4" stroke-miterlimit="10"/>
<path d="M181.889 0H50.7788V99.7308H181.889V0Z" fill="#F5EBDD"/>
<path d="M173.07 9.90707H59.5979V89.8238H173.07V9.90707Z" fill="#30242A"/>
<path d="M142.009 59.5215C143.021 59.6304 144.029 59.7493 145.037 59.8715L147.265 53.6994L149.379 60.4428C150.467 60.5947 151.551 60.7543 152.633 60.9217L148.923 49.096L152.633 38.8026H149.491L149.458 38.8521L147.454 44.4132L145.69 38.7993H142.591L145.796 49.0101L142.009 59.5215Z" fill="#FF7235"/>
<path d="M139.66 59.2804V38.8058H136.559V59.003C137.594 59.091 138.628 59.1868 139.66 59.2903" fill="#FF7235"/>
<path d="M116.36 58.1345C117.197 58.1345 118.034 58.14 118.871 58.151V50.625H122.596V47.4217H118.871V42.0092H123.16V38.8026H115.746V58.1378H116.352" fill="#FF7235"/>
<path d="M106.73 58.3426C107.765 58.3029 108.788 58.2666 109.834 58.2402V42.0092H112.733V38.8026H103.832V42.0092H106.73V58.3426Z" fill="#FF7235"/>
<path d="M83.0099 60.4891V48.2902L86.6815 59.9938C87.8104 59.8529 88.9421 59.7186 90.0768 59.5909V38.7861H87.1019V51.4407L83.1363 38.8026H80.0349V60.9283H80.0525C81.0344 60.7764 82.0221 60.6311 83.0099 60.4891Z" fill="#FF7235"/>
<path d="M100.842 42.0092V38.8026H93.4341V59.2441C95.8917 59.0063 98.359 58.806 100.836 58.6431V55.4365C99.4036 55.529 97.9749 55.639 96.5501 55.7667V50.6283H100.275V47.4217H96.5501V42.0092H100.842Z" fill="#FF7235"/>
<path d="M129.31 55.2846V38.8026H126.194V58.3426C128.673 58.4461 131.141 58.587 133.599 58.7653V55.5587C132.172 55.453 130.743 55.3628 129.31 55.2879" fill="#FF7235"/>
<path d="M220.987 127.197C220.987 127.197 193.354 134.131 179.243 143.048C164.733 152.215 163.369 165.081 154.312 195.981C150.337 209.521 148.341 219.243 146.204 225.9L170.865 238.981C172.041 236.531 173.087 234.12 173.952 231.881C173.952 231.881 185.258 231.316 186.337 214.319C187.142 201.621 187.53 192.223 191.475 182.739L258.882 127.051L220.987 127.197Z" fill="#30242A"/>
<path d="M136.089 237.785C135.965 237.808 135.842 237.835 135.715 237.855C126.981 239.344 123.336 241.253 121.899 245.701L158.351 264.789C158.767 265.007 159.238 265.056 159.682 264.927C160.127 264.798 160.518 264.499 160.788 264.082C160.942 263.844 161.053 263.575 161.113 263.289C161.174 263.003 161.183 262.707 161.141 262.417C161.099 262.127 161.006 261.849 160.868 261.6C160.729 261.351 160.548 261.135 160.335 260.964L136.324 248.723C136.89 245.095 136.81 241.378 136.089 237.785Z" fill="#30242A"/>
<path d="M170.865 238.981L146.204 225.9C144.943 229.83 143.632 232.696 141.836 234.661C140.342 236.312 138.508 237.303 136.089 237.785C136.81 241.378 136.89 245.095 136.324 248.723L160.347 260.965C160.254 260.89 160.156 260.825 160.053 260.77L159.171 260.297C160.6 257.986 162.843 254.215 165.241 249.855C167.146 246.438 169.119 242.666 170.865 238.981Z" fill="#EAA58B"/>
<path d="M173.749 232.35L148.082 218.837" stroke="#F5EBDD" stroke-width="4" stroke-linecap="round" stroke-linejoin="round"/>
<path d="M272.872 140.541L271.843 127.814H251.559C251.559 127.814 217.459 136.981 202.963 144.791C188.535 152.558 190.267 170.599 192.986 202.179C194.373 218.278 196.105 229.335 196.014 237.164H222.765C222.912 234.624 223.01 231.943 223.059 229.123C223.059 229.123 233.495 223.572 228.056 205.574C224.414 193.521 221.269 185.539 221.269 175.07H244.798C248.715 175.071 252.589 174.155 256.173 172.38C259.757 170.604 262.972 168.01 265.613 164.761C268.255 161.512 270.265 157.68 271.514 153.51C272.764 149.34 273.226 144.923 272.872 140.541Z" fill="#30242A"/>
<path d="M189.661 251.86C182.865 257.051 180.466 260.446 180.842 264.987L221.089 264.927C221.521 264.907 221.928 264.7 222.227 264.351C222.525 264.001 222.692 263.535 222.692 263.05C222.692 262.565 222.525 262.099 222.227 261.749C221.928 261.4 221.521 261.193 221.089 261.173H194.235C194.235 261.173 192.766 255.598 189.661 251.86Z" fill="#30242A"/>
<path d="M196.014 237.165C195.964 241.623 195.323 245.037 193.689 247.732C192.807 249.16 191.685 250.38 190.385 251.322L189.661 251.86C192.769 255.588 194.236 261.173 194.236 261.173H219.658C220.623 256.744 221.361 252.256 221.869 247.732C222.233 244.575 222.551 241.038 222.774 237.165H196.014Z" fill="#EAA58B"/>
<path d="M221.574 136.773C215.078 139.105 207.411 141.958 202.466 144.699C191.175 150.95 189.735 163.139 190.96 183.435" stroke="#A15842" stroke-width="4" stroke-linecap="round" stroke-linejoin="round"/>
<path d="M220.987 175.853H213.693" stroke="#A15842" stroke-width="4" stroke-linecap="round" stroke-linejoin="round"/>
<path d="M223.044 229.681H195.705" stroke="#F5EBDD" stroke-width="4" stroke-miterlimit="10" stroke-linecap="round"/>
<path d="M261.522 143.16H316.526V265H237.743V169.869C237.743 162.785 240.249 155.992 244.708 150.983C249.168 145.974 255.216 143.16 261.522 143.16Z" fill="#FFB7D5"/>
<path d="M237.155 175.084V264.604" stroke="#CA7358" stroke-width="4" stroke-miterlimit="10"/>
<path d="M30.3481 217.02C23.5868 217.02 18.072 212.466 17.8633 206.783V264.904H42.8506V206.783C42.6242 212.466 37.1182 217.02 30.3481 217.02Z" fill="#4756DF"/>
<path d="M18.3276 251.751C26.5294 250.76 36.2979 244.321 34.4636 229.074C32.9937 216.855 22.2639 220.323 28.4372 231.881C32.0648 238.674 38.0294 243.3 42.3302 245.959" stroke="#3EC1F3" stroke-width="4" stroke-miterlimit="10" stroke-linecap="round"/>
<path d="M18.2544 238.013C23.1431 241.771 31.8034 250.404 35.1046 264.316" stroke="#3EC1F3" stroke-width="4" stroke-miterlimit="10" stroke-linecap="round"/>
<path d="M18.2249 256.605C21.432 257.672 25.5447 259.971 28.6402 264.356" stroke="#3EC1F3" stroke-width="4" stroke-miterlimit="10" stroke-linecap="round"/>
<path d="M27.179 209.808C25.0978 213.88 21.9946 217.173 18.2571 219.276" stroke="#3EC1F3" stroke-width="4" stroke-miterlimit="10" stroke-linecap="round"/>
<path d="M30.3481 217.02C37.1094 217.02 42.6243 212.466 42.833 206.783H17.8545C18.072 212.466 23.5781 217.02 30.3481 217.02Z" fill="#30242A"/>
<path d="M23.293 155.762L30.0542 212.892" stroke="#30242A" stroke-width="4" stroke-miterlimit="10" stroke-linecap="round"/>
<path d="M21.1294 178.786L29.0371 212.413" stroke="#30242A" stroke-width="4" stroke-miterlimit="10" stroke-linecap="round"/>
<path d="M45.6598 192.203C51.2907 189.498 55.3163 185.889 54.6512 184.142C53.9861 182.394 48.8822 183.17 43.2513 185.875C37.6204 188.579 33.5948 192.188 34.2599 193.936C34.925 195.683 40.0289 194.907 45.6598 192.203Z" fill="#30242A"/>
<path d="M25.8434 199.406C26.4168 197.698 21.3288 193.961 14.4791 191.059C7.62929 188.158 1.61161 187.191 1.03822 188.899C0.464827 190.607 5.55284 194.344 12.4026 197.246C19.2524 200.147 25.2701 201.114 25.8434 199.406Z" fill="#30242A"/>
<path d="M35.1947 181.201C39.1589 177.846 41.7589 174.212 41.0019 173.083C40.2448 171.954 36.4174 173.758 32.4531 177.113C28.4888 180.467 25.8889 184.102 26.6459 185.231C27.403 186.36 31.2304 184.556 35.1947 181.201Z" fill="#30242A"/>
<path d="M38.8732 162.697L31.23 215.534" stroke="#30242A" stroke-width="4" stroke-miterlimit="10" stroke-linecap="round"/>
<path d="M26.2767 168.172C25.5705 166.857 24.593 165.752 23.4268 164.95C22.2606 164.148 20.9397 163.673 19.5758 163.565C18.2119 163.457 16.8449 163.719 15.5901 164.33C14.3353 164.94 13.2296 165.88 12.3662 167.071C11.5028 168.262 10.9071 169.669 10.6294 171.173C10.3517 172.677 10.4 174.234 10.7704 175.712C11.1408 177.191 11.8223 178.548 12.7575 179.668C13.6926 180.789 14.854 181.64 16.1436 182.151C16.5749 179.02 17.741 176.074 19.522 173.617C21.3029 171.16 23.6345 169.281 26.2767 168.172Z" fill="#FFB7D5"/>
<path d="M22.3789 174.11C20.826 170.132 18.0399 166.924 14.5388 165.081" stroke="#F5EBDD" stroke-width="4" stroke-miterlimit="10" stroke-linecap="round"/>
<path d="M21.0881 175.553C18.3952 172.406 14.7648 170.484 10.8904 170.153" stroke="#F5EBDD" stroke-width="4" stroke-miterlimit="10" stroke-linecap="round"/>
<path d="M16.1436 182.151C17.7997 182.806 19.5957 182.871 21.286 182.337C22.9763 181.803 24.4785 180.695 25.5872 179.165C26.696 177.636 27.3573 175.759 27.4807 173.791C27.6041 171.824 27.1836 169.861 26.2766 168.172C23.6344 169.281 21.3029 171.16 19.5219 173.617C17.7409 176.074 16.5748 179.02 16.1436 182.151Z" fill="#FF7235"/>
<path d="M13.6861 149.553C13.6565 148.018 13.956 146.497 14.5594 145.119C15.1627 143.741 16.0522 142.546 17.1529 141.635C18.2535 140.725 19.533 140.125 20.8834 139.886C22.2338 139.647 23.6155 139.776 24.9121 140.263C26.2086 140.75 27.3818 141.58 28.3329 142.683C29.284 143.786 29.9849 145.13 30.3767 146.602C30.7684 148.073 30.8395 149.628 30.5838 151.137C30.3282 152.646 29.7533 154.063 28.9078 155.27C27.0515 152.883 24.6628 151.096 21.9874 150.091C19.312 149.087 16.4466 148.901 13.6861 149.553Z" fill="#FFB7D5"/>
<path d="M19.8094 152.225C19.2248 147.931 20.0502 143.545 22.1317 139.884" stroke="#F5EBDD" stroke-width="4" stroke-miterlimit="10" stroke-linecap="round"/>
<path d="M21.582 152.667C22.36 148.391 24.5113 144.586 27.626 141.978" stroke="#F5EBDD" stroke-width="4" stroke-miterlimit="10" stroke-linecap="round"/>
<path d="M28.9077 155.27C27.8212 156.82 26.335 157.956 24.6521 158.521C22.9693 159.087 21.1721 159.054 19.5062 158.429C17.8403 157.803 16.3872 156.615 15.3454 155.026C14.3036 153.437 13.7241 151.526 13.686 149.553C16.4465 148.901 19.3119 149.087 21.9873 150.091C24.6627 151.096 27.0515 152.883 28.9077 155.27Z" fill="#FF7235"/>
<path d="M34.1521 150.224C34.9926 149.012 36.0802 148.045 37.3232 147.405C38.5662 146.764 39.9281 146.469 41.294 146.544C42.6598 146.619 43.9896 147.063 45.1709 147.836C46.3523 148.61 47.3506 149.692 48.0817 150.99C48.8127 152.288 49.255 153.765 49.3712 155.296C49.4875 156.826 49.2742 158.366 48.7495 159.784C48.2247 161.203 47.4039 162.459 46.3562 163.446C45.3086 164.434 44.0649 165.123 42.7301 165.457C42.6338 162.291 41.7883 159.211 40.2807 156.533C38.773 153.856 36.6576 151.678 34.1521 150.224Z" fill="#FFB7D5"/>
<path d="M37.3948 156.64C39.3556 152.895 42.4618 150.078 46.1345 148.715" stroke="#F5EBDD" stroke-width="4" stroke-miterlimit="10" stroke-linecap="round"/>
<path d="M38.5176 158.245C41.5252 155.482 45.3333 154.059 49.2151 154.249" stroke="#F5EBDD" stroke-width="4" stroke-miterlimit="10" stroke-linecap="round"/>
<path d="M42.7299 165.457C41.0164 165.886 39.2267 165.71 37.6056 164.953C35.9844 164.196 34.6107 162.896 33.6722 161.229C32.7337 159.562 32.2761 157.611 32.362 155.641C32.4479 153.671 33.073 151.779 34.152 150.224C36.6575 151.678 38.7729 153.856 40.2805 156.533C41.7882 159.211 42.6336 162.291 42.7299 165.457Z" fill="#FF7235"/>
<path d="M367.933 263.927C367.906 264.007 367.872 264.085 367.833 264.159C367.873 264.085 367.907 264.008 367.933 263.927Z" fill="#CA7358"/>
<path d="M353.922 256.652L346.217 264.908H365.913C366.951 264.908 367.556 264.637 367.827 264.171C366.31 264.488 357.514 258.963 353.922 256.652Z" fill="#CA7358"/>
<path d="M367.933 263.927C368.914 260.819 358.858 251.378 358.858 251.378L353.922 256.662C357.514 258.973 366.31 264.498 367.827 264.178C367.87 264.098 367.905 264.014 367.933 263.927Z" fill="#FFB7D5"/>
<path d="M366.501 234.192C366.207 235.844 352.684 238.486 352.684 238.486L351.838 232.185L351.509 232.211L353.702 251.034C353.702 251.034 367.383 237.495 366.501 234.192Z" fill="#CA7358"/>
<path d="M366.501 234.192C365.736 231.333 353.966 232.036 351.838 232.185L352.684 238.485C352.684 238.485 366.207 235.844 366.501 234.192Z" fill="#FFB7D5"/>
<path d="M350.241 234.007L350.75 222.116" stroke="#30242A" stroke-width="4" stroke-linecap="round" stroke-linejoin="round"/>
<path d="M348.175 232.706L345.426 217.539" stroke="#30242A" stroke-width="4" stroke-linecap="round" stroke-linejoin="round"/>
<path d="M303.298 264.997L289.546 244.413L295.949 236.818C295.361 234.506 292.715 224.269 289.187 220.966C285.66 217.664 282.426 217.664 280.662 218.325L280.609 218.344C280.174 218.525 279.791 218.836 279.501 219.244C279.212 219.651 279.027 220.14 278.966 220.657C278.906 221.174 278.972 221.699 279.158 222.177C279.344 222.655 279.642 223.066 280.021 223.367L283.308 226.597C283.308 226.597 275.959 232.871 275.959 239.806C275.959 244.641 278.281 247.118 280.583 248.392L274.489 257.969C274.489 257.969 268.316 258.96 256.263 254.997C252.591 253.788 248.62 251.695 244.91 249.773C244.91 254.271 243.07 257.873 240.344 260.525C246.594 263.293 254.549 264.997 260.722 264.997H303.298Z" fill="#A15842"/>
<path d="M266.258 257.804C267.281 260.02 268.536 262.292 270.75 264.303" stroke="#30242A" stroke-width="4" stroke-miterlimit="10" stroke-linecap="round"/>
<path d="M295.067 235.679L292.715 237.66" stroke="#30242A" stroke-width="4" stroke-miterlimit="10" stroke-linecap="round"/>
<path d="M244.91 249.773C238.736 246.593 233.298 243.981 231.275 247.072C227.821 252.355 232.854 257.203 240.344 260.525C243.069 257.874 244.924 254.271 244.91 249.773Z" fill="#F5EBDD"/>
<path d="M357.094 243.099C357.094 241.699 358.664 239.862 359.898 239.298C357.597 232.211 348.375 226.049 338.868 231.55C338.868 231.55 337.692 224.946 334.458 222.304C331.433 219.83 328.285 219.586 325.933 220.577L325.863 220.607C325.438 220.797 325.064 221.106 324.776 221.504C324.487 221.902 324.293 222.375 324.211 222.88C324.13 223.386 324.165 223.906 324.312 224.392C324.459 224.878 324.713 225.314 325.051 225.659L329.167 229.899L327.109 234.447C325.012 232.312 322.55 230.682 319.872 229.655C319.639 242.009 305.2 247.451 298.006 244.76C295.478 240.797 293.388 238.763 292.853 238.277L292.715 238.409C292.715 238.409 286.542 233.862 280.956 238.485C280.956 238.485 278.016 230.89 274.489 227.842C271.505 225.263 265.67 225.2 264.2 226.851L264.156 226.901C263.816 227.29 263.559 227.761 263.404 228.277C263.248 228.793 263.198 229.343 263.257 229.884C263.316 230.425 263.483 230.944 263.745 231.403C264.007 231.862 264.357 232.249 264.77 232.535L268.903 235.437C268.903 235.437 258.321 253.27 272.431 264.997H347.393C358.646 264.997 361.286 254.855 361.033 246.721C359.701 246.332 357.094 245.285 357.094 243.099Z" fill="#CA7358"/>
<path d="M298.006 244.76C305.2 247.451 319.639 242.009 319.872 229.655C316.916 228.482 313.76 228.088 310.647 228.502C302.122 229.629 293.979 237.194 292.853 238.277C293.388 238.763 295.478 240.781 298.006 244.76Z" fill="#F5EBDD"/>
<path d="M357.094 243.099C357.094 245.285 359.701 246.332 361.033 246.731C360.976 244.362 360.64 242.011 360.034 239.74C359.992 239.595 359.943 239.453 359.898 239.308C358.664 239.863 357.094 241.699 357.094 243.099Z" fill="#30242A"/>
<path d="M354.733 243.888L358.914 243.195" stroke="#30242A" stroke-width="4" stroke-linecap="round" stroke-linejoin="round"/>
<path d="M339.615 231.716C340.811 237.131 342.284 244.7 342.848 249.548" stroke="#30242A" stroke-width="4" stroke-linecap="round" stroke-linejoin="round"/>
<path d="M326.668 223.79L325.575 225.629" stroke="#30242A" stroke-width="4" stroke-linecap="round" stroke-linejoin="round"/>
<path d="M328.726 225.771L327.573 227.71" stroke="#30242A" stroke-width="4" stroke-linecap="round" stroke-linejoin="round"/>
<path d="M265.523 229.734L264.417 231.597" stroke="#30242A" stroke-width="4" stroke-linecap="round" stroke-linejoin="round"/>
<path d="M267.874 231.385L266.681 233.393" stroke="#30242A" stroke-width="4" stroke-linecap="round" stroke-linejoin="round"/>
<path d="M326.662 234.242C321.315 245.219 316.9 256.86 325.26 264.561" stroke="#30242A" stroke-width="4" stroke-linecap="round" stroke-linejoin="round"/>
<path d="M300.946 252.52C299.77 246.576 296.152 239.159 291.539 236.999C288.012 235.348 284.484 235.678 281.25 237.66C281.25 237.66 279.854 234.295 278.731 232.452" stroke="#30242A" stroke-width="4" stroke-miterlimit="10" stroke-linecap="round"/>
<path d="M352.499 240.047C352.499 240.047 353.381 243.138 354.733 243.888C354.733 243.888 353.775 245.43 353.616 248.416" stroke="#30242A" stroke-width="4" stroke-linecap="round" stroke-linejoin="round"/>
<path d="M315.644 228.578C315.644 228.578 313.293 233.202 309.471 232.872C305.649 232.541 305.943 226.267 310.353 222.634C312.213 221.405 314.417 221.007 316.526 221.518C320.283 222.439 322.482 230.94 322.482 230.94C322.482 230.94 318.584 228.909 315.644 228.578Z" fill="#CA7358"/>
<path d="M348.863 202.312L353.702 198.989L351.55 207.443L357.241 203.646" stroke="#FFB7D5" stroke-width="4" stroke-linecap="round" stroke-linejoin="round"/>
<path d="M359.434 188.597L364.528 188.141L359.731 193.957L365.472 193.508" stroke="#FFB7D5" stroke-width="4" stroke-linecap="round" stroke-linejoin="round"/>
<path d="M309.015 229.708L309.01 232.211" stroke="#30242A" stroke-width="4" stroke-linecap="round" stroke-linejoin="round"/>
<path d="M311.705 229.421L311.699 231.901" stroke="#30242A" stroke-width="4" stroke-linecap="round" stroke-linejoin="round"/>
<path d="M280.991 221.574L279.927 222.852" stroke="#30242A" stroke-width="4" stroke-linecap="round" stroke-linejoin="round"/>
<path d="M283.073 223.305L281.806 224.827" stroke="#30242A" stroke-width="4" stroke-linecap="round" stroke-linejoin="round"/>
<path d="M175.804 96.63L166.309 89.269L165.9 88.9388C163.387 87.6179 156.564 87.9976 156.908 84.9132C156.981 84.2528 157.672 83.7541 158.762 83.4107L144.964 72.7408C144.453 72.3475 143.825 72.1963 143.216 72.32C142.606 72.4436 142.065 72.8322 141.709 73.4013L140.24 75.7757C140.975 76.4945 141.448 77.4923 141.57 78.5786C141.692 79.6648 141.454 80.7635 140.9 81.6648C140.347 82.5661 139.518 83.2069 138.57 83.465C137.623 83.7231 136.625 83.5803 135.765 83.0639L134.084 85.8016C133.733 86.3754 133.598 87.0817 133.708 87.7669C133.818 88.4521 134.164 89.0608 134.672 89.4606L165.509 113.35C166.02 113.744 166.649 113.896 167.259 113.772C167.869 113.648 168.41 113.259 168.766 112.689L171.453 108.314L176.404 100.282C176.751 99.7074 176.884 99.0015 176.771 98.3178C176.659 97.6341 176.311 97.0276 175.804 96.63ZM157.931 102.759C156.681 102.759 155.459 102.343 154.419 101.563C153.38 100.782 152.57 99.6735 152.091 98.3761C151.613 97.0788 151.488 95.6512 151.732 94.2739C151.976 92.8966 152.577 91.6315 153.461 90.6386C154.345 89.6456 155.471 88.9694 156.698 88.6954C157.924 88.4215 159.194 88.5621 160.349 89.0995C161.504 89.6369 162.491 90.5469 163.186 91.7145C163.88 92.8821 164.251 94.2548 164.251 95.6591C164.25 97.5418 163.584 99.3473 162.399 100.679C161.214 102.01 159.607 102.758 157.931 102.759ZM171.894 101.56L168.219 107.505C168.059 107.762 167.814 107.937 167.539 107.993C167.264 108.048 166.98 107.98 166.75 107.802C166.52 107.622 166.362 107.348 166.312 107.038C166.262 106.729 166.323 106.41 166.482 106.151L170.16 100.206C170.239 100.078 170.34 99.9685 170.457 99.884C170.574 99.7995 170.705 99.7417 170.842 99.714C170.979 99.6862 171.119 99.689 171.255 99.7222C171.391 99.7554 171.52 99.8184 171.634 99.9075C171.748 99.9966 171.846 100.11 171.921 100.242C171.996 100.373 172.048 100.52 172.072 100.674C172.097 100.827 172.094 100.985 172.065 101.138C172.035 101.291 171.979 101.435 171.9 101.564L171.894 101.56Z" fill="#4756DF"/>
<path d="M157.93 102.759C161.421 102.759 164.251 99.5802 164.251 95.659C164.251 91.7378 161.421 88.559 157.93 88.559C154.44 88.559 151.61 91.7378 151.61 95.659C151.61 99.5802 154.44 102.759 157.93 102.759Z" fill="#3EC1F3"/>
<path d="M141.615 79.1473C141.615 78.5104 141.494 77.8808 141.258 77.3013C141.023 76.7219 140.679 76.206 140.251 75.7888L135.777 83.0771C136.351 83.425 136.994 83.6066 137.646 83.6055C138.699 83.6055 139.708 83.1358 140.453 82.2997C141.197 81.4636 141.615 80.3297 141.615 79.1473Z" fill="#3EC1F3"/>
<path d="M171.621 99.9026C171.39 99.7249 171.106 99.6568 170.831 99.7131C170.555 99.7694 170.311 99.9455 170.151 100.203L166.473 106.147C166.314 106.406 166.253 106.726 166.303 107.035C166.353 107.345 166.511 107.619 166.741 107.799C166.971 107.977 167.255 108.045 167.53 107.99C167.805 107.934 168.05 107.758 168.21 107.501L171.885 101.557C172.045 101.298 172.107 100.979 172.058 100.668C172.008 100.358 171.851 100.083 171.621 99.9026Z" fill="#30242A"/>
<path d="M161.311 110.024C161.311 110.024 158.665 113.327 156.019 110.354C156.019 110.354 152.786 111.345 151.61 108.373C151.61 108.373 148.964 109.694 147.788 106.722C147.712 106.53 146.26 107.435 144.849 105.401C142.791 102.429 141.615 94.173 143.379 93.8428C146.407 93.2748 147.688 99.6549 147.741 99.4567C148.403 96.9437 149.549 94.8335 150.728 94.8335C152.786 94.8335 153.08 97.1451 153.08 97.1451C153.08 97.1451 154.323 95.2793 156.019 95.8242C158.077 96.4846 157.489 99.4567 157.489 99.4567C157.489 99.4567 159.377 98.0499 160.429 100.117C161.605 102.429 159.253 105.401 159.547 108.703L161.311 110.024Z" fill="#EAA58B"/>
<path d="M157.319 98.9415C156.064 101.405 154.085 106.18 155.332 109.872" stroke="#A15842" stroke-width="4" stroke-linecap="round" stroke-linejoin="round"/>
<path d="M152.836 96.6497C152.039 98.7632 150.369 103.888 151.09 108.02" stroke="#A15842" stroke-width="4" stroke-linecap="round" stroke-linejoin="round"/>
<path d="M147.415 98.6312C147.027 100.745 146.742 103.562 147.242 106.134" stroke="#A15842" stroke-width="4" stroke-linecap="round" stroke-linejoin="round"/>
<path d="M258.321 49.5913C261.848 48.2704 265.964 42.6564 263.024 38.0331C259.129 31.9039 252.441 40.0145 252.441 40.0145C249.608 37.6933 247.458 34.4731 246.268 30.7679C245.386 31.0982 242.74 31.4284 240.683 30.7679C240.683 30.7679 239.801 33.4098 239.213 38.0331C239.133 38.6671 239.039 39.2781 238.936 39.8659C238.936 39.8659 236.273 39.6843 235.979 41.0052C235.615 42.6366 237.946 44.3901 237.946 44.3901C237.034 48.0788 236.276 50.9155 237.449 54.2146C238.484 57.1239 240.683 60.489 247.738 59.4983L247.335 62.9658H268.374C268.492 61.5821 268.63 59.9342 268.777 58.1543C266.39 57.2527 260.417 54.5646 258.321 49.5913Z" fill="#EAA58B"/>
<path d="M260.672 19.8702C252.147 15.5771 244.21 22.1818 244.21 22.1818C244.21 22.1818 236.961 19.8372 236.567 25.1539C236.273 29.1168 240.683 30.7679 240.683 30.7679C242.74 31.4284 245.386 31.0982 246.268 30.7679C247.458 34.4731 249.608 37.6933 252.441 40.0145C252.441 40.0145 259.129 31.9039 263.024 38.0331C265.964 42.6564 261.848 48.2704 258.321 49.5913C260.417 54.5646 266.39 57.2527 268.777 58.1543C269.295 51.8567 269.915 43.8815 270.079 40.0145C270.347 33.7103 269.785 24.4638 260.672 19.8702Z" fill="#4756DF"/>
<path d="M202.173 92.5218C202.173 92.5218 181.595 85.9171 173.658 83.9357C168.831 82.7304 162.005 82.4034 158.756 83.4238C157.666 83.7541 156.975 84.2626 156.901 84.9264C156.558 88.0108 163.369 87.6277 165.894 88.952L175.804 96.6299C176.311 97.0297 176.657 97.6384 176.768 98.3236C176.878 99.0088 176.743 99.7151 176.392 100.289L171.465 108.314C179.047 112.727 187.245 115.651 195.705 116.959C203.504 118.171 212.97 113.297 219.746 108.812L208.378 87.7334C204.724 90.5338 202.173 92.5218 202.173 92.5218Z" fill="#EAA58B"/>
<path d="M268.374 62.9658H247.335L246.856 67.0937C246.856 67.0937 236.523 66.8493 229.218 72.0472C223.697 75.9737 214.496 83.0044 208.378 87.7168L219.746 108.812C222.828 106.783 225.795 104.541 228.63 102.099L220.986 127.196H271.843L268.021 67.0937C268.021 67.0937 268.165 65.459 268.374 62.9658Z" fill="#FF7235"/>
<path d="M246.268 67.9193L245.827 71.8821" stroke="#A15842" stroke-width="4" stroke-linecap="round" stroke-linejoin="round"/>
<path d="M232.304 88.3939L228.336 101.603" stroke="#A15842" stroke-width="4" stroke-linecap="round" stroke-linejoin="round"/>
<path d="M240.344 47.4448C240.83 47.775 242.652 48.0491 243.39 46.4739" stroke="#A15842" stroke-width="4" stroke-linecap="round" stroke-linejoin="round"/>
<path d="M243.916 39.6843C244.403 39.6843 244.798 39.2407 244.798 38.6936C244.798 38.1464 244.403 37.7029 243.916 37.7029C243.429 37.7029 243.034 38.1464 243.034 38.6936C243.034 39.2407 243.429 39.6843 243.916 39.6843Z" fill="black"/>
<path d="M259.202 41.9959L255.969 44.3076" stroke="#A15842" stroke-width="4" stroke-linecap="round" stroke-linejoin="round"/>
<path d="M251.224 63.6197L250.751 67.9028" stroke="#A15842" stroke-width="4" stroke-linecap="round" stroke-linejoin="round"/>
<path d="M255.631 63.6197L255.16 67.9028" stroke="#A15842" stroke-width="4" stroke-linecap="round" stroke-linejoin="round"/>
<path d="M260.037 63.6197L259.567 67.9028" stroke="#A15842" stroke-width="4" stroke-linecap="round" stroke-linejoin="round"/>
<path d="M247.952 60.0796C249.354 59.8022 251.306 59.2243 252.882 58.0123" stroke="#A15842" stroke-width="4" stroke-linecap="round" stroke-linejoin="round"/>
<path d="M269.85 109.694L270.373 121.913C270.373 121.913 245.595 129.713 237.131 136.846C233.31 140.066 228.606 146.122 226.866 148.662C225.126 151.201 217.964 162.862 220.986 163.192C224.008 163.522 228.668 156.201 228.668 156.201C228.668 156.201 225.69 165.173 226.572 168.145C227.454 171.118 230.188 169.067 230.188 169.067C232.745 172.438 235.015 168.717 235.015 168.717C239.506 172.438 244.075 154.153 244.075 154.153C246.553 152.792 248.765 150.89 250.583 148.559C250.583 148.559 275.753 149.679 285.66 140.406C290.619 135.763 293.068 123.392 293.165 109.694H269.85Z" fill="#EAA58B"/>
<path d="M289.187 78.3217C287.009 70.8617 279.78 67.0937 275.371 67.0937H268.021L269.85 109.694H293.165C293.238 99.034 291.889 87.5716 289.187 78.3217Z" fill="#FF7235"/>
<path d="M270.5 109.397L269.638 89.0543" stroke="#A15842" stroke-width="4" stroke-linecap="round" stroke-linejoin="round"/>
<path d="M270.841 121.071L275.224 119.766" stroke="#A15842" stroke-width="4" stroke-linecap="round" stroke-linejoin="round"/>
<path d="M227.977 156.772C228.9 153.998 230.308 149.887 231.422 147.176" stroke="#A15842" stroke-width="4" stroke-linecap="round" stroke-linejoin="round"/>
<path d="M235.538 149.487C232.386 157.112 230.54 165.669 229.952 168.76" stroke="#A15842" stroke-width="4" stroke-linecap="round" stroke-linejoin="round"/>
<path d="M239.947 152.129C237.931 157.344 236.07 164.295 235.059 168.344" stroke="#A15842" stroke-width="4" stroke-linecap="round" stroke-linejoin="round"/>
</svg>
