<svg width="368" height="267" viewBox="0 0 368 267" fill="none" xmlns="http://www.w3.org/2000/svg">
<path d="M125.314 9.00684H131.255C144.761 9.00684 157.713 14.2795 167.263 23.665C176.813 33.0505 182.178 45.7799 182.178 59.053V157.793H74.3921V59.053C74.3921 45.7799 79.7571 33.0505 89.3069 23.665C98.8567 14.2795 111.809 9.00684 125.314 9.00684Z" fill="#FFB7D5"/>
<path d="M147.882 99.002V159.34H100V99.002H147.882ZM149.122 97.7837H98.7607V160.558H149.122V97.7837Z" fill="#CA7358"/>
<path d="M149.122 97.7837H98.7607V110.762H149.122V97.7837Z" fill="#CA7358"/>
<path d="M98.5188 66.4083V159.641H69.675V66.4083H98.5188ZM99.7585 65.1899H68.4353V160.86H99.7585V65.1899Z" fill="#CA7358"/>
<path d="M187.418 47.5455V159.328H149.363V47.5455H187.418ZM188.658 46.3271H148.124V160.546H188.658V46.3271Z" fill="#CA7358"/>
<path d="M164.484 61.5688H165.076C166.423 61.5688 167.714 62.0945 168.666 63.0301C169.618 63.9657 170.153 65.2347 170.153 66.5579V78.1656H159.408V66.5579C159.408 65.2347 159.943 63.9657 160.895 63.0301C161.847 62.0945 163.138 61.5688 164.484 61.5688Z" fill="#CA7358"/>
<path d="M158.181 70.6211H171.383" stroke="#FFB7D5" stroke-width="4" stroke-linecap="round" stroke-linejoin="round"/>
<path d="M164.484 91.3447H165.076C166.423 91.3447 167.714 91.8704 168.666 92.806C169.618 93.7416 170.153 95.0106 170.153 96.3338V107.948H159.408V96.3369C159.408 95.0137 159.943 93.7447 160.895 92.809C161.847 91.8734 163.138 91.3478 164.484 91.3478V91.3447Z" fill="#F5EBDD"/>
<path d="M158.181 100.4H171.383" stroke="#FFB7D5" stroke-width="4" stroke-linecap="round" stroke-linejoin="round"/>
<path d="M164.484 121.124H165.076C166.423 121.124 167.714 121.649 168.666 122.585C169.618 123.52 170.153 124.789 170.153 126.113V137.72H159.408V126.113C159.408 124.789 159.943 123.52 160.895 122.585C161.847 121.649 163.138 121.124 164.484 121.124Z" fill="#F5EBDD"/>
<path d="M158.181 130.176H171.383" stroke="#FFB7D5" stroke-width="4" stroke-linecap="round" stroke-linejoin="round"/>
<path d="M164.484 150.894H165.076C166.423 150.894 167.714 151.419 168.666 152.355C169.618 153.29 170.153 154.559 170.153 155.883V166.543H159.408V155.883C159.408 154.559 159.943 153.29 160.895 152.355C161.847 151.419 163.138 150.894 164.484 150.894Z" fill="#30242A"/>
<path d="M77.708 86.2397H78.3C79.6463 86.2397 80.9375 86.7654 81.8895 87.701C82.8415 88.6366 83.3764 89.9056 83.3764 91.2288V102.836H72.6316V91.2288C72.6316 89.9056 73.1664 88.6366 74.1184 87.701C75.0704 86.7654 76.3617 86.2397 77.708 86.2397Z" fill="#F5EBDD"/>
<path d="M71.4043 95.292H84.6067" stroke="#FFB7D5" stroke-width="4" stroke-linecap="round" stroke-linejoin="round"/>
<path d="M77.708 116.016H78.3C79.6463 116.016 80.9375 116.541 81.8895 117.477C82.8415 118.413 83.3764 119.682 83.3764 121.005V132.618H72.6316V121.008C72.6312 120.352 72.7622 119.703 73.0171 119.098C73.2721 118.492 73.6459 117.942 74.1173 117.478C74.5888 117.014 75.1485 116.647 75.7646 116.396C76.3807 116.145 77.0411 116.016 77.708 116.016Z" fill="#F5EBDD"/>
<path d="M71.4043 125.071H84.6067" stroke="#FFB7D5" stroke-width="4" stroke-linecap="round" stroke-linejoin="round"/>
<path d="M77.708 145.795H78.3C79.6463 145.795 80.9375 146.321 81.8895 147.257C82.8415 148.192 83.3764 149.461 83.3764 150.784V162.392H72.6316V150.784C72.6316 149.461 73.1664 148.192 74.1184 147.257C75.0704 146.321 76.3617 145.795 77.708 145.795Z" fill="#CA7358"/>
<path d="M71.4043 154.848H84.6067" stroke="#FFB7D5" stroke-width="4" stroke-linecap="round" stroke-linejoin="round"/>
<path d="M188.658 46.3271H148.124V51.3071H188.658V46.3271Z" fill="#CA7358"/>
<path d="M99.7585 62.7744H68.4353V67.7544H99.7585V62.7744Z" fill="#CA7358"/>
<path d="M118.567 122.531H107.819V136.112H118.567V122.531Z" fill="#F5EBDD"/>
<path d="M106.589 128.568H119.795" stroke="#FFB7D5" stroke-width="4" stroke-linecap="round" stroke-linejoin="round"/>
<path d="M113.193 136.715V128.568" stroke="#FFB7D5" stroke-width="4" stroke-linecap="round" stroke-linejoin="round"/>
<path d="M118.567 147.059H107.819V160.64H118.567V147.059Z" fill="#CA7358"/>
<path d="M106.589 153.093H119.795" stroke="#FFB7D5" stroke-width="4" stroke-linecap="round" stroke-linejoin="round"/>
<path d="M113.193 161.243V153.093" stroke="#FFB7D5" stroke-width="4" stroke-linecap="round" stroke-linejoin="round"/>
<path d="M138.833 122.531H128.085V136.112H138.833V122.531Z" fill="#30242A"/>
<path d="M126.857 128.568H140.063" stroke="#FFB7D5" stroke-width="4" stroke-linecap="round" stroke-linejoin="round"/>
<path d="M133.459 136.715V128.568" stroke="#FFB7D5" stroke-width="4" stroke-linecap="round" stroke-linejoin="round"/>
<path d="M138.833 147.059H128.085V160.64H138.833V147.059Z" fill="#F5EBDD"/>
<path d="M126.857 153.093H140.063" stroke="#FFB7D5" stroke-width="4" stroke-linecap="round" stroke-linejoin="round"/>
<path d="M133.459 161.243V153.093" stroke="#FFB7D5" stroke-width="4" stroke-linecap="round" stroke-linejoin="round"/>
<path d="M105.898 45.8733C110.307 45.8733 113.881 42.3605 113.881 38.0272C113.881 33.694 110.307 30.1812 105.898 30.1812C101.489 30.1812 97.9146 33.694 97.9146 38.0272C97.9146 42.3605 101.489 45.8733 105.898 45.8733Z" fill="#F5EBDD"/>
<path d="M195.997 157.841H60.5728V166.897H195.997V157.841Z" fill="#F5EBDD"/>
<path d="M130.425 0H126.145C92.4847 0 65.1812 26.8277 65.1812 59.9177V166.897H191.391V59.9177C191.391 26.8277 164.094 0 130.425 0ZM123.678 157.841H74.4011V82.3929H123.678V157.841ZM123.678 73.3376H74.4011V60.2253C74.401 47.1287 79.5105 34.5305 88.6775 25.0249C97.8444 15.5193 110.371 9.82998 123.678 9.12837V73.3376ZM182.177 157.841H132.901V82.3929H182.177V157.841ZM182.177 73.3376H132.901V9.12837C146.208 9.82998 158.734 15.5193 167.901 25.0249C177.068 34.5305 182.178 47.1287 182.177 60.2253V73.3376Z" fill="#F5EBDD"/>
<path d="M160.713 149.889C160.713 149.889 139.434 99.6935 138.504 86.6085C135.38 42.5688 183.994 67.6573 191.596 71.9885C197.131 75.144 218.838 87.0806 223.17 91.3357C225.959 94.0769 224.019 96.1085 224.019 96.1085C224.019 96.1085 227.277 100.312 222.696 100.811C225.953 105.015 220.759 105.584 220.759 105.584C220.759 105.584 222.151 109.687 216.755 108.453C210.941 107.122 166.858 88.369 166.858 88.369C166.858 88.369 176.708 118.928 179.782 128.595L160.713 149.889Z" fill="#A15842"/>
<path d="M208.232 104.953C209.28 104.749 209.986 104.155 209.782 102.879C209.115 98.6879 201.99 94.7283 201.99 94.7283C201.99 94.7283 204.848 87.9696 199.238 82.749" stroke="#30242A" stroke-width="4" stroke-miterlimit="10" stroke-linecap="round"/>
<path d="M220.688 105.368C218.131 103.897 208.759 98.5086 206.537 97.3877" stroke="#30242A" stroke-width="4" stroke-miterlimit="10" stroke-linecap="round"/>
<path d="M222.783 100.674C219.584 98.7918 211.793 94.0251 208.576 92.3682" stroke="#30242A" stroke-width="4" stroke-miterlimit="10" stroke-linecap="round"/>
<path d="M223.945 95.5266C219.916 92.9011 212.317 88.0369 209.311 86.5444" stroke="#30242A" stroke-width="4" stroke-miterlimit="10" stroke-linecap="round"/>
<path d="M206.177 96.8086C207.25 94.9019 209.084 91.1129 209.183 85.0396" stroke="#30242A" stroke-width="4" stroke-miterlimit="10" stroke-linecap="round"/>
<path d="M166.741 89.0816L159.482 85.8408" stroke="#30242A" stroke-width="4" stroke-linecap="round" stroke-linejoin="round"/>
<path d="M56.1533 231.511V237.38H107.788V231.511H56.1533Z" fill="#A15842"/>
<path d="M116.293 261.96L103.502 186.53H111.337C112.175 186.53 112.979 186.203 113.572 185.62C114.165 185.037 114.498 184.247 114.498 183.423C114.498 182.599 114.165 181.809 113.572 181.226C112.979 180.644 112.175 180.316 111.337 180.316H52.6793C51.8409 180.316 51.0368 180.644 50.444 181.226C49.8512 181.809 49.5181 182.599 49.5181 183.423C49.5181 184.247 49.8512 185.037 50.444 185.62C51.0368 186.203 51.8409 186.53 52.6793 186.53H60.4272L47.6369 261.954C47.572 262.328 47.5909 262.712 47.6924 263.078C47.7939 263.444 47.9756 263.784 48.2247 264.074C48.4738 264.364 48.7843 264.597 49.1346 264.757C49.4848 264.917 49.8664 265 50.2526 265C50.8584 265 51.4459 264.796 51.9177 264.423C52.3895 264.049 52.7173 263.529 52.8466 262.947L69.8021 186.53H94.1398L111.08 262.944C111.208 263.526 111.535 264.046 112.006 264.42C112.478 264.793 113.065 264.997 113.671 264.997C114.056 264.998 114.438 264.916 114.788 264.757C115.138 264.598 115.449 264.366 115.699 264.076C115.948 263.787 116.131 263.448 116.233 263.083C116.336 262.717 116.356 262.334 116.293 261.96Z" fill="#FFBE21"/>
<path d="M111.337 186.53C112.175 186.53 112.979 186.203 113.572 185.62C114.165 185.037 114.498 184.247 114.498 183.423C114.498 182.599 114.165 181.809 113.572 181.226C112.979 180.644 112.175 180.316 111.337 180.316H52.6792C51.8408 180.316 51.0368 180.644 50.4439 181.226C49.8511 181.809 49.5181 182.599 49.5181 183.423C49.5181 184.247 49.8511 185.037 50.4439 185.62C51.0368 186.203 51.8408 186.53 52.6792 186.53H60.4271L60.4116 186.624H69.768L69.7897 186.53H94.1273L94.149 186.624H103.518L103.502 186.53H111.337Z" fill="#A15842"/>
<path d="M86.8877 259.557H14.0327L0.294098 218.006C-0.725525 214.923 0.991409 212.426 4.12466 212.426H65.6275C68.7638 212.426 72.1357 214.923 73.1491 218.006L86.8877 259.557Z" fill="#FFB7D5"/>
<path d="M132.774 259.557H61.1368C61.3428 260.181 61.3954 260.845 61.2905 261.493C61.1855 262.141 60.9259 262.756 60.5329 263.286C60.14 263.817 59.6247 264.248 59.0294 264.546C58.4342 264.843 57.7757 264.998 57.1079 264.997H128.745C129.413 264.998 130.072 264.844 130.667 264.547C131.263 264.25 131.779 263.818 132.172 263.287C132.565 262.757 132.824 262.142 132.929 261.493C133.034 260.845 132.981 260.181 132.774 259.557Z" fill="#FFB7D5"/>
<path d="M61.1368 259.557H14.104L14.6526 261.22C15.0151 262.318 15.722 263.274 16.6718 263.953C17.6216 264.631 18.7655 264.997 19.9397 264.997H57.1296C57.7956 264.994 58.4515 264.837 59.044 264.539C59.6365 264.24 60.1488 263.808 60.5393 263.278C60.9299 262.747 61.1875 262.134 61.2913 261.488C61.3952 260.841 61.3422 260.18 61.1368 259.557Z" fill="#CA7358"/>
<path d="M81.9229 259.557H19.6267L6.62573 220.281H68.9219L81.9229 259.557Z" fill="#F5EBDD"/>
<path d="M58.6173 251.76H39.4273C37.2951 251.76 35.0079 250.06 34.3137 247.967L29.6867 233.957C28.9956 231.864 30.1608 230.165 32.2931 230.165H51.4831C53.6122 230.165 55.8994 231.864 56.5936 233.957L61.2206 247.967C61.9117 250.06 60.7465 251.76 58.6173 251.76Z" fill="#3EC1F3"/>
<path d="M14.386 258.954H86.2865" stroke="#CA7358" stroke-width="4" stroke-miterlimit="10" stroke-linecap="round"/>
<path d="M56.4787 233.287L48.9105 241.23C47.4446 242.753 44.6523 242.753 42.1699 241.23L29.6741 233.488" stroke="#F5EBDD" stroke-width="4" stroke-miterlimit="10" stroke-linecap="round"/>
<path d="M49.2083 240.999L61.14 248.391" stroke="#F5EBDD" stroke-width="4" stroke-miterlimit="10" stroke-linecap="round"/>
<path d="M34.5059 248.571L41.6401 241.081" stroke="#F5EBDD" stroke-width="4" stroke-miterlimit="10" stroke-linecap="round"/>
<path d="M57.2133 235.617C54.8269 235.617 52.2546 233.698 51.4675 231.353C51.1017 230.244 51.1978 229.221 51.7402 228.493C52.2391 227.823 53.079 227.451 54.1079 227.451C56.4943 227.451 59.0666 229.37 59.8507 231.731C60.2195 232.839 60.1234 233.863 59.5779 234.588C59.0821 235.245 58.2422 235.617 57.2133 235.617Z" fill="#4756DF"/>
<path d="M54.1078 228.045C56.2091 228.045 58.5706 229.811 59.2617 231.901C59.5716 232.814 59.5004 233.643 59.0789 234.215C58.855 234.483 58.5697 234.694 58.2463 234.832C57.923 234.969 57.571 235.03 57.2194 235.007C55.1151 235.007 52.7566 233.241 52.0655 231.148C51.7556 230.234 51.8269 229.409 52.2484 228.836C52.6265 228.325 53.2866 228.045 54.1078 228.045ZM54.1078 226.826C51.4674 226.826 50.0201 228.931 50.8785 231.526C51.737 234.121 54.5727 236.226 57.2132 236.226C59.8537 236.226 61.301 234.121 60.4425 231.526C59.584 228.931 56.7483 226.826 54.1078 226.826Z" fill="#F5EBDD"/>
<path d="M309.144 122.397H309.066C308.515 123.378 304.879 129.375 298.492 129.375C292.105 129.375 288.469 123.378 287.915 122.397H287.84L277.898 166.504H319.086L309.144 122.397Z" fill="#3EC1F3"/>
<path d="M282.609 145.859C291.045 146.727 304.145 154.131 308.698 166.376" stroke="#F5EBDD" stroke-width="4" stroke-miterlimit="10" stroke-linecap="round"/>
<path d="M288.076 166.732C289.021 156.757 297.063 140.27 311.536 135.113" stroke="#F5EBDD" stroke-width="4" stroke-miterlimit="10" stroke-linecap="round"/>
<path d="M298.34 126.125C294.785 129.807 290.304 133.237 285.234 135.54" stroke="#F5EBDD" stroke-width="4" stroke-miterlimit="10" stroke-linecap="round"/>
<path d="M298.492 129.375C304.88 129.375 308.515 123.378 309.067 122.397H287.915C288.47 123.378 292.102 129.375 298.492 129.375Z" fill="#30242A"/>
<path d="M240.457 264.997C240.026 264.997 239.602 264.896 239.218 264.704C238.834 264.511 238.502 264.232 238.25 263.889C237.997 263.546 237.831 263.149 237.765 262.73C237.699 262.312 237.735 261.884 237.869 261.482L246.417 235.921C246.598 235.388 246.946 234.924 247.41 234.596C247.875 234.268 248.433 234.092 249.005 234.094H254.986C255.461 234.093 255.928 234.215 256.341 234.447C256.753 234.679 257.097 235.013 257.338 235.415C257.578 235.818 257.708 236.276 257.713 236.743C257.718 237.21 257.598 237.67 257.366 238.078L242.837 263.638C242.599 264.052 242.252 264.395 241.834 264.634C241.416 264.873 240.941 264.998 240.457 264.997Z" fill="#A15842"/>
<path d="M354.807 264.997C355.238 264.997 355.662 264.896 356.046 264.704C356.43 264.511 356.762 264.232 357.014 263.889C357.267 263.546 357.433 263.149 357.499 262.73C357.565 262.312 357.529 261.884 357.395 261.482L348.847 235.921C348.666 235.388 348.318 234.925 347.853 234.597C347.389 234.269 346.831 234.093 346.259 234.094H340.275C339.8 234.094 339.333 234.216 338.921 234.448C338.509 234.68 338.166 235.014 337.925 235.417C337.685 235.819 337.556 236.277 337.551 236.744C337.547 237.21 337.666 237.67 337.898 238.078L352.427 263.638C352.665 264.052 353.011 264.396 353.43 264.634C353.848 264.873 354.323 264.998 354.807 264.997Z" fill="#A15842"/>
<path d="M368 166.004H227.745V244.916H368V166.004Z" fill="#FFB7D5"/>
<path d="M357.444 176.174V234.739H238.3V176.174H357.444ZM358.684 174.956H237.061V235.958H358.684V174.956Z" fill="#CA7358"/>
<path d="M297.742 174.846V236.074" stroke="#CA7358" stroke-width="4" stroke-miterlimit="10"/>
<path d="M311.837 209.008C313.831 209.008 315.448 207.42 315.448 205.46C315.448 203.5 313.831 201.912 311.837 201.912C309.843 201.912 308.227 203.5 308.227 205.46C308.227 207.42 309.843 209.008 311.837 209.008Z" fill="#30242A"/>
<path d="M283.907 209.008C285.901 209.008 287.518 207.42 287.518 205.46C287.518 203.5 285.901 201.912 283.907 201.912C281.913 201.912 280.297 203.5 280.297 205.46C280.297 207.42 281.913 209.008 283.907 209.008Z" fill="#30242A"/>
<path d="M91.0964 142.427C93.5022 142.427 95.8095 143.366 97.5107 145.038C99.2119 146.71 100.168 148.977 100.168 151.342V180.402H82.0251V151.342C82.0251 148.977 82.9809 146.71 84.6821 145.038C86.3832 143.366 88.6905 142.427 91.0964 142.427Z" fill="#4756DF"/>
<path d="M100.171 153.814H82.0251V170.43H100.171V153.814Z" fill="#3EC1F3"/>
<path d="M95.1285 137.803H87.0645V143.416H95.1285V137.803Z" fill="#30242A"/>
<path d="M202.059 90.6715C208.255 90.6715 213.277 85.735 213.277 79.6455C213.277 73.5561 208.255 68.6196 202.059 68.6196C195.862 68.6196 190.84 73.5561 190.84 79.6455C190.84 85.735 195.862 90.6715 202.059 90.6715Z" fill="#30242A"/>
<path d="M193.347 86.4623C194.243 86.8613 186.647 69.4056 182.841 72.1712C179.261 74.7632 188.816 84.4368 193.347 86.4623Z" fill="#FFBE21"/>
<path d="M192.383 86.4285C193.127 87.3422 211.055 81.5552 208.66 77.9672C206.36 74.5254 191.639 85.5208 192.383 86.4285Z" fill="#FFBE21"/>
<path d="M214.356 73.7548C218.346 73.7548 221.58 70.5761 221.58 66.655C221.58 62.7339 218.346 59.5552 214.356 59.5552C210.366 59.5552 207.132 62.7339 207.132 66.655C207.132 70.5761 210.366 73.7548 214.356 73.7548Z" fill="#30242A"/>
<path d="M165.018 192.488H201.907L203.853 183.423H159.405L165.018 192.488Z" fill="#CA7358"/>
<path d="M164.695 162.578C164.695 162.578 172.229 152.91 186.368 152.003L195.755 132.183C193.248 131.79 191.441 131.541 191.441 131.541C191.813 130.657 193.077 127.733 194.605 124.127C191.841 122.321 187.325 118.769 186.281 114.289C189.597 113.799 196.198 110.722 193.592 105.34C190.4 98.7401 181.951 103.817 181.951 103.817C179.387 100.958 177.749 97.4118 177.247 93.6322C176.221 93.7357 173.283 93.4281 171.197 92.3194L171.058 92.2402C169.942 94.3939 168.94 96.603 168.058 98.8588C167.825 99.4375 167.602 99.998 167.367 100.531C167.367 100.531 164.45 100.044 163.852 101.229C163.112 102.691 165.331 104.579 165.331 104.579C163.558 107.856 161.987 110.54 162.557 113.939C163.059 116.939 165.938 120.585 172.722 121.194L169.313 131.766L156.606 153.449C159.098 154.884 162.445 157.616 164.695 162.578Z" fill="#CA7358"/>
<path d="M254.472 120.131C250.471 115.224 236.187 95.1885 231.417 91.4299C228.343 89.0115 226.499 91.1254 226.499 91.1254C226.499 91.1254 221.887 88.4054 221.887 92.9376C217.276 90.2177 217.276 95.353 217.276 95.353C217.276 95.353 212.971 94.4392 214.818 99.5836C216.805 105.115 239.103 145.04 239.103 145.04C239.103 145.04 216.045 136.581 207.132 134.327C205.496 133.913 203.491 133.505 201.467 133.134C200.162 136.137 198.123 141.053 194.835 149.276C190.372 160.409 192.541 171.538 205.456 175.955L207.746 165.295C207.746 165.295 231.609 174.109 244.936 173.753C290.131 172.547 260.007 126.926 254.472 120.131Z" fill="#CA7358"/>
<path d="M177.247 93.6322C177.747 97.4228 179.39 100.98 181.964 103.845C181.964 103.845 190.412 98.7523 193.604 105.368C196.211 110.75 189.609 113.826 186.293 114.316C187.338 118.797 191.853 122.348 194.618 124.155C196.886 118.797 199.731 111.929 201.07 108.012C203.05 102.206 204.073 93.2088 195.182 86.709C186.861 80.6387 177.324 84.6653 175.174 86.7791C173.897 88.034 172.694 89.2157 171.07 92.2616L171.21 92.3408C173.283 93.4159 176.221 93.7236 177.247 93.6322Z" fill="#30242A"/>
<path d="M194.834 149.285C198.123 141.08 200.162 136.152 201.467 133.142C199.471 132.774 197.459 132.442 195.767 132.177L186.389 152.002C172.251 152.916 164.717 162.577 164.717 162.577C162.454 157.616 159.107 154.883 156.631 153.44L153.798 158.273C152.352 160.819 151.619 163.696 151.673 166.611C151.727 169.527 152.568 172.375 154.108 174.867L159.402 183.417H203.853L205.455 175.958C192.541 171.547 190.372 160.418 194.834 149.285Z" fill="#FFBE21"/>
<path d="M172.914 121.818C174.843 121.808 176.761 121.529 178.61 120.99" stroke="#30242A" stroke-width="4" stroke-miterlimit="10" stroke-linecap="round"/>
<path d="M218.165 105.77C218.391 104.996 218.949 104.493 220.043 104.57C224.348 104.874 228.956 111.52 228.956 111.52C228.956 111.52 235.573 108.17 241.334 113.211" stroke="#30242A" stroke-width="4" stroke-miterlimit="10" stroke-linecap="round"/>
<path d="M217.902 95.1885C220.307 98.9135 224.776 105.849 225.882 107.591" stroke="#30242A" stroke-width="4" stroke-miterlimit="10" stroke-linecap="round"/>
<path d="M222.339 92.6025C224.819 96.1905 229.158 102.313 230.803 104.874" stroke="#30242A" stroke-width="4" stroke-miterlimit="10" stroke-linecap="round"/>
<path d="M227.193 91.1953C230.292 95.0818 235.04 101.113 236.642 103.683" stroke="#30242A" stroke-width="4" stroke-miterlimit="10" stroke-linecap="round"/>
<path d="M226.499 107.591C228.358 106.373 232.031 104.268 238.179 103.665" stroke="#30242A" stroke-width="4" stroke-miterlimit="10" stroke-linecap="round"/>
<path d="M191.37 130.895L185.921 130.252" stroke="#30242A" stroke-width="4" stroke-miterlimit="10" stroke-linecap="round"/>
<path d="M172.087 189.466L171.78 188.863" stroke="#30242A" stroke-width="4" stroke-miterlimit="10" stroke-linecap="round"/>
<path d="M207.442 165.879L204.365 164.691" stroke="#30242A" stroke-width="4" stroke-miterlimit="10" stroke-linecap="round"/>
<path d="M246.172 147.169L239.184 144.47" stroke="#30242A" stroke-width="4" stroke-miterlimit="10" stroke-linecap="round"/>
<path d="M203.853 183.423H159.405" stroke="#30242A" stroke-width="4" stroke-linecap="round" stroke-linejoin="round"/>
<path d="M185.921 152.002L181.431 161.859C180.757 163.335 179.663 164.588 178.281 165.467C176.899 166.346 175.289 166.814 173.642 166.814H151.638" stroke="#30242A" stroke-width="4" stroke-linecap="round" stroke-linejoin="round"/>
<path d="M167.01 108.252C167.54 108.7 169.691 109.309 170.841 107.783" stroke="#30242A" stroke-width="4" stroke-miterlimit="10" stroke-linecap="round"/>
<path d="M188.847 107.305L184.954 108.788" stroke="#A15842" stroke-width="4" stroke-miterlimit="10" stroke-linecap="round"/>
<path d="M174.327 101.32C174.031 101.392 173.722 101.405 173.421 101.356C173.12 101.307 172.832 101.197 172.575 101.035C172.318 100.872 172.098 100.659 171.928 100.41C171.758 100.16 171.643 99.8789 171.588 99.5835" stroke="#30242A" stroke-width="4" stroke-linecap="round" stroke-linejoin="round"/>
<path d="M184.784 112.699L183.377 118.349C183.302 118.641 183.305 118.948 183.385 119.239C183.466 119.53 183.622 119.795 183.837 120.01C184.053 120.224 184.321 120.38 184.616 120.463C184.911 120.545 185.223 120.552 185.521 120.481L190.775 119.263C191.071 119.192 191.344 119.048 191.568 118.843C191.791 118.639 191.957 118.382 192.051 118.096C192.144 117.811 192.161 117.507 192.101 117.213C192.04 116.919 191.903 116.645 191.704 116.418L187.858 111.998C187.646 111.756 187.371 111.576 187.062 111.477C186.753 111.378 186.422 111.363 186.106 111.435C185.789 111.508 185.498 111.663 185.266 111.886C185.033 112.109 184.866 112.39 184.784 112.699Z" fill="#F4E6D8"/>
<path d="M196.616 243.981C193.542 240.353 182.847 227.229 182.847 227.229" stroke="#30242A" stroke-width="4" stroke-linecap="round" stroke-linejoin="round"/>
<path d="M279.674 214.552C278.546 211.555 276.476 206.532 273.922 200.501L246.513 208.363L243.37 209.337C244.784 218.32 245.868 222.699 245.868 222.699C245.868 222.699 216.358 196.112 201.91 192.488H165.005L152.401 264.997H262.452C293.822 264.997 284.905 228.441 279.674 214.552Z" fill="#4856DF"/>
<path d="M249.832 145.256C249.475 144.421 248.835 143.733 248.02 143.309C247.206 142.885 246.267 142.752 245.363 142.932C239.899 144.132 239.475 154.299 238.179 160.159C236.029 169.83 231.417 173.454 231.11 179.799C230.8 185.89 240.64 188.257 240.64 188.257C240.975 191.447 241.315 194.409 241.66 197.142L269.05 189.095C261.538 171.691 252.64 151.585 249.832 145.256Z" fill="#A15842"/>
<path d="M243.355 209.267V209.337L246.498 208.362L243.355 209.267Z" fill="#A15842"/>
<path d="M273.928 200.492C273.847 200.306 273.77 200.118 273.689 199.929L246.513 208.363L273.928 200.492Z" fill="#3EC1F3"/>
<path d="M273.689 199.932C272.261 196.563 270.686 192.893 269.041 189.098L241.65 197.145C242.236 201.848 242.816 205.883 243.346 209.27L246.501 208.356L273.689 199.932Z" fill="#3EC1F3"/>
<path d="M190.647 192.393C200.472 202.52 251.273 253.858 267.076 248.68C278.614 244.9 261.624 207.659 260.007 202.758" stroke="#3EC1F3" stroke-width="4" stroke-linecap="round" stroke-linejoin="round"/>
<path d="M259.219 233.619C255.659 230.481 249.302 224.886 245.924 221.932" stroke="#30242A" stroke-width="4" stroke-linecap="round" stroke-linejoin="round"/>
<path d="M239.41 181.31L240.011 187.624" stroke="#30242A" stroke-width="4" stroke-linecap="round" stroke-linejoin="round"/>
<path d="M247.133 143.468L248.298 146.678" stroke="#30242A" stroke-width="4" stroke-linecap="round" stroke-linejoin="round"/>
<path d="M244.344 143.772L246.228 148.326" stroke="#30242A" stroke-width="4" stroke-linecap="round" stroke-linejoin="round"/>
<path d="M172.917 232.778L172.744 232.726L179.156 192.427H165.005C165.005 192.427 108.455 213.638 95.5437 233.878C83.3392 253.008 105.687 264.997 112.143 264.997H168.445L172.917 232.778Z" fill="#4856DF"/>
<path d="M232.337 264.997C239.716 264.997 237.259 256.837 232.027 254.12C226.796 251.403 220.653 248.68 214.198 240.222C207.742 231.764 200.056 233.877 195.138 239.917C195.138 239.917 191.388 238.592 185.878 236.795L181.564 264.994L232.337 264.997Z" fill="#CA7358"/>
<path d="M173.456 232.936L172.917 232.778L168.445 264.997H181.567L185.881 236.786C182.298 235.632 177.975 234.264 173.456 232.936Z" fill="#3EC1F3"/>
<path d="M228.956 261.674L233.496 264.388" stroke="#30242A" stroke-width="4" stroke-linecap="round" stroke-linejoin="round"/>
<path d="M142.576 225.721C155.487 228.136 161.072 229.68 172.753 233.335" stroke="#30242A" stroke-width="4" stroke-linecap="round" stroke-linejoin="round"/>
<path d="M225.268 263.185L227.918 264.692" stroke="#30242A" stroke-width="4" stroke-linecap="round" stroke-linejoin="round"/>
<path d="M195.758 239.543L200.06 241.13" stroke="#30242A" stroke-width="4" stroke-linecap="round" stroke-linejoin="round"/>
<path d="M299.468 125.693C300.125 121.879 303.113 106.754 310.424 98.5693" stroke="#30242A" stroke-width="4" stroke-miterlimit="10" stroke-linecap="round"/>
<path d="M314.922 111.762C321.305 109.05 325.977 105.707 325.356 104.296C324.735 102.885 319.057 103.939 312.674 106.652C306.29 109.364 301.619 112.707 302.24 114.118C302.861 115.529 308.539 114.474 314.922 111.762Z" fill="#30242A"/>
<path d="M315.558 72.2835C317.866 69.2579 318.867 66.1638 317.793 65.3727C316.719 64.5816 313.978 66.393 311.67 69.4186C309.362 72.4442 308.361 75.5383 309.435 76.3294C310.508 77.1205 313.25 75.3091 315.558 72.2835Z" fill="#30242A"/>
<path d="M328.021 92.6818C327.571 91.2442 324.658 90.7812 320.97 91.3873C323.67 87.8024 324.785 84.3027 323.45 83.1971C322.114 82.0914 318.801 83.7606 315.652 86.9739C315.652 83.3006 314.688 80.5533 313.173 80.3614C311.239 80.1147 309.119 84.12 308.437 89.304C308.236 90.7847 308.18 92.281 308.27 93.7722C309.162 93.4975 310.11 93.4462 311.028 93.6227C311.945 93.7993 312.803 94.1983 313.524 94.7833C314.245 95.3684 314.806 96.1212 315.156 96.9733C315.506 97.8254 315.634 98.7498 315.528 99.6628C316.991 99.4968 318.435 99.1981 319.842 98.7704C324.922 97.2414 328.585 94.5154 328.021 92.6818Z" fill="#FFBE21"/>
<path d="M313.563 94.8199C312.841 94.2204 311.977 93.81 311.05 93.6268C310.124 93.4436 309.165 93.4936 308.264 93.7721C308.428 96.2423 309.051 98.1368 310.002 98.8434C310.886 99.6627 312.95 99.946 315.522 99.6627C315.626 98.7594 315.502 97.8448 315.16 96.9999C314.819 96.1551 314.27 95.4063 313.563 94.8199Z" fill="#30242A"/>
<path d="M297.441 125.208C297.228 120.877 295.948 99.6232 291.15 87.0713" stroke="#30242A" stroke-width="4" stroke-miterlimit="10" stroke-linecap="round"/>
<path d="M281.62 113.018C289.864 111.474 296.321 109.062 296.044 107.631C295.766 106.2 288.859 106.292 280.615 107.836C272.371 109.38 265.913 111.792 266.191 113.223C266.468 114.654 273.376 114.562 281.62 113.018Z" fill="#30242A"/>
<path d="M294.668 68.9972C293.174 68.6744 291.336 70.9466 290.062 74.4005C288.203 70.3313 285.649 67.6601 284.019 68.2571C282.389 68.8541 282.231 72.5213 283.542 76.7854C280.278 74.9945 277.378 74.4615 276.463 75.6676C275.295 77.1905 277.805 80.9826 282.07 84.1107C283.285 85.0089 284.584 85.7912 285.95 86.4468C286.144 85.5478 286.563 84.7106 287.169 84.0112C287.776 83.3118 288.55 82.7722 289.423 82.4416C290.295 82.1109 291.238 81.9995 292.165 82.1176C293.092 82.2357 293.975 82.5795 294.733 83.1177C295.301 81.7825 295.744 80.399 296.056 78.9845C297.194 73.8797 296.574 69.4084 294.668 68.9972Z" fill="#FFBE21"/>
<path d="M289.48 82.4235C288.593 82.7474 287.805 83.2865 287.188 83.9906C286.57 84.6946 286.145 85.5407 285.95 86.4501C288.221 87.5192 290.205 87.9152 291.299 87.4492C292.458 87.0898 293.722 85.4602 294.733 83.121C293.983 82.5884 293.112 82.2461 292.195 82.1244C291.279 82.0027 290.346 82.1054 289.48 82.4235Z" fill="#30242A"/>
<path d="M275.177 91.6338V91.6521C276.402 92.3323 277.323 93.4395 277.757 94.7547C278.191 96.0698 278.108 97.4973 277.523 98.7549C276.937 100.011 275.893 101.005 274.598 101.542C273.303 102.08 271.85 102.121 270.525 101.658V101.679C277.461 104.795 284.127 105.069 285.401 102.288C286.675 99.5073 282.113 94.7466 275.177 91.6338Z" fill="#FFBE21"/>
<path d="M275.735 100.903C275.136 100.573 274.686 100.034 274.474 99.3935C274.262 98.7525 274.303 98.0564 274.589 97.444C274.876 96.8316 275.387 96.3477 276.02 96.0889C276.653 95.8301 277.363 95.8153 278.007 96.0475C277.937 95.1422 277.641 94.2677 277.146 93.5012C276.651 92.7347 275.972 92.0997 275.168 91.6523L270.519 101.658C271.385 101.962 272.313 102.052 273.223 101.92C274.132 101.788 274.995 101.439 275.735 100.903Z" fill="#F5EBDD"/>
<path d="M274.588 97.4514C274.304 98.0631 274.264 98.7575 274.477 99.3967C274.689 100.036 275.138 100.573 275.735 100.902C276.501 100.349 277.112 99.6129 277.51 98.7636C277.907 97.9142 278.078 96.9795 278.007 96.0473C277.361 95.816 276.651 95.8321 276.018 96.0923C275.384 96.3525 274.874 96.8378 274.588 97.4514Z" fill="#30242A"/>
</svg>
