<svg width="36" height="36" viewBox="0 0 36 36" fill="none" xmlns="http://www.w3.org/2000/svg">
<path d="M5.625 18C5.625 9.55013 11.9409 2.57541 20.1094 1.53914C19.4186 1.45146 18.7146 1.40625 18 1.40625C8.83554 1.40625 1.40625 8.83554 1.40625 18C1.40625 27.1645 8.83554 34.5938 18 34.5938C18.7146 34.5938 19.4186 34.5485 20.1094 34.4609C11.9409 33.4246 5.625 26.4499 5.625 18Z" fill="#4BA21C" fill-opacity="0.1"/>
<path d="M18 36C13.192 36 8.67185 34.1276 5.27203 30.728C1.87235 27.3281 0 22.808 0 18C0 13.192 1.87235 8.67185 5.27203 5.27203C8.67185 1.87235 13.192 0 18 0C22.808 0 27.3281 1.87235 30.728 5.27203C34.1276 8.67185 36 13.192 36 18C36 22.808 34.1276 27.3281 30.728 30.728C27.3281 34.1276 22.808 36 18 36ZM18 2.8125C9.62557 2.8125 2.8125 9.62557 2.8125 18C2.8125 26.3744 9.62557 33.1875 18 33.1875C26.3744 33.1875 33.1875 26.3744 33.1875 18C33.1875 9.62557 26.3744 2.8125 18 2.8125ZM25.0312 23.4141C25.0312 22.6374 24.4017 22.0078 23.625 22.0078H12.375C11.5983 22.0078 10.9688 22.6374 10.9688 23.4141C10.9688 24.1907 11.5983 24.8203 12.375 24.8203H23.625C24.4017 24.8203 25.0312 24.1907 25.0312 23.4141Z" fill="#4BA21C"/>
<path d="M11.8125 11.6719C12.7833 11.6719 13.5703 12.4589 13.5703 13.4297C13.5703 14.4005 12.7833 15.1875 11.8125 15.1875C10.8417 15.1875 10.0547 14.4005 10.0547 13.4297C10.0547 12.4589 10.8417 11.6719 11.8125 11.6719ZM22.3594 13.4297C22.3594 14.4005 23.1464 15.1875 24.1172 15.1875C25.088 15.1875 25.875 14.4005 25.875 13.4297C25.875 12.4589 25.088 11.6719 24.1172 11.6719C23.1464 11.6719 22.3594 12.4589 22.3594 13.4297Z" fill="#CF6088"/>
</svg>
