<svg width="36" height="36" viewBox="0 0 36 36" fill="none" xmlns="http://www.w3.org/2000/svg">
<path d="M5.625 18C5.625 9.55013 11.9409 2.57541 20.1094 1.53914C19.4186 1.45146 18.7146 1.40625 18 1.40625C8.83554 1.40625 1.40625 8.83554 1.40625 18C1.40625 27.1645 8.83554 34.5938 18 34.5938C18.7146 34.5938 19.4186 34.5485 20.1094 34.4609C11.9409 33.4246 5.625 26.4499 5.625 18Z" fill="#4BA21C" fill-opacity="0.1"/>
<path d="M18 36C13.192 36 8.67185 34.1276 5.27203 30.728C1.87235 27.3281 0 22.808 0 18C0 13.192 1.87235 8.67185 5.27203 5.27203C8.67185 1.87235 13.192 0 18 0C22.808 0 27.3281 1.87235 30.728 5.27203C34.1276 8.67185 36 13.192 36 18C36 22.808 34.1276 27.3281 30.728 30.728C27.3281 34.1276 22.808 36 18 36ZM18 2.8125C9.62557 2.8125 2.8125 9.62557 2.8125 18C2.8125 26.3744 9.62557 33.1875 18 33.1875C26.3744 33.1875 33.1875 26.3744 33.1875 18C33.1875 9.62557 26.3744 2.8125 18 2.8125ZM25.0225 24.9091C24.9179 24.7447 22.4089 20.8828 17.9298 20.8828C13.4508 20.8828 10.9418 24.7447 10.8372 24.9091C10.4202 25.5644 10.6134 26.4335 11.2686 26.8504C11.9239 27.2675 12.7931 27.0743 13.21 26.419C13.2273 26.3918 14.9775 23.6953 17.9298 23.6953C20.8822 23.6953 22.6323 26.3918 22.6497 26.419C23.0666 27.0742 23.9358 27.2674 24.591 26.8504C25.2463 26.4335 25.4395 25.5644 25.0225 24.9091Z" fill="#4BA21C"/>
<path d="M11.8125 11.6016C12.7833 11.6016 13.5703 12.3886 13.5703 13.3594C13.5703 14.3302 12.7833 15.1172 11.8125 15.1172C10.8417 15.1172 10.0547 14.3302 10.0547 13.3594C10.0547 12.3886 10.8417 11.6016 11.8125 11.6016ZM22.3594 13.3594C22.3594 14.3302 23.1464 15.1172 24.1172 15.1172C25.088 15.1172 25.875 14.3302 25.875 13.3594C25.875 12.3886 25.088 11.6016 24.1172 11.6016C23.1464 11.6016 22.3594 12.3886 22.3594 13.3594Z" fill="#CF6088"/>
</svg>
