<svg width="36" height="36" viewBox="0 0 36 36" fill="none" xmlns="http://www.w3.org/2000/svg">
<path d="M5.625 18C5.625 9.55013 11.9409 2.57541 20.1094 1.53914C19.4186 1.45146 18.7146 1.40625 18 1.40625C8.83554 1.40625 1.40625 8.83554 1.40625 18C1.40625 27.1645 8.83554 34.5938 18 34.5938C18.7146 34.5938 19.4186 34.5485 20.1094 34.4609C11.9409 33.4246 5.625 26.4499 5.625 18Z" fill="#4BA21C" fill-opacity="0.1"/>
<path d="M18 36C13.192 36 8.67185 34.1276 5.27203 30.728C1.87235 27.3281 0 22.808 0 18C0 13.192 1.87235 8.67185 5.27203 5.27203C8.67185 1.87235 13.192 0 18 0C22.808 0 27.3281 1.87235 30.728 5.27203C34.1276 8.67185 36 13.192 36 18C36 22.808 34.1276 27.3281 30.728 30.728C27.3281 34.1276 22.808 36 18 36ZM18 2.8125C9.62557 2.8125 2.8125 9.62557 2.8125 18C2.8125 26.3744 9.62557 33.1875 18 33.1875C26.3744 33.1875 33.1875 26.3744 33.1875 18C33.1875 9.62557 26.3744 2.8125 18 2.8125ZM24.5909 21.1773C23.9356 20.7603 23.0664 20.9534 22.6496 21.6087C22.6322 21.6359 20.8821 24.3324 17.9297 24.3324C14.9773 24.3324 13.2272 21.6359 13.2098 21.6087C12.7929 20.9535 11.9237 20.7603 11.2685 21.1773C10.6132 21.5942 10.4201 22.4634 10.8371 23.1186C10.9417 23.283 13.4507 27.1449 17.9297 27.1449C22.4087 27.1449 24.9177 23.2831 25.0223 23.1186C25.4393 22.4634 25.2461 21.5942 24.5909 21.1773Z" fill="#4BA21C"/>
<path d="M9.42265 17.0862C9.02208 17.0862 8.62425 16.9159 8.34603 16.5855C7.8459 15.9913 7.92218 15.1042 8.51632 14.604C9.89846 13.4407 11.3418 12.8593 12.8022 12.8674H14.6954C15.4721 12.8674 16.1016 13.4969 16.1016 14.2736C16.1016 15.0503 15.4721 15.6799 14.6954 15.6799H12.7969C12.7852 15.6799 11.1875 16.0318 10.3275 16.7557C10.0638 16.9777 9.74236 17.0862 9.42265 17.0862ZM26.5068 17.0158C26.2073 17.0158 25.9055 16.9205 25.6499 16.7236C24.7275 16.0133 23.8435 15.6623 23.0233 15.6804C23.0127 15.6807 21.2337 15.6798 21.2337 15.6798C20.4571 15.6794 19.8278 15.0494 19.8283 14.2728C19.8287 13.4964 20.4582 12.8673 21.2345 12.8673C21.2348 12.8673 22.9783 12.8683 22.9783 12.8683C24.4503 12.8394 25.9276 13.3876 27.366 14.4954C27.9813 14.9693 28.096 15.8522 27.6221 16.4676C27.3451 16.8271 26.9282 17.0158 26.5068 17.0158Z" fill="#CF6088"/>
</svg>
