<svg width="368" height="267" viewBox="0 0 368 267" fill="none" xmlns="http://www.w3.org/2000/svg">
<path d="M66.2285 142.22H58.2117V264.988H66.2285V142.22Z" fill="#FFBE21"/>
<path d="M66.2318 143.908H58.2117" stroke="#A15842" stroke-width="4" stroke-miterlimit="10"/>
<path d="M21.8324 240.354C22.6445 238.255 24.161 236.437 26.1719 235.15C28.1827 233.863 30.5881 233.171 33.0547 233.171C35.5212 233.171 37.9266 233.863 39.9375 235.15C41.9483 236.437 43.4649 238.255 44.277 240.354C45.052 238.351 46.4701 236.6 48.3513 235.324C50.2325 234.048 52.492 233.304 54.8431 233.187C53.7935 231.501 52.5435 229.923 51.1154 228.481L46.8002 224.108C45.4586 222.749 44.6137 221.051 44.3801 219.245C44.1465 217.438 44.5356 215.611 45.4945 214.011L49.1569 207.879C48.1287 208.811 42.1846 213.826 33.1624 213.826C24.1401 213.826 18.1961 208.811 17.1678 207.879H17.1515L20.8172 214.011C21.7719 215.614 22.155 217.444 21.9143 219.251C21.6737 221.057 20.821 222.753 19.4724 224.108L15.1604 228.463C13.7296 229.906 12.4765 231.483 11.4229 233.169C13.7487 233.315 15.9757 234.074 17.8265 235.351C19.6774 236.629 21.0704 238.369 21.8324 240.354Z" fill="#4756DF"/>
<path d="M55.4992 246.551C53.032 246.551 50.626 247.243 48.6151 248.531C46.6042 249.819 45.0881 251.639 44.2769 253.739C43.4664 251.639 41.9504 249.819 39.9394 248.53C37.9284 247.242 35.5221 246.55 33.0547 246.55C30.5872 246.55 28.1809 247.242 26.1699 248.53C24.1589 249.819 22.6429 251.639 21.8324 253.739C20.8508 251.202 18.8471 249.089 16.2183 247.821C13.5896 246.552 10.5277 246.219 7.63965 246.889C7.80547 253.676 10.8412 260.15 16.1265 264.988H50.1362C55.4109 260.16 58.4457 253.703 58.6231 246.93C57.6053 246.679 56.5546 246.551 55.4992 246.551Z" fill="#4756DF"/>
<path d="M33.1361 213.838C42.1584 213.838 48.1025 208.823 49.1307 207.891H17.1416C18.1698 208.814 24.1139 213.838 33.1361 213.838Z" fill="#30242A"/>
<path d="M21.8325 253.739C22.643 251.639 24.159 249.819 26.1701 248.53C28.1811 247.242 30.5873 246.55 33.0548 246.55C35.5222 246.55 37.9285 247.242 39.9395 248.53C41.9505 249.819 43.4665 251.639 44.2771 253.739C45.2667 251.175 47.3006 249.045 49.9672 247.781C52.6337 246.517 55.7336 246.213 58.6395 246.93C58.7736 242.125 57.4642 237.377 54.8498 233.187C52.4987 233.304 50.2392 234.048 48.358 235.324C46.4768 236.6 45.0587 238.351 44.2836 240.354C43.4715 238.256 41.9549 236.437 39.9441 235.15C37.9333 233.863 35.5278 233.171 33.0613 233.171C30.5948 233.171 28.1893 233.863 26.1785 235.15C24.1677 236.437 22.6511 238.256 21.839 240.354C21.0724 238.374 19.6773 236.64 17.8268 235.367C15.9763 234.095 13.7519 233.339 11.4295 233.196C8.82673 237.371 7.51992 242.101 7.64631 246.889C10.5343 246.219 13.5962 246.552 16.225 247.821C18.8537 249.089 20.8575 251.202 21.839 253.739H21.8325Z" fill="#3EC1F3"/>
<path d="M35.5059 212.996C36.1587 209.397 39.1259 195.127 46.5878 187.371" stroke="#30242A" stroke-width="4" stroke-miterlimit="10" stroke-linecap="round"/>
<path d="M32.0622 213.099C32.0132 209.011 31.5465 188.939 27.1169 176.963" stroke="#30242A" stroke-width="4" stroke-miterlimit="10" stroke-linecap="round"/>
<path d="M51.6952 199.054C58.2378 196.46 63.0166 193.283 62.3689 191.956C61.7213 190.63 55.8925 191.658 49.3499 194.252C42.8073 196.846 38.0284 200.023 38.6761 201.349C39.3237 202.676 45.1526 201.648 51.6952 199.054Z" fill="#30242A"/>
<path d="M51.691 162.566C54.0432 159.701 55.0511 156.779 53.9424 156.04C52.8336 155.301 50.028 157.025 47.6759 159.89C45.3238 162.755 44.3158 165.677 45.4246 166.416C46.5333 167.155 49.3389 165.431 51.691 162.566Z" fill="#30242A"/>
<path d="M16.2685 201.091C24.7977 199.929 31.5273 197.887 31.2995 196.529C31.0717 195.172 23.9728 195.014 15.4435 196.177C6.91431 197.339 0.184663 199.381 0.412455 200.738C0.640248 202.095 7.73922 202.253 16.2685 201.091Z" fill="#30242A"/>
<path d="M10.3099 181.045V181.066C11.5701 181.7 12.5206 182.738 12.974 183.973C13.4274 185.208 13.3507 186.551 12.7591 187.738C12.1676 188.925 11.104 189.869 9.77812 190.384C8.45226 190.899 6.96032 190.948 5.59644 190.521V190.539C12.745 193.433 19.6031 193.653 20.9088 191.033C22.2144 188.412 17.4618 183.939 10.3099 181.045Z" fill="#FF7235"/>
<path d="M31.4456 160.069C29.9245 159.714 27.9464 161.787 26.5004 164.996C24.7606 161.099 22.2373 158.49 20.5367 158.996C18.8361 159.502 18.5325 162.949 19.7109 167.013C16.4271 165.213 13.4697 164.608 12.4807 165.71C11.2207 167.116 13.6493 170.763 17.9058 173.86C19.1167 174.749 20.4197 175.531 21.7967 176.195C22.0314 175.355 22.4953 174.581 23.1463 173.944C23.7973 173.306 24.6148 172.826 25.5244 172.545C26.4341 172.265 27.4071 172.193 28.3551 172.338C29.303 172.482 30.196 172.838 30.9527 173.372C31.5907 172.135 32.0999 170.847 32.4739 169.525C33.8481 164.758 33.3878 160.522 31.4456 160.069Z" fill="#FF7235"/>
<path d="M64.6294 181.718C64.1594 180.366 61.1596 179.954 57.3731 180.542C60.1215 177.151 61.2444 173.842 59.8702 172.81C58.496 171.778 55.0849 173.369 51.8794 176.419C51.8403 172.954 50.8447 170.372 49.2844 170.198C47.2965 169.978 45.1421 173.766 44.4763 178.654C44.2789 180.051 44.2308 181.463 44.3326 182.868C45.2484 182.603 46.2235 182.547 47.1691 182.707C48.1147 182.868 49.0008 183.238 49.7469 183.786C50.4929 184.333 51.0753 185.04 51.4409 185.842C51.8065 186.644 51.9438 187.515 51.8403 188.377C53.3436 188.206 54.8264 187.91 56.2698 187.495C61.4827 186.033 65.2267 183.442 64.6294 181.718Z" fill="#FF7235"/>
<path d="M49.7902 183.815C49.0438 183.254 48.1519 182.873 47.1977 182.706C46.2435 182.538 45.2579 182.591 44.3325 182.86C44.5186 185.186 45.1714 186.977 46.1539 187.627C47.0712 188.392 49.1929 188.648 51.8336 188.368C51.9365 187.516 51.8038 186.655 51.4473 185.86C51.0907 185.066 50.5214 184.363 49.7902 183.815Z" fill="#30242A"/>
<path d="M25.5829 172.528C24.6599 172.802 23.8288 173.282 23.1669 173.923C22.5049 174.564 22.0335 175.346 21.7964 176.195C24.0813 177.283 26.1116 177.725 27.2541 177.325C28.4586 177.031 29.8198 175.539 30.9524 173.372C30.2043 172.843 29.3224 172.489 28.3854 172.341C27.4485 172.194 26.4857 172.258 25.5829 172.528Z" fill="#30242A"/>
<path d="M10.9462 189.777C10.3324 189.468 9.86951 188.964 9.64922 188.362C9.42892 187.761 9.46729 187.107 9.75672 186.53C10.0462 185.953 10.5655 185.495 11.212 185.246C11.8585 184.998 12.5849 184.977 13.2475 185.189C13.1708 184.338 12.8627 183.517 12.3503 182.799C11.8379 182.081 11.1371 181.487 10.3097 181.071L5.58643 190.521C6.47915 190.802 7.43475 190.881 8.3693 190.751C9.30385 190.621 10.1887 190.287 10.9462 189.777Z" fill="#F5EBDD"/>
<path d="M9.74522 186.533C9.46053 187.11 9.42594 187.762 9.64828 188.361C9.87061 188.959 10.3337 189.461 10.9464 189.768C11.731 189.242 12.354 188.545 12.7566 187.742C13.1593 186.94 13.3283 186.058 13.2477 185.18C12.5821 184.966 11.8516 184.987 11.2022 185.238C10.5528 185.489 10.0325 185.951 9.74522 186.533Z" fill="#4856DF"/>
<path d="M225.462 191.28H142.444L143.848 186.262H180.289L194.188 137.288C196.082 130.617 200.386 124.704 206.422 120.481C212.458 116.258 219.883 113.966 227.525 113.966C246.226 113.966 259.909 129.847 255.271 146.17L246.683 176.43C245.477 180.677 242.738 184.441 238.896 187.13C235.053 189.819 230.327 191.279 225.462 191.28Z" fill="#FFB7D5"/>
<path d="M143.087 237.628V242.939H195.996V237.628H143.087Z" fill="#A15842"/>
<path d="M204.712 262.135L190.95 188.33H148.13L134.369 262.135C134.304 262.486 134.324 262.846 134.429 263.189C134.534 263.532 134.721 263.851 134.976 264.122C135.232 264.394 135.55 264.612 135.908 264.761C136.266 264.911 136.657 264.988 137.052 264.988C137.672 264.988 138.274 264.796 138.757 264.445C139.241 264.094 139.576 263.605 139.709 263.059L157.734 188.33H181.36L199.378 263.059C199.51 263.605 199.846 264.095 200.329 264.446C200.812 264.797 201.414 264.988 202.035 264.988C202.43 264.988 202.819 264.909 203.177 264.76C203.535 264.61 203.852 264.391 204.106 264.12C204.361 263.849 204.547 263.53 204.652 263.188C204.756 262.845 204.777 262.486 204.712 262.135Z" fill="#A15842"/>
<path d="M186.919 237.628V242.939H239.828V237.628H186.919Z" fill="#FFBE21"/>
<path d="M248.543 262.135L234.768 188.33H191.965L178.203 262.135C178.138 262.486 178.159 262.846 178.264 263.189C178.369 263.532 178.556 263.851 178.811 264.122C179.066 264.394 179.384 264.612 179.743 264.761C180.101 264.911 180.491 264.988 180.886 264.988C181.507 264.988 182.108 264.797 182.591 264.446C183.074 264.095 183.409 263.605 183.54 263.059L201.559 188.33H225.188L243.206 263.059C243.338 263.606 243.674 264.096 244.158 264.447C244.643 264.798 245.245 264.989 245.867 264.988C246.261 264.988 246.651 264.909 247.008 264.76C247.366 264.61 247.683 264.391 247.938 264.12C248.192 263.849 248.379 263.53 248.483 263.188C248.588 262.845 248.608 262.486 248.543 262.135Z" fill="#FFBE21"/>
<path d="M205.296 176.43L210.545 157.934H175.758C168.937 157.934 162.309 159.98 156.921 163.749C151.533 167.518 147.69 172.796 145.999 178.751L142.444 191.28H184.072C188.938 191.279 193.665 189.82 197.507 187.131C201.35 184.442 204.091 180.677 205.296 176.43Z" fill="#FFB7D5"/>
<path d="M144.706 185.771H188.871" stroke="#A15842" stroke-width="4" stroke-linecap="round" stroke-linejoin="round"/>
<path d="M180.446 185.586L188.185 158.322" stroke="#A15842" stroke-width="4" stroke-linecap="round" stroke-linejoin="round"/>
<path d="M251.416 157.302H230.525" stroke="#A15842" stroke-width="4" stroke-linecap="round" stroke-linejoin="round"/>
<path d="M255.333 144.067H228.567" stroke="#A15842" stroke-width="4" stroke-linecap="round" stroke-linejoin="round"/>
<path d="M157.835 138.091C157.835 138.091 131.646 144.517 120.522 149.532C102.18 157.793 102.242 163.246 91.0592 193.771C80.7345 221.981 79.5986 235.654 65.3569 236.195C54.4839 236.607 50.9194 239.813 49.1567 244.207L92.1821 262.6C92.6752 262.81 93.2389 262.843 93.7578 262.691C94.2766 262.539 94.7113 262.214 94.9729 261.782C95.2394 261.341 95.3043 260.824 95.1537 260.341C95.0031 259.857 94.6489 259.446 94.1667 259.194L93.2625 258.724C97.2611 254.359 104.974 245.06 112.665 230.934L117.561 232.993C117.561 232.993 125.47 223.731 126.724 213.226C128.356 199.659 127.377 190.515 134.254 185.206L214.455 138.079L157.835 138.091Z" fill="#FF7235"/>
<path d="M61.1299 238.375C61.9818 236.778 66.7149 227.049 69.4372 228.225C72.9789 229.754 63.7869 239.522 63.7869 239.522L61.1299 238.375Z" fill="#30242A"/>
<path d="M49.1536 244.345L92.1789 262.736C92.677 262.95 93.2478 262.982 93.7715 262.825C94.2952 262.668 94.7312 262.334 94.9879 261.894C95.2447 261.454 95.3022 260.941 95.1485 260.464C94.9948 259.986 94.6418 259.581 94.1635 259.333L93.2593 258.862L93.3507 258.762L63.7771 246.183C64.2203 245.077 64.531 243.931 64.7042 242.766C69.1304 243.457 78.0874 244.201 78.1331 240.875C78.182 237.775 68.3992 239.019 64.8249 239.895C64.7479 238.704 64.4909 237.527 64.0611 236.398C54.2 237.01 50.8444 240.128 49.1536 244.345Z" fill="#30242A"/>
<path d="M120.522 149.532C118.462 150.458 116.638 151.349 115.002 152.243L112.492 159.487L122.154 153.355L131.062 159.755L127.778 150.982L137.868 146.817L130.07 145.935C126.819 146.98 123.631 148.181 120.522 149.532Z" fill="#FFB7D5"/>
<path d="M148.989 145.761L148.336 149.593L152.592 148.12L148.989 145.761Z" fill="#FFB7D5"/>
<path d="M124.439 164.931L118.221 172.304L109.381 168.472L114.617 176.433L106.434 182.627L116.909 181.448L120.512 192.362L124.113 181.448L135.57 178.498L124.439 174.369V164.931Z" fill="#FFB7D5"/>
<path d="M89.4793 221.228L90.2431 219.264L100.689 218.764L92.2016 213.558L95.9816 205.403L87.4327 210.538L85.8006 208.949C84.4949 212.823 83.3394 216.273 82.21 219.305H82.2622C82.3862 218.973 82.5103 218.637 82.6343 218.296L89.4793 221.228Z" fill="#FFB7D5"/>
<path d="M89.4796 221.228L82.6248 218.308C82.5007 218.649 82.3767 218.984 82.2526 219.317C78.1104 230.434 74.337 235.992 65.3637 236.334C64.923 236.334 64.4987 236.372 64.0809 236.398C64.5107 237.527 64.7677 238.704 64.8447 239.895C68.4353 239.013 78.2018 237.775 78.1528 240.875C78.1006 244.201 69.1502 243.457 64.7239 242.766C64.5476 243.932 64.2336 245.077 63.7871 246.183L93.3607 258.762C97.3822 254.35 105.03 245.098 112.662 231.09L89.4796 221.228Z" fill="#EAA58B"/>
<path d="M115.599 198.85L114.62 206.814L105.454 206.52L113.311 211.832L110.373 221.269L118.237 215.073L125.304 219.32C125.5 218.757 125.679 218.187 125.842 217.611L123.133 211.532L127.331 207.388C127.399 206.617 127.465 205.858 127.527 205.12L120.195 206.223L115.599 198.85Z" fill="#FFB7D5"/>
<path d="M95.182 182.295C94.3561 184.595 93.4683 187.092 92.489 189.806L101.198 190.286L95.182 182.295Z" fill="#FFB7D5"/>
<path d="M125.934 254.145C126.071 252.38 126.499 241.763 129.508 241.954C133.425 242.201 128.872 254.33 128.872 254.33L125.934 254.145Z" fill="#30242A"/>
<path d="M198.428 138.523C198.428 138.523 165.692 143.994 147.686 150.776C129.508 157.625 129.684 169.789 132.955 202.832C135.893 232.413 141.142 246.777 130.344 251.201C120.44 255.259 117 260.347 117.47 265H166.221C166.495 265 166.767 264.951 167.021 264.856C167.275 264.762 167.506 264.623 167.7 264.448C167.894 264.273 168.048 264.065 168.154 263.836C168.259 263.607 168.313 263.362 168.313 263.115C168.313 262.615 168.092 262.135 167.7 261.782C167.308 261.428 166.775 261.229 166.221 261.229H165.398C166.935 256.697 169.165 247.851 169.472 233.21H175.517C175.517 233.21 178.624 220.27 175.191 208.729C171.6 196.638 168.316 194.574 166.354 186.315H195.69C218.092 186.315 234.86 167.645 229.987 147.946C228.465 141.791 226.259 138.535 226.259 138.535L198.428 138.523Z" fill="#FF7235"/>
<path d="M178.131 155.787L172.122 162.599L162.764 159.702L168.309 167.881L161.109 176.731L170.601 173.19L175.892 181.977L176.493 172.304L185.659 170.537L177.805 166.11L178.131 155.787Z" fill="#FFB7D5"/>
<path d="M165.055 208.367L170.604 216.546L163.403 225.396L172.896 221.867L176.414 227.71C176.93 223.169 177.185 216.452 175.54 210.002L174.417 211.276L165.055 208.367Z" fill="#FFB7D5"/>
<path d="M140.58 233.199L140.159 228.64L150.787 224.946L140.727 223.067L141.837 213.117L135.309 220.814L135.113 220.74C135.74 225.49 136.288 229.64 136.595 233.231V233.199H140.58Z" fill="#FFB7D5"/>
<path d="M166.221 261.218H165.398C166.935 256.686 169.165 247.839 169.472 233.198H136.585V233.225C136.611 233.519 136.634 233.813 136.657 234.107C136.657 234.134 136.657 234.163 136.657 234.19C137.339 243.38 136.226 248.757 130.331 251.171C120.427 255.23 116.987 260.318 117.457 264.971H166.221C166.776 264.971 167.308 264.772 167.7 264.418C168.093 264.065 168.313 263.585 168.313 263.085C168.313 262.585 168.093 262.106 167.7 261.752C167.308 261.399 166.776 261.2 166.221 261.2V261.218Z" fill="#EAA58B"/>
<path d="M209.869 139.285L194.831 140.485L196.398 145.932L186.779 150.555L198.761 151.999L202.816 160.09L206.984 151.711L219.172 149.976L208.587 145.064L209.869 139.285Z" fill="#FFB7D5"/>
<path d="M138.194 177.613L141.785 167.29L152.26 168.76L144.076 162.272L149.952 156.078L139.151 159.608L137.424 156.94C134.646 159.775 132.968 163.296 132.071 167.822L133.912 167.875L138.194 177.613Z" fill="#FFB7D5"/>
<path d="M166.22 145.229C164.01 145.782 161.81 146.361 159.663 146.958L168.316 152.252L166.22 145.229Z" fill="#FFB7D5"/>
<path d="M151.943 192.95L147.36 184.398L145.069 193.836L136.559 193.247L144.412 199.441L139.503 209.764L148.026 202.606L155.09 209.944L152.925 198.85L160.126 190.297L151.943 192.95Z" fill="#FFB7D5"/>
<path d="M132.511 257.768C136.84 256.691 145.287 253.921 143.76 250.895C142.337 248.071 134.078 252.953 131.261 255.127C130.55 253.951 129.642 252.882 128.568 251.956C120.023 255.877 117.023 260.624 117.47 264.988H166.221C166.776 264.988 167.308 264.789 167.7 264.436C168.093 264.082 168.313 263.603 168.313 263.103C168.313 262.603 168.093 262.123 167.7 261.77C167.308 261.416 166.776 261.218 166.221 261.218H133.285C133.163 260.046 132.903 258.89 132.511 257.768Z" fill="#30242A"/>
<path d="M166.221 186.965L157.792 186.859" stroke="#A15842" stroke-width="4" stroke-miterlimit="10" stroke-linecap="round"/>
<path d="M172.488 143.941C163.756 145.946 154.424 148.408 147.354 151.067C132.273 156.758 129.828 166.099 131.294 188.003" stroke="#A15842" stroke-width="4" stroke-miterlimit="10" stroke-linecap="round"/>
<path d="M283.301 142.22H275.284V264.988H283.301V142.22Z" fill="#FFBE21"/>
<path d="M283.301 143.908H275.284" stroke="#A15842" stroke-width="4" stroke-miterlimit="10"/>
<path d="M167.001 49.9037C162.431 49.3155 151.963 53.7418 151.617 62.4914C151.271 71.241 159.94 74.0526 161.328 74.6791L181.445 71.8645L182.832 51.8654L167.001 49.9037Z" fill="#A15842"/>
<path d="M202.541 28.1752C211.177 28.1752 218.177 21.868 218.177 14.0876C218.177 6.30724 211.177 0 202.541 0C193.906 0 186.906 6.30724 186.906 14.0876C186.906 21.868 193.906 28.1752 202.541 28.1752Z" fill="#A15842"/>
<path d="M192.399 23.7755C193.352 24.1725 185.326 7.01149 181.229 9.68784C177.374 12.2142 187.558 21.7638 192.399 23.7755Z" fill="#30242A"/>
<path d="M192.843 24.8254C193.718 25.7665 214.198 19.3109 211.364 15.5876C208.655 12.0054 191.968 23.8813 192.843 24.8254Z" fill="#30242A"/>
<path d="M220.031 72.0233C220.031 72.0233 233.78 61.7002 224.927 50.1978C219.293 42.8658 203.974 45.7862 203.974 45.7862C204.346 41.7599 205.561 30.1605 195.879 23.7872C186.197 17.414 173.914 20.7697 169.439 25.7989C164.964 30.8281 166.09 40.2247 164.602 46.9332C163.113 53.6418 164.105 58.2033 168.695 60.3503C172.87 62.3032 177.782 61.1238 177.782 61.1238L177.26 68.2029C177.26 68.2029 167.794 68.5235 161.993 70.4146C148.016 74.9732 123.46 106.237 123.46 106.237C108.076 105.648 93.6707 105.06 93.6707 105.06L101.201 125.118C101.201 125.118 120.186 130.721 133.934 127.471C147.882 124.18 161.106 106.531 161.106 106.531L165.675 118.327L157.819 138.088H226.236L214.779 119.801C216.76 103.584 220.031 72.0233 220.031 72.0233Z" fill="#EAA58B"/>
<path d="M198.046 67.4675L180.093 96.7986L172.749 68.4969C169.521 68.791 165.218 69.3616 162.026 70.4027C148.016 74.9731 123.46 106.236 123.46 106.236C108.076 105.648 93.6707 105.06 93.6707 105.06L101.201 125.118C101.201 125.118 120.186 130.721 133.934 127.471C147.882 124.18 161.106 106.531 161.106 106.531L165.675 118.327L157.819 138.088H226.236L214.779 119.803C216.737 103.581 220.001 72.0203 220.001 72.0203C216.97 70.3577 213.652 69.1648 210.183 68.491C206.275 67.6969 201.98 68.1704 198.046 67.4675Z" fill="#4756DF"/>
<path d="M105.072 136.026H161.765L148.875 99.3455C148.496 98.2644 147.744 97.3204 146.729 96.6503C145.715 95.9802 144.489 95.619 143.231 95.6191H95.3191C94.3881 95.6186 93.4702 95.816 92.6398 96.1953C91.8094 96.5745 91.09 97.1249 90.5401 97.8018C89.9902 98.4786 89.6253 99.2628 89.4751 100.091C89.3248 100.918 89.3934 101.766 89.6753 102.566L100.33 132.9C100.649 133.807 101.281 134.599 102.134 135.161C102.987 135.724 104.016 136.026 105.072 136.026Z" fill="#30242A"/>
<path d="M113.52 112.213C115.025 110.36 121.85 115.254 122.353 115.657C122.614 115.254 126.169 110.363 128.774 112.213C131.036 113.819 126.065 120.992 124.743 122.821C124.687 122.876 124.619 122.921 124.544 122.951C124.468 122.981 124.386 122.997 124.304 122.997C124.221 122.997 124.139 122.981 124.063 122.951C123.988 122.921 123.92 122.876 123.864 122.821C121.452 120.992 112.215 113.819 113.52 112.213Z" fill="#A15842"/>
<path d="M121.791 113.453C122.361 113.293 122.382 111.89 121.839 110.319C121.296 108.748 120.394 107.604 119.824 107.764C119.255 107.924 119.233 109.327 119.776 110.898C120.319 112.469 121.221 113.613 121.791 113.453Z" fill="#A15842"/>
<path d="M194.684 131.897C194.848 132.372 194.887 132.874 194.796 133.364C194.705 133.855 194.487 134.319 194.161 134.719C193.834 135.12 193.408 135.446 192.916 135.671C192.424 135.896 191.88 136.014 191.329 136.015H105.072C104.016 136.015 102.987 135.712 102.134 135.15C101.281 134.588 100.649 133.796 100.33 132.888L99.9771 131.885L194.684 131.897Z" fill="#30242A"/>
<path d="M297.115 136.026H44.3977V143.4H297.115V136.026Z" fill="#FFBE21"/>
<path d="M246.68 176.43L251.929 157.934H221.31C214.489 157.934 207.862 159.98 202.474 163.75C197.087 167.519 193.244 172.797 191.554 178.751L187.996 191.28H225.453C230.319 191.279 235.046 189.82 238.889 187.131C242.733 184.442 245.474 180.678 246.68 176.43Z" fill="#FFB7D5"/>
<path d="M188.721 186.43L187.51 191.041" stroke="#A15842" stroke-width="4" stroke-linecap="round" stroke-linejoin="round"/>
<path d="M90.9418 106.122C87.1325 107.836 85.2295 110.695 85.2295 112.698C85.2295 115.621 88.5329 116.171 88.5329 116.171C88.5329 116.171 86.0684 119.662 90.3543 121.301C90.3543 121.301 90.3543 124.895 94.3464 124.895C94.3464 124.895 93.8176 127.697 97.9827 127.962C102.148 128.227 106.434 126.268 106.796 125C107.211 123.503 106.091 122.251 103.068 121.853C103.068 121.853 107.149 120.136 106.502 117.968C105.856 115.801 103.098 115.851 103.098 115.851C103.098 115.851 105.738 114.424 104.328 112.322C102.918 110.219 100.222 110.948 100.222 110.948C100.222 110.948 100.927 109.478 99.6931 108.357C98.2242 107.034 91.908 108.704 91.908 108.704L90.9418 106.122Z" fill="#EAA58A"/>
<path d="M94.3757 125.033C97.813 124.29 101.148 123.205 104.318 121.798" stroke="#A15842" stroke-width="4" stroke-miterlimit="10" stroke-linecap="round"/>
<path d="M90.3445 121.283C95.1102 120.105 99.6603 118.309 103.852 115.951" stroke="#A15842" stroke-width="4" stroke-miterlimit="10" stroke-linecap="round"/>
<path d="M88.2063 116.589C92.6226 115.412 96.7951 113.591 100.558 111.198" stroke="#A15842" stroke-width="4" stroke-miterlimit="10" stroke-linecap="round"/>
<path d="M224.943 50.1978C219.309 42.8658 203.991 45.7862 203.991 45.7862C204.363 41.7599 205.577 30.1605 195.895 23.7872C186.214 17.414 173.931 20.7697 169.455 25.7989C167.634 27.8576 166.743 30.6281 166.224 33.6515C169.194 34.1015 173.552 33.1809 173.552 33.1809C179.509 39.2189 184.846 40.1777 184.846 40.1777C189.014 36.4219 196.326 36.5455 197.514 42.2364C198.748 48.145 188.273 50.8007 188.273 50.8007C188.273 50.8007 187.294 61.4179 192.517 65.253C194.12 66.3978 196.015 67.1631 198.03 67.4794C201.947 68.1823 206.259 67.7088 210.196 68.497C213.665 69.1707 216.983 70.3637 220.014 72.0262C221.21 71.0768 222.303 70.027 223.279 68.8911C226.713 64.9677 230.819 57.8445 224.943 50.1978Z" fill="#A15842"/>
<path d="M179.767 31.0281C177.808 32.4986 175.524 33.3809 172.893 33.9691" stroke="#EAA58B" stroke-width="4" stroke-miterlimit="10" stroke-linecap="round"/>
<path d="M177.675 61.7854C179.195 61.3285 180.661 60.7374 182.052 60.0208" stroke="#A15842" stroke-width="4" stroke-miterlimit="10" stroke-linecap="round"/>
<path d="M188.675 44.8685L191.652 43.1921" stroke="#A15842" stroke-width="4" stroke-miterlimit="10" stroke-linecap="round"/>
<path d="M171.593 52.7418C172.21 53.0859 174.531 53.3536 175.452 51.7566" stroke="#A15842" stroke-width="4" stroke-miterlimit="10" stroke-linecap="round"/>
<path d="M177.658 45.195C178.275 45.195 178.775 44.7447 178.775 44.1892C178.775 43.6337 178.275 43.1833 177.658 43.1833C177.042 43.1833 176.542 43.6337 176.542 44.1892C176.542 44.7447 177.042 45.195 177.658 45.195Z" fill="#30242A"/>
<path d="M168.404 43.8628C169.021 43.8628 169.521 43.4124 169.521 42.8569C169.521 42.3014 169.021 41.8511 168.404 41.8511C167.788 41.8511 167.288 42.3014 167.288 42.8569C167.288 43.4124 167.788 43.8628 168.404 43.8628Z" fill="#30242A"/>
<path d="M171.548 46.7419C171.326 47.3743 171.133 48.0625 171.26 48.2919C171.435 48.5826 171.701 48.8208 172.024 48.9771" stroke="#A15842" stroke-width="4" stroke-miterlimit="10" stroke-linecap="round"/>
<path d="M190.075 54.724C192.235 54.724 193.986 53.1465 193.986 51.2006C193.986 49.2547 192.235 47.6772 190.075 47.6772C187.916 47.6772 186.165 49.2547 186.165 51.2006C186.165 53.1465 187.916 54.724 190.075 54.724Z" fill="#F5EBDD"/>
<path d="M171.263 43.4224C171.94 40.2894 169.951 37.3047 166.82 36.756C163.69 36.2072 160.604 38.3021 159.927 41.4351C159.251 44.5681 161.24 47.5528 164.37 48.1015C167.501 48.6503 170.587 46.5553 171.263 43.4224Z" stroke="#30242A" stroke-width="4" stroke-miterlimit="10" stroke-linecap="round"/>
<path d="M185.446 44.9893C186.123 41.8563 184.133 38.8716 181.003 38.3229C177.873 37.7741 174.787 39.869 174.11 43.002C173.433 46.135 175.423 49.1197 178.553 49.6684C181.683 50.2172 184.77 48.1223 185.446 44.9893Z" stroke="#30242A" stroke-width="4" stroke-miterlimit="10" stroke-linecap="round"/>
<path d="M171.531 42.948L173.787 43.1656" stroke="#30242A" stroke-width="4" stroke-miterlimit="10" stroke-linecap="round"/>
<path d="M204.738 46.1746L204.089 49.9391" stroke="#30242A" stroke-width="4" stroke-miterlimit="10" stroke-linecap="round"/>
<path d="M157.508 98.8633L160.668 107.148" stroke="#30242A" stroke-width="4" stroke-linecap="round" stroke-linejoin="round"/>
<path d="M174.202 117.739H165.894" stroke="#30242A" stroke-width="4" stroke-linecap="round" stroke-linejoin="round"/>
<path d="M180.75 96.5046L183.367 108.007V118.624" stroke="#30242A" stroke-width="4" stroke-linecap="round" stroke-linejoin="round"/>
<path d="M163.338 70.147L168.31 80.2818L162.418 79.6936L183.367 108.007" stroke="#30242A" stroke-width="4" stroke-linecap="round" stroke-linejoin="round"/>
<path d="M211.776 68.9412L203.338 79.6936L211.195 79.1025L182.385 102.107" stroke="#30242A" stroke-width="4" stroke-linecap="round" stroke-linejoin="round"/>
<path d="M216.163 104.995L209.886 97.0957" stroke="#30242A" stroke-width="4" stroke-linecap="round" stroke-linejoin="round"/>
<path d="M223.425 134.112C220.008 133.085 213.874 131.103 210.176 129.112" stroke="#30242A" stroke-width="4" stroke-linecap="round" stroke-linejoin="round"/>
<path d="M129.156 60.9297C132.702 60.9297 135.576 58.3397 135.576 55.1447C135.576 51.9497 132.702 49.3596 129.156 49.3596C125.61 49.3596 122.735 51.9497 122.735 55.1447C122.735 58.3397 125.61 60.9297 129.156 60.9297Z" fill="#FFB7D5"/>
<path d="M109.966 32.1222L106.228 28.0609C105.653 27.4357 104.624 27.3492 103.93 27.8677L103.85 27.9278C103.156 28.4462 103.06 29.3733 103.635 29.9984L107.373 34.0597C107.949 34.6848 108.978 34.7713 109.672 34.2529L109.752 34.1928C110.446 33.6744 110.542 32.7473 109.966 32.1222Z" fill="#4756DF"/>
<path d="M116.69 37.0573L112.93 32.9692L45.3379 83.467C44.7484 83.9078 44.3774 84.5414 44.3064 85.2286C44.2354 85.9158 44.4702 86.6003 44.9592 87.1316L45.0343 87.2139C45.2762 87.4768 45.5733 87.6941 45.9085 87.8536C46.2437 88.013 46.6104 88.1113 46.9878 88.143C47.3652 88.1747 47.7458 88.1391 48.1079 88.0382C48.47 87.9373 48.8066 87.7731 49.0982 87.5551L70.2306 71.7616V127.18H76.129V67.3501L116.69 37.0573Z" fill="#3EC1F3"/>
<path d="M105.797 38.2336L107.681 40.2924C108.337 41.0066 108.835 41.8272 109.15 42.7099" stroke="#4756DF" stroke-width="4" stroke-miterlimit="10"/>
<path d="M73.1781 72.9879C77.4272 72.9879 80.8718 69.8843 80.8718 66.0558C80.8718 62.2274 77.4272 59.1238 73.1781 59.1238C68.929 59.1238 65.4844 62.2274 65.4844 66.0558C65.4844 69.8843 68.929 72.9879 73.1781 72.9879Z" fill="#4756DF"/>
<path d="M73.1781 68.7205C74.8114 68.7205 76.1354 67.5276 76.1354 66.0559C76.1354 64.5843 74.8114 63.3914 73.1781 63.3914C71.5448 63.3914 70.2207 64.5843 70.2207 66.0559C70.2207 67.5276 71.5448 68.7205 73.1781 68.7205Z" fill="#3EC1F3"/>
<path d="M134.427 51.8594L124.586 59.1885" stroke="#A15842" stroke-width="4" stroke-miterlimit="10"/>
<path d="M121.677 36.3161C119.608 36.097 117.712 35.168 116.383 33.7221L113.771 30.8781C112.848 29.8769 111.522 29.2467 110.084 29.1259C108.646 29.0052 107.213 29.4037 106.101 30.234C105.55 30.6453 105.095 31.1502 104.761 31.72C104.427 32.2898 104.221 32.9133 104.155 33.5548C104.088 34.1964 104.163 34.8434 104.374 35.459C104.585 36.0745 104.929 36.6466 105.386 37.1425L107.997 39.9953C109.32 41.4371 109.978 43.2817 109.835 45.148L109.182 53.7476C108.858 57.9554 110.044 62.1454 112.564 65.7001L113.399 66.8765L144.713 43.4746L143.59 42.5246C140.182 39.6355 135.833 37.8095 131.186 37.316L121.677 36.3161Z" fill="#3EC1F3"/>
<path d="M76.1289 127.18H70.2305L61.5118 129.321C59.8794 129.722 58.4387 130.596 57.4118 131.808C56.3848 133.019 55.8286 134.502 55.8289 136.026H90.5272C90.5273 134.501 89.9706 133.019 88.943 131.807C87.9155 130.595 86.4741 129.722 84.841 129.321L76.1289 127.18Z" fill="#3EC1F3"/>
<path d="M138.772 39.313L110.115 60.6532" stroke="#4756DF" stroke-width="4" stroke-miterlimit="10" stroke-linecap="round"/>
<path d="M70.0869 126.571H76.1289" stroke="#4756DF" stroke-width="4" stroke-miterlimit="10" stroke-linecap="round"/>
<path d="M56.9746 132.35H89.1857" stroke="#4756DF" stroke-width="4" stroke-miterlimit="10" stroke-linecap="round"/>
<path d="M242.622 211.899C243.275 206.9 242.949 195.677 235.748 187.124C228.547 178.571 238.359 182.124 241.297 184.477C245.998 188.242 250.137 191.85 253.737 203.944L242.622 211.899Z" fill="#30242A"/>
<path d="M329.571 264.988H368V263.856C367.999 262.26 367.295 260.729 366.042 259.601C364.789 258.473 363.09 257.839 361.318 257.839H329.372L329.571 264.988Z" fill="#A15842"/>
<path d="M235.826 231.931L243.931 264.988H258.992V262.93C258.992 261.602 258.408 260.329 257.368 259.389C256.328 258.449 254.916 257.919 253.443 257.915C253.443 257.915 260.97 252.83 265.553 247.815C265.553 247.815 273.41 256.442 284.541 254.965L285.347 258.494C285.767 260.326 286.873 261.972 288.482 263.155C290.09 264.337 292.101 264.985 294.177 264.988H330.68C346.871 264.988 354.835 262.762 355.292 254.456C355.306 254.14 355.249 253.823 355.124 253.527C354.999 253.231 354.809 252.96 354.565 252.731C354.321 252.503 354.029 252.321 353.705 252.197C353.381 252.073 353.033 252.009 352.681 252.009H342.49C342.07 252.01 341.655 251.925 341.276 251.762C340.897 251.598 340.563 251.36 340.3 251.065L335.962 246.216C334.676 244.78 332.96 243.708 331.017 243.126C329.075 242.543 326.988 242.475 325.004 242.93L316.279 244.939C316.279 244.939 300.819 224.922 286.816 211.02C273.433 197.747 248.259 196.315 238.343 213.602C235.155 219.26 234.264 225.744 235.826 231.931Z" fill="#A15842"/>
<path d="M327.08 264.988V263.856C327.08 263.066 326.907 262.283 326.571 261.553C326.236 260.822 325.743 260.159 325.123 259.6C324.502 259.041 323.766 258.598 322.955 258.296C322.144 257.994 321.276 257.838 320.398 257.839H315.949" stroke="#30242A" stroke-width="4" stroke-miterlimit="10"/>
<path d="M266.16 248.051C268.445 245.601 276.243 236.581 275.685 227.757C275.088 218.317 268.811 213.305 268.811 213.305" stroke="#30242A" stroke-width="4" stroke-miterlimit="10" stroke-linecap="round"/>
<path d="M282.56 242.501C282.56 242.501 282.977 249.48 283.816 254.692" stroke="#30242A" stroke-width="4" stroke-miterlimit="10" stroke-linecap="round"/>
<path d="M251.135 261.968V264.694" stroke="#30242A" stroke-width="4" stroke-miterlimit="10" stroke-linecap="round"/>
<path d="M254.736 261.968V264.694" stroke="#30242A" stroke-width="4" stroke-miterlimit="10" stroke-linecap="round"/>
<path d="M319.879 261.968V264.694" stroke="#30242A" stroke-width="4" stroke-miterlimit="10" stroke-linecap="round"/>
<path d="M323.479 261.968V264.694" stroke="#30242A" stroke-width="4" stroke-miterlimit="10" stroke-linecap="round"/>
<path d="M333.135 254.003C333.948 254.003 334.607 253.41 334.607 252.677C334.607 251.944 333.948 251.351 333.135 251.351C332.322 251.351 331.663 251.944 331.663 252.677C331.663 253.41 332.322 254.003 333.135 254.003Z" fill="#30242A"/>
<path d="M325.102 242.904V242.869L316.266 244.927L324.991 242.919L325.102 242.904Z" fill="#30242A"/>
<path d="M303.356 257.971C300.797 259.147 297.18 261.45 297.48 264.938H311.693L314.679 260.694C315.167 260 315.842 259.428 316.641 259.032C317.44 258.636 318.337 258.427 319.249 258.427H320.199L325.069 242.992L324.997 242.925L316.272 244.933L307.919 254.574C306.689 255.991 305.132 257.15 303.356 257.971Z" fill="#30242A"/>
<path d="M282.599 218.226C282.599 218.226 278.646 230.554 291.412 235.21C297.885 237.563 303.261 235.778 306.992 233.445C301.355 226.681 293.896 218.07 286.813 211.035C285.037 209.274 283.041 207.704 280.866 206.355C278.933 208.726 276.818 214.59 282.599 218.226Z" fill="#EAA58B"/>
<path d="M249.99 227.166C252.973 227.166 255.392 224.987 255.392 222.299C255.392 219.611 252.973 217.432 249.99 217.432C247.006 217.432 244.587 219.611 244.587 222.299C244.587 224.987 247.006 227.166 249.99 227.166Z" fill="#EAA58B"/>
<path d="M352.694 252.009H350.736C350.628 252.501 350.642 253.009 350.777 253.495C350.913 253.982 351.166 254.435 351.519 254.823C351.872 255.211 352.316 255.524 352.818 255.739C353.321 255.954 353.871 256.067 354.427 256.068C354.657 256.068 354.887 256.048 355.113 256.009C355.213 255.496 355.277 254.977 355.306 254.456C355.32 254.139 355.262 253.823 355.138 253.527C355.013 253.231 354.823 252.96 354.579 252.731C354.335 252.503 354.042 252.321 353.718 252.197C353.394 252.073 353.046 252.009 352.694 252.009Z" fill="#30242A"/>
<path d="M360.469 261.968V264.626" stroke="#30242A" stroke-width="4" stroke-miterlimit="10" stroke-linecap="round"/>
<path d="M364.07 261.968V264.626" stroke="#30242A" stroke-width="4" stroke-miterlimit="10" stroke-linecap="round"/>
<path d="M340.715 264.635C348.718 263.909 353.491 261.956 355.224 257.8" stroke="#30242A" stroke-width="4" stroke-linecap="round" stroke-linejoin="round"/>
<path d="M210.212 109.898C206.184 109.573 202.134 109.533 198.099 109.778C192.328 110.204 184.569 111.566 181.452 112.924C178.334 114.283 166.397 119.08 169.612 120.689C172.55 122.159 178.713 119.948 178.713 119.948C178.713 119.948 172.563 125.042 171.506 127.174C170.448 129.306 173.944 130.503 173.944 130.503C174.864 134.144 178.984 132.579 178.984 132.579C181.579 137.553 195.599 126.777 195.599 126.777C198.934 127.089 202.302 126.961 205.597 126.397C205.597 126.397 207.372 127.294 210.222 128.541L210.212 109.898Z" fill="#EAA58A"/>
<path d="M245.237 134.847C271.426 123.639 233.463 81.761 220.031 72.0232L212.504 99.4543L221.996 111.251C217.837 110.604 213.862 110.16 210.212 109.898V128.541C218.523 132.182 235.986 138.817 245.237 134.847Z" fill="#4756DF"/>
<path d="M177.459 120.256C179.783 118.524 183.642 115.724 186.521 114.036" stroke="#A15842" stroke-width="4" stroke-miterlimit="10" stroke-linecap="round"/>
<path d="M189.693 118.174C183.005 122.077 176.911 127.291 173.895 130.021" stroke="#A15842" stroke-width="4" stroke-miterlimit="10" stroke-linecap="round"/>
<path d="M192.66 122.589C188.091 125.415 182.786 129.7 179.323 132.641" stroke="#A15842" stroke-width="4" stroke-miterlimit="10" stroke-linecap="round"/>
<path d="M271.23 121.003C271.725 121.004 272.199 121.182 272.549 121.497C272.899 121.812 273.096 122.24 273.097 122.686V122.936C273.096 123.382 272.899 123.809 272.549 124.124C272.199 124.44 271.725 124.617 271.23 124.618H261.61V121.003H271.23ZM271.23 118.651H259.351C259.305 118.651 259.259 118.659 259.216 118.675C259.173 118.691 259.134 118.715 259.101 118.745C259.068 118.775 259.042 118.81 259.025 118.849C259.007 118.888 258.998 118.929 258.999 118.971V126.662C258.999 126.746 259.036 126.827 259.102 126.887C259.168 126.946 259.258 126.98 259.351 126.98H271.23C271.819 126.98 272.402 126.875 272.946 126.672C273.49 126.468 273.984 126.17 274.4 125.795C274.816 125.419 275.146 124.973 275.37 124.483C275.595 123.992 275.709 123.466 275.708 122.936V122.677C275.708 121.607 275.236 120.58 274.396 119.824C273.557 119.067 272.417 118.642 271.23 118.642V118.651Z" fill="#3EC1F3"/>
<path d="M256.867 117.383C247.14 117.383 242.645 110.398 242.645 110.398L249.173 136.026H264.541L271.07 110.398C269.553 112.551 267.455 114.322 264.97 115.544C262.486 116.766 259.697 117.399 256.867 117.383Z" fill="#3EC1F3"/>
<path d="M256.867 117.383C259.701 117.402 262.493 116.77 264.981 115.548C267.469 114.326 269.571 112.554 271.089 110.398H242.645C242.645 110.398 247.14 117.383 256.867 117.383Z" fill="#30242A"/>
</svg>
