<svg width="368" height="267" viewBox="0 0 368 267" fill="none" xmlns="http://www.w3.org/2000/svg">
<path d="M132.453 67.9119H15.459C10.2038 67.9119 5.9436 72.1725 5.9436 77.4282V194.434C5.9436 199.689 10.2038 203.95 15.459 203.95H132.453C137.708 203.95 141.969 199.689 141.969 194.434V77.4282C141.969 72.1725 137.708 67.9119 132.453 67.9119Z" fill="#F5EBDD"/>
<path d="M116.56 63.8434C118.373 63.8434 119.843 62.3733 119.843 60.5599C119.843 58.7464 118.373 57.2764 116.56 57.2764C114.746 57.2764 113.276 58.7464 113.276 60.5599C113.276 62.3733 114.746 63.8434 116.56 63.8434Z" fill="#A15842"/>
<path d="M116.56 49.1453V59.4663" stroke="#A15842" stroke-width="4" stroke-miterlimit="10"/>
<path d="M130.708 52.5879H125.711V95.7439H130.708V52.5879Z" fill="#A15842"/>
<path d="M143.081 17.0049C142.082 18.9808 137.891 25.8788 128.21 25.8788C118.529 25.8788 114.341 18.9808 113.338 17.0049L103.979 52.588H152.444L143.081 17.0049Z" fill="#FFBE21"/>
<path d="M139.042 17.6958L145.336 52.5944" stroke="#F5EBDD" stroke-width="4" stroke-miterlimit="10" stroke-linecap="round"/>
<path d="M117.38 18.1499L111.167 52.5942" stroke="#F5EBDD" stroke-width="4" stroke-miterlimit="10" stroke-linecap="round"/>
<path d="M124.128 17.9263L121.721 52.5815" stroke="#F5EBDD" stroke-width="4" stroke-miterlimit="10" stroke-linecap="round"/>
<path d="M132.291 17.9263L134.705 52.6496" stroke="#F5EBDD" stroke-width="4" stroke-miterlimit="10" stroke-linecap="round"/>
<path d="M128.223 25.8751C137.907 25.8751 142.095 18.9772 143.094 17.0012V16.9331H113.357L113.338 17.0012C114.34 18.9804 118.529 25.8751 128.223 25.8751Z" fill="#FF7235"/>
<path d="M318.508 1.29785H201.514C196.258 1.29785 191.998 5.55845 191.998 10.8142V127.82C191.998 133.075 196.258 137.336 201.514 137.336H318.508C323.763 137.336 328.023 133.075 328.023 127.82V10.8142C328.023 5.55845 323.763 1.29785 318.508 1.29785Z" fill="#F5EBDD"/>
<path d="M128.051 264.929C127.148 264.929 126.276 264.599 125.6 264.002C124.923 263.404 124.489 262.58 124.378 261.684L121.64 238.677H134.461L131.723 261.684C131.613 262.58 131.178 263.405 130.502 264.003C129.825 264.6 128.953 264.93 128.051 264.929Z" fill="#30242A"/>
<path d="M271.891 264.929C270.989 264.93 270.117 264.6 269.441 264.002C268.765 263.405 268.331 262.58 268.222 261.684L265.484 238.677H278.302L275.564 261.684C275.453 262.58 275.019 263.405 274.342 264.003C273.666 264.6 272.794 264.93 271.891 264.929Z" fill="#30242A"/>
<path d="M52.8231 143.591H110.379V238.982H26.5803V169.833C26.5812 162.873 29.3464 156.198 34.2678 151.277C39.1892 146.356 45.8636 143.591 52.8231 143.591Z" fill="#FFB7D5"/>
<path d="M117.237 95.7437H315.539C322.499 95.7437 329.174 98.5088 334.096 103.431C339.017 108.353 341.782 115.028 341.782 121.989V238.972H91.0012V121.986C91.0012 115.025 93.7661 108.35 98.6876 103.428C103.609 98.5056 110.284 95.7405 117.244 95.7405L117.237 95.7437Z" fill="#FFB7D5"/>
<path d="M90.9949 157.647V238.972" stroke="#A15842" stroke-width="4" stroke-miterlimit="10" stroke-linecap="round"/>
<path d="M117.237 181.744H315.539C322.499 181.744 329.174 184.509 334.096 189.431C339.017 194.353 341.782 201.029 341.782 207.989V238.975H91.0012V207.989C91.0012 201.03 93.7652 194.355 98.6853 189.433C103.605 184.512 110.279 181.746 117.237 181.744Z" fill="#FFB7D5"/>
<path d="M238.475 181.744H116.29C109.579 181.744 103.142 184.41 98.3968 189.157C93.6512 193.903 90.9851 200.34 90.9851 207.052V238.985" stroke="#A15842" stroke-width="4" stroke-miterlimit="10" stroke-linecap="round"/>
<path d="M257.354 182.143V238.972" stroke="#A15842" stroke-width="4" stroke-miterlimit="10"/>
<path d="M341.782 142.965H283.272" stroke="#A15842" stroke-width="4" stroke-miterlimit="10"/>
<path d="M73.4856 132.946C80.9895 133.884 83.3286 130.698 84.4285 127.943C85.6775 124.818 84.8729 122.132 83.8996 118.641C83.8996 118.641 86.3782 117.291 85.9922 115.743C85.6677 114.494 82.8485 114.355 82.8485 114.355C82.7382 113.797 82.6398 113.218 82.5533 112.619C81.9271 108.239 80.9895 105.737 80.9895 105.737C78.7997 106.363 75.9869 106.062 75.0493 105.737C73.7828 109.247 71.4961 112.297 68.483 114.497C68.483 114.497 61.6019 106.993 57.2254 112.622C53.6567 117.213 58.7891 122.94 62.228 123.566C60.1842 127.878 54.6852 130.38 51.8237 131.424C51.9989 132.781 52.1644 134.039 52.3104 135.136H73.7224L73.4856 132.946Z" fill="#EAA58B"/>
<path d="M147.957 160.175C149.087 156.156 150.01 152.082 150.722 147.968L143.218 127.641C143.218 127.641 146.345 119.205 143.542 117.947C140.739 116.688 134.461 124.835 131.96 131.395C130.88 134.231 127.927 140.749 124.927 147.235L147.957 160.175Z" fill="#EAA58B"/>
<path d="M116.949 164.23C116.949 164.23 98.8134 148.906 90.9623 143.273C83.1113 137.641 74.1117 138.588 74.1117 138.588L73.7192 135.146H52.3071C52.6315 137.589 52.8424 139.211 52.8424 139.211L36.9001 196.131L84.4252 192.377L83.1761 174.856C83.1761 174.856 108.806 196.27 123.515 194.246C136.781 192.409 144.317 173.253 147.954 160.178L124.92 147.238C120.985 155.758 116.949 164.23 116.949 164.23Z" fill="#3EC1F3"/>
<path d="M62.2281 123.576C58.7892 122.949 53.6536 117.223 57.2255 112.632C61.602 107.002 68.483 114.507 68.483 114.507C71.4962 112.307 73.7829 109.256 75.0494 105.747C75.987 106.071 78.7998 106.373 80.9896 105.747C80.9896 105.747 85.6808 104.183 85.3661 100.432C84.9476 95.3966 77.236 97.6159 77.236 97.6159C77.236 97.6159 68.801 91.3604 59.7171 95.4258C50.0362 99.7833 49.0954 108.566 49.7118 114.507C50.0687 117.917 51.0452 125.539 51.8141 131.434C54.6852 130.386 60.1842 127.888 62.2281 123.576Z" fill="#30242A"/>
<path d="M149.2 151.878C147.769 152.469 146.514 152.641 145.956 152.319C144.554 151.521 144.334 149.85 145.998 147.501C145.998 147.501 142.043 149.042 140.823 147.037C139.603 145.032 141.436 143.186 141.436 143.186C141.436 143.186 138.637 143.958 137.952 141.466C137.268 138.974 139.574 137.67 139.574 137.67C139.574 137.67 137.998 137.083 137.952 135.438C137.891 133.047 141.787 131.106 142.909 130.597" stroke="#A15842" stroke-width="8" stroke-miterlimit="10" stroke-linecap="round"/>
<path d="M83.8672 174.788L82.709 161.261" stroke="#4756DF" stroke-width="4" stroke-miterlimit="10" stroke-linecap="round"/>
<path d="M73.1903 133.523C71.376 133.113 69.6285 132.449 67.9995 131.551" stroke="#A15842" stroke-width="4" stroke-miterlimit="10" stroke-linecap="round"/>
<path d="M38.9309 191.906L46.9896 170.476" stroke="#4756DF" stroke-width="4" stroke-miterlimit="10" stroke-linecap="round"/>
<path d="M81.3497 121.846C80.8339 122.171 78.8938 122.417 78.1055 120.928" stroke="#A15842" stroke-width="4" stroke-miterlimit="10" stroke-linecap="round"/>
<path d="M78.4881 114.819C79.006 114.819 79.4257 114.399 79.4257 113.881C79.4257 113.363 79.006 112.943 78.4881 112.943C77.9703 112.943 77.5505 113.363 77.5505 113.881C77.5505 114.399 77.9703 114.819 78.4881 114.819Z" fill="#A15842"/>
<path d="M61.2903 116.697L64.7292 118.573" stroke="#A15842" stroke-width="4" stroke-miterlimit="10" stroke-linecap="round"/>
<path d="M149.018 252.197L172.971 245.108C171.144 238.794 167.65 226.824 165.402 219.852L135.512 232.33C139.424 239.336 143.943 245.983 149.018 252.197Z" fill="#EAA58B"/>
<path d="M149.473 252.732C148.771 255.394 148.337 258.119 148.175 260.866H190.548C189.735 258.91 188.292 257.281 186.447 256.24L174.174 249.29C174.174 249.29 173.707 247.667 172.971 245.104L149.018 252.197C149.31 252.547 149.473 252.732 149.473 252.732Z" fill="#FFBE21"/>
<path d="M148.22 264.928H191.369L191.236 263.592C191.142 262.654 190.91 261.735 190.545 260.866H148.171C148.078 262.219 148.095 263.578 148.22 264.928Z" fill="#FF7235"/>
<path d="M126.957 212.392C129.027 219.53 132.197 226.38 135.512 232.33L165.402 219.852C165.077 218.804 164.753 217.869 164.48 217.081C155.127 190.05 149.472 168.312 135.714 166.109C114.058 162.663 77.2197 199.962 71.6882 205.692L79.6561 210.523L104.708 222.292L113.834 224.397L126.957 212.392Z" fill="#A15842"/>
<path d="M126.276 212.113C125.567 208.655 125.219 205.132 125.238 201.601" stroke="#30242A" stroke-width="4" stroke-miterlimit="10" stroke-linecap="round"/>
<path d="M242.342 138.274C242.342 138.274 212.375 146.181 199.194 153.598C184.183 162.034 183.245 173.299 173.866 201.757C170.845 210.916 168.711 218.275 166.729 224.057L192.566 236.256L192.614 236.159C192.614 236.159 205.267 234.3 206.373 218.638C207.207 206.958 207.606 198.292 211.687 189.554L281.419 138.267L242.342 138.274Z" fill="#30242A"/>
<path d="M152.798 241.237C143.763 242.606 139.993 244.364 138.523 248.462L155.591 256.408C155.591 256.408 164.743 253.813 169.671 255.081V255.097C172.972 255.872 176.195 256.95 179.297 258.319C184.382 251.378 188.834 243.994 192.598 236.256L166.761 224.057C163.056 234.877 159.968 240.15 152.798 241.237Z" fill="#4856DF"/>
<path d="M165.561 261.055L173.886 264.929C175.808 262.831 177.609 260.624 179.277 258.32C176.175 256.951 172.953 255.872 169.652 255.098L165.561 261.055Z" fill="#30242A"/>
<path d="M161.288 234.495L167.082 237.029" stroke="#F5EBDD" stroke-width="4" stroke-miterlimit="10" stroke-linecap="round"/>
<path d="M157.995 238.514L163.789 241.052" stroke="#F5EBDD" stroke-width="4" stroke-miterlimit="10" stroke-linecap="round"/>
<path d="M272.673 68.6905C274.486 68.6905 275.956 67.2205 275.956 65.407C275.956 63.5936 274.486 62.1235 272.673 62.1235C270.86 62.1235 269.39 63.5936 269.39 65.407C269.39 67.2205 270.86 68.6905 272.673 68.6905Z" fill="#FFBE21"/>
<path d="M284.245 44.7683C291.498 44.7683 297.378 38.888 297.378 31.6343C297.378 24.3805 291.498 18.5002 284.245 18.5002C276.992 18.5002 271.113 24.3805 271.113 31.6343C271.113 38.888 276.992 44.7683 284.245 44.7683Z" fill="#30242A"/>
<path d="M275.187 40.3915C275.992 40.7614 269.247 24.7527 265.808 27.2543C262.557 29.6098 271.109 38.5291 275.187 40.3915Z" fill="#3EC1F3"/>
<path d="M275.547 41.3683C276.284 42.2475 293.485 36.2289 291.12 32.7539C288.813 29.4153 274.814 40.476 275.547 41.3683Z" fill="#3EC1F3"/>
<path d="M307.698 104.186L309.203 103.952V103.511C308.716 103.768 308.214 103.993 307.698 104.186Z" fill="#30242A"/>
<path d="M266.733 100.747C281.371 101.013 288.758 86.1074 290.633 81.6591C289.984 81.539 289.335 81.4352 288.622 81.3573C280.187 80.4196 278.616 80.1082 275.8 76.3542C272.984 72.6002 272.673 65.0956 272.673 65.0956C272.673 65.0956 279.966 63.4733 278.928 57.5909C277.99 52.273 271.735 52.273 268.297 56.027C268.297 56.027 262.979 54.7746 257.977 49.1453C257.977 49.1453 254.317 50.0051 251.812 49.5865C251.164 53.6812 251.203 58.2625 250.463 61.9678C249.211 68.2233 250.138 72.2888 253.902 74.4788C257.665 76.6689 262.032 75.1018 262.032 75.1018L261.094 80.7311C261.094 80.7311 255.634 81.3638 251.083 82.7947C251.988 89.8613 255.242 100.539 266.733 100.747Z" fill="#A15842"/>
<path d="M287.058 138.274L288.761 137.119L285.809 138.274H287.058Z" fill="#A15842"/>
<path d="M219.516 102C219.516 102 203.123 79.612 199.191 75.102C194.811 70.0989 188.871 64.7843 186.995 66.6662C185.12 68.548 190.434 74.7971 190.434 74.7971L189.497 95.1243C189.497 95.1243 200.268 124.173 212.012 127.963C217.884 129.857 229.038 124.861 236.918 120.63L224.729 98.5668C221.631 100.598 219.516 102 219.516 102Z" fill="#A15842"/>
<path d="M307.698 104.186C307.698 104.186 306.446 97.3077 304.882 93.5538C302.543 87.9342 298.682 83.1711 290.633 81.6592C288.758 86.1075 281.371 101.013 266.733 100.747C255.241 100.539 251.987 89.8614 251.092 82.7948C250.133 83.0878 249.195 83.4433 248.283 83.859C244.983 85.4002 232.087 93.7517 224.729 98.5666L236.905 120.617C242.028 117.869 245.768 115.425 245.768 115.425L242.329 138.254H285.802L288.755 137.099L309.193 123.232C309.167 116.855 308.667 110.489 307.698 104.186Z" fill="#FF7235"/>
<path d="M316.765 88.2392C314.524 77.5938 303.007 77.9183 303.007 77.9183C303.566 75.3709 303.487 72.725 302.778 70.2153C302.069 67.7056 300.751 65.4098 298.942 63.5319C292.687 56.9649 283.93 59.7779 283.93 59.7779C284.255 56.0272 284.868 46.3324 276.738 40.3916C268.608 34.4508 258.291 37.5753 254.537 42.267C253.009 44.178 252.266 46.7672 251.822 49.5867C254.317 50.0053 257.986 49.1454 257.986 49.1454C262.989 54.7748 268.306 56.0272 268.306 56.0272C271.745 52.2732 278 52.2732 278.937 57.5911C279.976 63.4735 272.683 65.0957 272.683 65.0957C272.683 65.0957 273.007 72.6004 275.81 76.3544C278.613 80.1083 280.19 80.4198 288.631 81.3575C289.332 81.4354 290 81.5392 290.643 81.6593C298.692 83.168 302.552 87.9342 304.892 93.5538C306.455 97.3078 307.707 104.186 307.707 104.186C308.218 103.993 308.715 103.768 309.197 103.511C312.227 101.935 318.699 97.4214 316.765 88.2392Z" fill="#30242A"/>
<path d="M272.05 59.7779L274.551 58.2173" stroke="#30242A" stroke-width="4" stroke-miterlimit="10" stroke-linecap="round"/>
<path d="M256.046 67.1204C256.565 67.4448 258.502 67.6914 259.29 66.2021" stroke="#30242A" stroke-width="4" stroke-miterlimit="10" stroke-linecap="round"/>
<path d="M261.146 60.0829C261.664 60.0829 262.084 59.6631 262.084 59.1452C262.084 58.6273 261.664 58.2075 261.146 58.2075C260.628 58.2075 260.208 58.6273 260.208 59.1452C260.208 59.6631 260.628 60.0829 261.146 60.0829Z" fill="#30242A"/>
<path d="M253.911 58.8402C254.429 58.8402 254.849 58.4204 254.849 57.9025C254.849 57.3847 254.429 56.9648 253.911 56.9648C253.394 56.9648 252.974 57.3847 252.974 57.9025C252.974 58.4204 253.394 58.8402 253.911 58.8402Z" fill="#30242A"/>
<path d="M256.413 60.4041C256.413 60.4041 255.56 62.5422 255.764 62.9705C255.912 63.2455 256.138 63.4711 256.413 63.6194" stroke="#30242A" stroke-width="4" stroke-miterlimit="10" stroke-linecap="round"/>
<path d="M192.459 99.3451C192.967 99.3407 193.462 99.1748 193.87 98.8714C194.976 97.765 194.752 96.1459 192.592 94.3809C192.592 94.3809 196.686 94.8059 197.309 92.6158C197.932 90.4258 195.748 89.1766 195.748 89.1766C195.748 89.1766 198.561 89.1766 198.561 86.675C198.561 84.1735 196.06 83.5473 196.06 83.5473C196.06 83.5473 197.383 82.5901 196.997 81.0457C196.371 78.5442 191.057 77.918 191.057 77.918L190.324 77.0225" stroke="#30242A" stroke-width="8" stroke-linecap="round" stroke-linejoin="round"/>
<path d="M262.21 75.7119C263.529 75.1878 264.816 74.5865 266.064 73.9111" stroke="#30242A" stroke-width="4" stroke-miterlimit="10" stroke-linecap="round"/>
<path d="M220.294 101.928L223.581 106.376" stroke="#30242A" stroke-width="4" stroke-miterlimit="10" stroke-linecap="round"/>
<path d="M246.839 105.121L245.243 115.14" stroke="#A15842" stroke-width="4" stroke-miterlimit="10" stroke-linecap="round"/>
<path d="M285.494 125.451L285.339 109.348" stroke="#A15842" stroke-width="4" stroke-miterlimit="10" stroke-linecap="round"/>
<path d="M303.48 78.3562C303.029 80.0452 302.424 81.6894 301.673 83.2685" stroke="black" stroke-width="4" stroke-linecap="round" stroke-linejoin="round"/>
<path d="M284.505 60.1379L283.619 64.7842" stroke="black" stroke-width="4" stroke-linecap="round" stroke-linejoin="round"/>
<path d="M265.484 138.588C265.484 138.588 238.589 147.024 223.581 154.224C208.657 161.362 210.448 177.99 213.261 207.075C214.257 217.357 215.422 225.407 216.012 231.782H244.562C246.028 230.965 254.684 225.407 249.522 210.203C245.752 199.103 242.498 191.751 242.498 182.108H266.376C273.168 182.108 279.693 179.46 284.564 174.726C289.435 169.992 292.269 163.545 292.463 156.755L292.985 138.585L265.484 138.588Z" fill="#30242A"/>
<path d="M210.568 252.346C202.964 257.414 200.294 260.6 200.69 264.938L219.506 264.912C219.506 264.912 226.699 258.686 231.701 257.748C235.017 257.118 238.384 256.804 241.759 256.811C242.904 251.201 244.137 242.781 244.354 231.899L244.562 231.792H216.012C217.008 242.492 216.376 248.469 210.568 252.346Z" fill="#4856DF"/>
<path d="M230.524 264.883H239.708C239.708 264.883 240.707 262.09 241.785 256.814C238.41 256.808 235.042 257.122 231.727 257.752L230.524 264.883Z" fill="#30242A"/>
<path d="M242.209 182.682H234.838" stroke="black" stroke-width="4" stroke-linecap="round" stroke-linejoin="round"/>
<path d="M215.438 244.134H222.488" stroke="#F5EBDD" stroke-width="4" stroke-miterlimit="10" stroke-linecap="round"/>
<path d="M213.871 249.137H220.921" stroke="#F5EBDD" stroke-width="4" stroke-miterlimit="10" stroke-linecap="round"/>
<path d="M118.672 194.564C126.357 194.564 132.586 188.333 132.586 180.648C132.586 172.962 126.357 166.732 118.672 166.732C110.987 166.732 104.757 172.962 104.757 180.648C104.757 188.333 110.987 194.564 118.672 194.564Z" fill="white"/>
<path d="M122.581 176.427C122.581 174.267 120.831 172.517 118.672 172.517C116.512 172.517 114.762 174.267 114.762 176.427V181.115C114.762 183.274 116.512 185.025 118.672 185.025C120.831 185.025 122.581 183.274 122.581 181.115V176.427Z" fill="#4856DF"/>
<path d="M118.671 183.775V188.156" stroke="#4856DF" stroke-width="4" stroke-miterlimit="10" stroke-linecap="round"/>
<path d="M116.43 188.156H120.91" stroke="#4856DF" stroke-width="4" stroke-miterlimit="10" stroke-linecap="round"/>
<path d="M20.4811 87.6097C23.33 87.6097 25.6395 85.3 25.6395 82.4508C25.6395 79.6017 23.33 77.292 20.4811 77.292C17.6322 77.292 15.3228 79.6017 15.3228 82.4508C15.3228 85.3 17.6322 87.6097 20.4811 87.6097Z" fill="white"/>
<path d="M36.1183 87.6097C38.9672 87.6097 41.2767 85.3 41.2767 82.4508C41.2767 79.6017 38.9672 77.292 36.1183 77.292C33.2694 77.292 30.96 79.6017 30.96 82.4508C30.96 85.3 33.2694 87.6097 36.1183 87.6097Z" fill="white"/>
<path d="M51.7524 87.6097C54.6012 87.6097 56.9107 85.3 56.9107 82.4508C56.9107 79.6017 54.6012 77.292 51.7524 77.292C48.9035 77.292 46.594 79.6017 46.594 82.4508C46.594 85.3 48.9035 87.6097 51.7524 87.6097Z" fill="white"/>
<path d="M132.44 67.9118C134.963 67.9118 137.382 68.9141 139.166 70.6982C140.95 72.4822 141.952 74.9019 141.952 77.4249V194.434C141.952 196.957 140.95 199.376 139.166 201.16C137.382 202.945 134.963 203.947 132.44 203.947H15.4556C12.9328 203.947 10.5134 202.945 8.7295 201.16C6.94562 199.376 5.94345 196.957 5.94345 194.434V77.4249C5.94345 74.9019 6.94562 72.4822 8.7295 70.6982C10.5134 68.9141 12.9328 67.9118 15.4556 67.9118H132.44ZM132.44 66.614H15.4556C12.5897 66.6174 9.84218 67.7576 7.81568 69.7842C5.78918 71.8109 4.64919 74.5587 4.64575 77.4249V194.434C4.64919 197.3 5.78918 200.048 7.81568 202.074C9.84218 204.101 12.5897 205.241 15.4556 205.245H132.44C135.306 205.241 138.054 204.101 140.08 202.074C142.107 200.048 143.246 197.3 143.25 194.434V77.4249C143.246 74.5587 142.107 71.8109 140.08 69.7842C138.054 67.7576 135.306 66.6174 132.44 66.614Z" fill="#F5EBDD"/>
<path d="M284.219 143.591H341.782V238.982H257.993V169.833C257.994 162.876 260.757 156.204 265.674 151.283C270.592 146.362 277.263 143.596 284.219 143.591Z" fill="#FFB7D5"/>
<path d="M327.397 239.024C328.166 236.817 329.602 234.903 331.507 233.549C333.412 232.195 335.691 231.468 338.028 231.468C340.366 231.468 342.645 232.195 344.55 233.549C346.455 234.903 347.891 236.817 348.66 239.024C349.395 236.917 350.739 235.076 352.521 233.734C354.303 232.393 356.444 231.61 358.672 231.487C357.677 229.712 356.492 228.051 355.139 226.532L351.051 221.954C349.778 220.526 348.976 218.741 348.753 216.841C348.53 214.941 348.897 213.019 349.805 211.335L353.276 204.885C352.303 205.858 346.671 211.14 338.122 211.14C329.574 211.14 323.945 205.868 322.972 204.885L326.446 211.335C327.352 213.019 327.718 214.942 327.494 216.842C327.27 218.742 326.467 220.527 325.194 221.954L321.106 226.532C319.75 228.053 318.563 229.718 317.567 231.496C319.762 231.653 321.862 232.45 323.61 233.787C325.357 235.125 326.673 236.946 327.397 239.024Z" fill="#4756DF"/>
<path d="M359.291 245.533C356.954 245.534 354.675 246.262 352.77 247.617C350.865 248.971 349.429 250.885 348.66 253.092C347.893 250.883 346.457 248.968 344.552 247.613C342.646 246.258 340.366 245.53 338.028 245.53C335.69 245.53 333.41 246.258 331.505 247.613C329.6 248.968 328.164 250.883 327.397 253.092C326.468 250.423 324.57 248.201 322.079 246.867C319.587 245.532 316.686 245.184 313.949 245.889C314.11 253.028 316.99 259.836 322.002 264.922H354.211C359.212 259.847 362.091 253.055 362.26 245.932C361.292 245.668 360.294 245.533 359.291 245.533Z" fill="#4756DF"/>
<path d="M338.106 211.14C346.655 211.14 352.284 205.868 353.26 204.885H322.956C323.929 205.868 329.561 211.14 338.106 211.14Z" fill="#30242A"/>
<path d="M327.397 253.099C328.164 250.89 329.6 248.975 331.505 247.62C333.41 246.264 335.69 245.536 338.028 245.536C340.366 245.536 342.646 246.264 344.552 247.62C346.457 248.975 347.893 250.89 348.66 253.099C349.597 250.403 351.522 248.165 354.047 246.835C356.572 245.506 359.507 245.185 362.26 245.938C362.389 240.886 361.149 235.892 358.672 231.487C356.444 231.61 354.303 232.393 352.521 233.734C350.739 235.076 349.395 236.917 348.66 239.024C347.891 236.817 346.455 234.903 344.55 233.549C342.645 232.195 340.365 231.468 338.028 231.468C335.691 231.468 333.412 232.195 331.507 233.549C329.602 234.903 328.166 236.817 327.397 239.024C326.671 236.941 325.349 235.117 323.596 233.779C321.843 232.441 319.735 231.647 317.534 231.497C315.075 235.889 313.842 240.863 313.966 245.896C316.702 245.19 319.604 245.539 322.095 246.873C324.586 248.208 326.484 250.43 327.413 253.099H327.397Z" fill="#3EC1F3"/>
<path d="M340.351 210.254C340.968 206.471 343.78 191.462 350.85 183.324" stroke="#30242A" stroke-width="4" stroke-miterlimit="10" stroke-linecap="round"/>
<path d="M337.084 210.361C337.039 206.066 336.598 184.956 332.4 172.361" stroke="#30242A" stroke-width="4" stroke-miterlimit="10" stroke-linecap="round"/>
<path d="M355.681 195.574C361.88 192.846 366.408 189.504 365.795 188.11C365.181 186.716 359.659 187.797 353.46 190.525C347.26 193.253 342.732 196.595 343.345 197.989C343.959 199.383 349.482 198.302 355.681 195.574Z" fill="#30242A"/>
<path d="M355.677 157.221C357.905 154.209 358.858 151.136 357.807 150.358C356.755 149.58 354.097 151.392 351.869 154.404C349.641 157.416 348.687 160.489 349.739 161.267C350.79 162.045 353.449 160.233 355.677 157.221Z" fill="#30242A"/>
<path d="M322.127 197.752C330.207 196.53 336.583 194.381 336.367 192.953C336.151 191.525 329.425 191.358 321.345 192.58C313.265 193.802 306.889 195.951 307.105 197.379C307.321 198.807 314.047 198.974 322.127 197.752Z" fill="#30242A"/>
<path d="M316.48 176.654V176.677C317.673 177.345 318.572 178.435 319.001 179.733C319.429 181.031 319.357 182.443 318.797 183.69C318.237 184.937 317.23 185.929 315.975 186.471C314.72 187.013 313.308 187.065 312.016 186.618V186.641C318.79 189.684 325.285 189.914 326.524 187.156C327.764 184.399 323.254 179.697 316.48 176.654Z" fill="#FF7235"/>
<path d="M336.504 154.594C335.06 154.221 333.185 156.401 331.816 159.785C330.168 155.687 327.777 152.945 326.168 153.478C324.558 154.01 324.266 157.634 325.382 161.913C322.274 160.019 319.468 159.383 318.534 160.541C317.34 162.02 319.64 165.856 323.673 169.11C324.82 170.046 326.056 170.868 327.361 171.566C327.584 170.683 328.023 169.869 328.64 169.199C329.256 168.529 330.031 168.024 330.892 167.729C331.754 167.434 332.675 167.359 333.573 167.51C334.471 167.662 335.316 168.036 336.033 168.597C336.638 167.297 337.121 165.944 337.477 164.554C338.775 159.525 338.343 155.071 336.504 154.594Z" fill="#FF7235"/>
<path d="M367.94 177.361C367.496 175.94 364.654 175.502 361.066 176.122C363.661 172.553 364.738 169.078 363.434 167.991C362.13 166.904 358.892 168.578 355.862 171.784C355.826 168.143 354.889 165.428 353.406 165.246C351.521 165.015 349.481 168.997 348.864 174.139C348.677 175.608 348.633 177.091 348.731 178.568C349.598 178.29 350.521 178.233 351.416 178.402C352.31 178.571 353.149 178.961 353.855 179.536C354.56 180.111 355.111 180.854 355.457 181.696C355.803 182.539 355.934 183.454 355.836 184.36C357.259 184.186 358.664 183.881 360.031 183.448C364.959 181.9 368.508 179.175 367.94 177.361Z" fill="#FF7235"/>
<path d="M353.883 179.574C353.176 178.984 352.332 178.583 351.428 178.407C350.525 178.231 349.592 178.287 348.715 178.568C348.89 181.014 349.51 182.887 350.441 183.584C351.307 184.389 353.319 184.655 355.82 184.36C355.917 183.464 355.791 182.558 355.453 181.723C355.115 180.888 354.576 180.15 353.883 179.574Z" fill="#30242A"/>
<path d="M330.949 167.699C330.075 167.987 329.288 168.492 328.661 169.166C328.034 169.841 327.588 170.663 327.365 171.556C329.532 172.702 331.449 173.179 332.533 172.744C333.675 172.419 334.963 170.869 336.036 168.588C335.328 168.031 334.492 167.659 333.605 167.504C332.717 167.349 331.805 167.415 330.949 167.699Z" fill="#30242A"/>
<path d="M317.083 185.833C316.504 185.507 316.067 184.976 315.86 184.345C315.652 183.713 315.689 183.027 315.963 182.421C316.236 181.815 316.727 181.334 317.338 181.073C317.949 180.811 318.636 180.788 319.263 181.008C319.191 180.111 318.898 179.245 318.411 178.489C317.923 177.732 317.257 177.107 316.47 176.67L312.006 186.611C312.851 186.908 313.757 186.993 314.642 186.857C315.528 186.721 316.366 186.369 317.083 185.833Z" fill="#F5EBDD"/>
<path d="M315.945 182.426C315.672 183.034 315.638 183.722 315.849 184.354C316.06 184.987 316.5 185.516 317.084 185.839C317.827 185.286 318.417 184.553 318.798 183.709C319.179 182.865 319.34 181.937 319.264 181.014C318.635 180.789 317.943 180.809 317.328 181.071C316.713 181.332 316.219 181.816 315.945 182.426Z" fill="#4856DF"/>
<path d="M206.539 20.9986C209.388 20.9986 211.697 18.6889 211.697 15.8398C211.697 12.9906 209.388 10.6809 206.539 10.6809C203.69 10.6809 201.38 12.9906 201.38 15.8398C201.38 18.6889 203.69 20.9986 206.539 20.9986Z" fill="white"/>
<path d="M222.173 20.9986C225.022 20.9986 227.331 18.6889 227.331 15.8398C227.331 12.9906 225.022 10.6809 222.173 10.6809C219.324 10.6809 217.015 12.9906 217.015 15.8398C217.015 18.6889 219.324 20.9986 222.173 20.9986Z" fill="white"/>
<path d="M237.807 20.9986C240.656 20.9986 242.965 18.6889 242.965 15.8398C242.965 12.9906 240.656 10.6809 237.807 10.6809C234.958 10.6809 232.649 12.9906 232.649 15.8398C232.649 18.6889 234.958 20.9986 237.807 20.9986Z" fill="white"/>
<path d="M318.507 1.29783C321.031 1.29783 323.451 2.30044 325.236 4.08509C327.02 5.86975 328.023 8.29026 328.023 10.8141V127.823C328.022 130.346 327.019 132.766 325.235 134.55C323.45 136.334 321.031 137.336 318.507 137.336H201.513C198.99 137.336 196.57 136.334 194.786 134.55C193.002 132.766 191.999 130.346 191.998 127.823V10.8141C191.998 9.56444 192.244 8.32698 192.722 7.1724C193.2 6.01783 193.901 4.96876 194.785 4.08509C195.668 3.20142 196.717 2.50045 197.872 2.02221C199.026 1.54398 200.264 1.29783 201.513 1.29783H318.507ZM318.507 0H201.513C198.647 0.00343461 195.898 1.14388 193.871 3.17118C191.844 5.19848 190.704 7.94711 190.7 10.8141V127.823C190.704 130.69 191.844 133.438 193.871 135.465C195.898 137.492 198.647 138.631 201.513 138.634H318.507C321.374 138.631 324.122 137.492 326.15 135.465C328.177 133.438 329.317 130.69 329.321 127.823V10.8141C329.317 7.94711 328.177 5.19848 326.15 3.17118C324.123 1.14388 321.374 0.00343461 318.507 0Z" fill="#F5EBDD"/>
<path d="M190.746 74.7905C190.746 74.7905 183.868 74.7905 182.93 77.6036C181.993 80.4166 184.179 82.6099 184.179 82.6099C184.179 82.6099 180.429 84.4853 182.93 87.9245C182.93 87.9245 181.052 91.0523 184.179 92.9277C184.179 92.9277 182.304 95.1177 185.432 97.3078C188.559 99.4979 192.936 99.8094 193.867 98.8717C194.973 97.7653 194.749 96.1463 192.589 94.3812C192.589 94.3812 196.683 94.8063 197.306 92.6162C197.929 90.4261 195.745 89.1769 195.745 89.1769C195.745 89.1769 198.558 89.1769 198.558 86.6754C198.558 84.1738 196.057 83.5476 196.057 83.5476C196.057 83.5476 197.38 82.5905 196.994 81.0461C196.534 79.2064 193.542 78.3823 191.988 78.074C191.575 77.9979 191.158 77.9459 190.739 77.9183L190.746 74.7905Z" fill="#A15842"/>
<path d="M184.54 93.1902C187.646 94.1295 190.845 94.731 194.081 94.9844" stroke="#30242A" stroke-width="4" stroke-miterlimit="10" stroke-linecap="round"/>
<path d="M183.375 88.1711C187.901 89.2912 192.562 89.7706 197.221 89.5955" stroke="#30242A" stroke-width="4" stroke-miterlimit="10" stroke-linecap="round"/>
<path d="M184.365 82.9797C188.655 84.0103 193.091 84.2935 197.478 83.8168" stroke="#30242A" stroke-width="4" stroke-miterlimit="10" stroke-linecap="round"/>
<path d="M284.868 134.221C284.868 134.221 259.54 140.791 250.784 147.358C246.829 150.324 242.024 155.794 240.467 158.302C238.91 160.81 232.337 170.187 235.464 170.499C238.592 170.81 242.031 165.184 242.031 165.184C242.031 165.184 240.149 172.062 240.474 174.253C240.798 176.443 243.912 175.816 243.912 175.816C246.414 178.318 248.604 175.19 248.604 175.19C252.98 178.003 257.688 162.994 257.688 162.994C260.256 161.728 262.626 160.095 264.724 158.146C264.724 158.146 292.709 157.991 301.466 150.171C307.682 144.623 309.216 133.679 309.213 123.264H284.881L284.868 134.221Z" fill="#A15842"/>
<path d="M285.102 133.462L290.811 132.034" stroke="#30242A" stroke-width="4" stroke-miterlimit="10" stroke-linecap="round"/>
<path d="M240.798 167.663C242.42 162.147 243.718 158.902 244.691 156.894" stroke="#30242A" stroke-width="4" stroke-miterlimit="10" stroke-linecap="round"/>
<path d="M249.064 158.773C246.249 164.84 244.523 172.16 243.718 175.774" stroke="#30242A" stroke-width="4" stroke-miterlimit="10" stroke-linecap="round"/>
<path d="M253.451 160.96C251.611 165.178 249.94 171.524 248.909 175.45" stroke="#30242A" stroke-width="4" stroke-miterlimit="10" stroke-linecap="round"/>
<path d="M246.145 145.168C238.524 147.881 230.018 151.138 223.581 154.224C212.044 159.74 210.497 170.937 211.687 189.161" stroke="black" stroke-width="4" stroke-linecap="round" stroke-linejoin="round"/>
<path d="M62.8736 234.919C50.0815 237.515 40.9652 240.851 40.9652 240.851L28.6565 235.396L28.6824 235.127L0 261.178L0.626138 261.927C1.40907 262.866 2.3888 263.622 3.49602 264.141C4.60324 264.659 5.81089 264.928 7.03354 264.928H64.6028L62.8736 234.919Z" fill="#EAA58B"/>
<path d="M40.9523 240.85C40.9523 240.85 50.0687 237.499 62.8607 234.919L64.5899 264.928H105.678C116.787 264.928 126.523 257.141 128.593 246.227C129.971 238.943 127.817 231.143 120.076 225.838C107.625 217.305 80.9896 206.137 74.1118 203.947L36.2741 212.707C29.0816 220.527 30.6453 233.346 30.6453 233.346L40.9523 240.85Z" fill="#A15842"/>
<path d="M62.9678 235.325C71.4742 233.68 80.9766 232.256 94.2781 232.876" stroke="#30242A" stroke-width="4" stroke-miterlimit="10" stroke-linecap="round"/>
<path d="M74.7605 203.622C80.7786 205.54 101.925 214.329 115.456 222.214" stroke="#30242A" stroke-width="4" stroke-miterlimit="10" stroke-linecap="round"/>
<path d="M34.7882 235.354L3.22485 264.001C4.40518 264.611 5.71463 264.929 7.04334 264.929H30.0191L40.9523 240.851C39.2399 238.667 37.1527 236.806 34.7882 235.354Z" fill="#FFBE21"/>
<path d="M30.6452 233.343L0 261.178L0.626138 261.927C1.34291 262.786 2.22568 263.491 3.22154 264.001L34.7881 235.354C33.4857 234.533 32.0962 233.858 30.6452 233.343Z" fill="#FF7235"/>
<path d="M23.6084 259.458V265" stroke="#30242A" stroke-width="4" stroke-miterlimit="10" stroke-linecap="round"/>
<path d="M18.6057 259.458V265" stroke="#30242A" stroke-width="4" stroke-miterlimit="10" stroke-linecap="round"/>
<path d="M52.9722 138.686C53.9454 138.595 55.9763 138.429 58.0072 138.429" stroke="#4756DF" stroke-width="4" stroke-miterlimit="10" stroke-linecap="round"/>
<path d="M143.218 127.641C143.218 127.641 149.317 125.62 151.004 128.164C152.691 130.707 151.127 133.485 151.127 133.485C151.127 133.485 155.374 134.325 153.826 138.433C153.826 138.433 156.548 141.028 153.953 143.754C153.953 143.754 156.418 145.418 153.904 148.452C151.39 151.485 147.124 152.994 145.933 152.319C144.532 151.521 144.311 149.85 145.975 147.501C145.975 147.501 142.02 149.042 140.801 147.037C139.581 145.032 141.414 143.186 141.414 143.186C141.414 143.186 138.614 143.958 137.929 141.466C137.245 138.974 139.552 137.67 139.552 137.67C139.552 137.67 137.975 137.083 137.929 135.438C137.868 133.047 142.063 130.964 143.185 130.457L143.218 127.641Z" fill="#EAA58B"/>
<path d="M138.604 138.108C141.011 137.686 147.127 136.382 151.176 133.566" stroke="#A15842" stroke-width="4" stroke-miterlimit="10" stroke-linecap="round"/>
<path d="M139.578 143.951C144.661 143.315 149.538 141.55 153.852 138.786" stroke="#A15842" stroke-width="4" stroke-miterlimit="10" stroke-linecap="round"/>
<path d="M144.12 148.712C144.986 148.407 150.637 146.379 154.066 144.205" stroke="#A15842" stroke-width="4" stroke-miterlimit="10" stroke-linecap="round"/>
<path d="M57.5531 188.752C51.8918 189.444 45.5753 190.466 38.4639 191.737L48.4692 164.843L52.8457 139.211C52.8457 139.211 38.4639 140.775 31.8975 148.296C25.8405 155.217 6.88109 187.387 14.3786 204.274C21.876 221.162 44.4041 215.205 49.7117 213.642C52.6088 212.788 56.9983 210.822 61.5046 209.359L57.5531 188.752Z" fill="#3EC1F3"/>
<path d="M72.2334 207.701C79.1144 208.638 86.9298 212.078 88.1821 207.701C88.1821 207.701 92.3996 207.594 91.0695 203.583C91.0695 203.583 93.1847 203.321 93.4962 201.757C94.1223 198.632 86.6184 195.816 86.6184 195.816C86.6184 195.816 92.5586 196.754 93.8109 195.491C95.4038 193.895 93.8531 191.355 84.1495 189.002C77.103 187.296 68.5771 187.4 57.5466 188.749L61.5079 209.343C65.2842 208.142 69.1059 207.273 72.2334 207.701Z" fill="#EAA58B"/>
<path d="M89.2916 196.215C85.9597 194.937 79.6334 192.811 75.0493 192.065" stroke="#A15842" stroke-width="4" stroke-miterlimit="10" stroke-linecap="round"/>
<path d="M91.1991 203.454C86.8518 201.507 78.4557 197.899 73.9526 197.224" stroke="#A15842" stroke-width="4" stroke-miterlimit="10" stroke-linecap="round"/>
<path d="M87.8284 208.025C84.4771 206.325 77.7712 203.133 73.0151 202.227" stroke="#A15842" stroke-width="4" stroke-miterlimit="10" stroke-linecap="round"/>
<path d="M57.6082 189.22C54.5521 189.616 44.7772 190.965 30.1748 193.785" stroke="#4756DF" stroke-width="4" stroke-miterlimit="10" stroke-linecap="round"/>
<path d="M304.726 127.953C312.411 127.953 318.641 121.722 318.641 114.037C318.641 106.351 312.411 100.121 304.726 100.121C297.041 100.121 290.812 106.351 290.812 114.037C290.812 121.722 297.041 127.953 304.726 127.953Z" fill="white"/>
<path d="M308.636 109.815C308.636 107.656 306.885 105.906 304.726 105.906C302.567 105.906 300.817 107.656 300.817 109.815V114.504C300.817 116.663 302.567 118.414 304.726 118.414C306.885 118.414 308.636 116.663 308.636 114.504V109.815Z" fill="#4856DF"/>
<path d="M304.726 117.165V121.545" stroke="#4856DF" stroke-width="4" stroke-miterlimit="10" stroke-linecap="round"/>
<path d="M302.484 121.545H306.968" stroke="#4856DF" stroke-width="4" stroke-miterlimit="10" stroke-linecap="round"/>
</svg>
