<svg width="368" height="266" viewBox="0 0 368 266" fill="none" xmlns="http://www.w3.org/2000/svg">
<path d="M353.832 9.93623C357.281 9.93623 360.588 11.2291 363.027 13.5304C365.466 15.8317 366.836 18.9529 366.836 22.2074V138.59C366.836 141.845 365.466 144.966 363.027 147.267C360.588 149.568 357.281 150.861 353.832 150.861H193.825C190.376 150.861 187.069 149.568 184.63 147.267C182.192 144.966 180.822 141.845 180.822 138.59V22.2074C180.822 18.9529 182.192 15.8317 184.63 13.5304C187.069 11.2291 190.376 9.93623 193.825 9.93623H353.832ZM353.832 8.8374H193.825C190.069 8.84104 186.467 10.2508 183.811 12.7574C181.155 15.264 179.661 18.6626 179.657 22.2074V138.59C179.661 142.135 181.155 145.533 183.811 148.04C186.467 150.547 190.069 151.956 193.825 151.96H353.832C357.589 151.956 361.19 150.547 363.846 148.04C366.502 145.533 367.996 142.135 368 138.59V22.2074C367.996 18.6626 366.502 15.264 363.846 12.7574C361.19 10.2508 357.589 8.84104 353.832 8.8374Z" fill="white"/>
<path d="M353.832 9.93604H193.825C186.643 9.93604 180.822 15.43 180.822 22.2072V138.59C180.822 145.367 186.643 150.861 193.825 150.861H353.832C361.014 150.861 366.836 145.367 366.836 138.59V22.2072C366.836 15.43 361.014 9.93604 353.832 9.93604Z" fill="#F5EBDD"/>
<path d="M180.822 36.3081H367.418" stroke="white" stroke-width="4" stroke-miterlimit="10"/>
<path d="M194.503 27.5173C197.236 27.5173 199.452 25.4265 199.452 22.8473C199.452 20.2681 197.236 18.1772 194.503 18.1772C191.77 18.1772 189.554 20.2681 189.554 22.8473C189.554 25.4265 191.77 27.5173 194.503 27.5173Z" fill="white"/>
<path d="M209.501 27.5173C212.234 27.5173 214.45 25.4265 214.45 22.8473C214.45 20.2681 212.234 18.1772 209.501 18.1772C206.768 18.1772 204.552 20.2681 204.552 22.8473C204.552 25.4265 206.768 27.5173 209.501 27.5173Z" fill="white"/>
<path d="M224.496 27.5173C227.229 27.5173 229.444 25.4265 229.444 22.8473C229.444 20.2681 227.229 18.1772 224.496 18.1772C221.763 18.1772 219.547 20.2681 219.547 22.8473C219.547 25.4265 221.763 27.5173 224.496 27.5173Z" fill="white"/>
<path d="M189.942 92.8977C193.391 92.8977 196.698 94.1905 199.137 96.4918C201.575 98.7931 202.945 101.914 202.945 105.169V221.551C202.945 224.806 201.575 227.927 199.137 230.228C196.698 232.53 193.391 233.823 189.942 233.823H29.9348C26.486 233.823 23.1785 232.53 20.7399 230.228C18.3013 227.927 16.9313 224.806 16.9313 221.551V105.169C16.9313 101.914 18.3013 98.7931 20.7399 96.4918C23.1785 94.1905 26.486 92.8977 29.9348 92.8977H189.942ZM189.942 91.7988H29.9348C26.1784 91.8025 22.577 93.2123 19.9208 95.7188C17.2646 98.2254 15.7707 101.624 15.7668 105.169V221.551C15.7707 225.096 17.2646 228.495 19.9208 231.001C22.577 233.508 26.1784 234.918 29.9348 234.921H189.942C193.698 234.918 197.3 233.508 199.956 231.001C202.612 228.495 204.106 225.096 204.11 221.551V105.169C204.106 101.624 202.612 98.2254 199.956 95.7188C197.3 93.2123 193.698 91.8025 189.942 91.7988Z" fill="white"/>
<path d="M189.942 92.8979H29.9347C22.753 92.8979 16.9312 98.3919 16.9312 105.169V221.552C16.9312 228.329 22.753 233.823 29.9347 233.823H189.942C197.123 233.823 202.945 228.329 202.945 221.552V105.169C202.945 98.3919 197.123 92.8979 189.942 92.8979Z" fill="#F5EBDD"/>
<path d="M16.9312 119.27H203.528" stroke="white" stroke-width="4" stroke-miterlimit="10"/>
<path d="M30.613 110.479C33.3461 110.479 35.5618 108.388 35.5618 105.809C35.5618 103.23 33.3461 101.139 30.613 101.139C27.8799 101.139 25.6643 103.23 25.6643 105.809C25.6643 108.388 27.8799 110.479 30.613 110.479Z" fill="white"/>
<path d="M45.6106 110.479C48.3437 110.479 50.5593 108.388 50.5593 105.809C50.5593 103.23 48.3437 101.139 45.6106 101.139C42.8775 101.139 40.6619 103.23 40.6619 105.809C40.6619 108.388 42.8775 110.479 45.6106 110.479Z" fill="white"/>
<path d="M60.605 110.479C63.3381 110.479 65.5537 108.388 65.5537 105.809C65.5537 103.23 63.3381 101.139 60.605 101.139C57.8719 101.139 55.6562 103.23 55.6562 105.809C55.6562 108.388 57.8719 110.479 60.605 110.479Z" fill="white"/>
<path d="M154.165 101.304C154.165 101.191 154.165 101.029 154.165 100.862L154.305 100.763L154.168 100.735C154.168 98.373 153.956 91.3569 151.525 86.0111C149.365 81.2614 146.384 79.0665 144.314 79.9044C142.245 80.7422 141.875 84.2997 144.023 89.0411C145.222 91.6838 147.112 94.2359 148.931 96.3401C145.266 93.0629 140.262 88.9999 135.744 86.7638C129.631 83.742 124.877 83.8327 123.559 86.2007C122.24 88.5686 124.869 92.3184 130.976 95.3429C134.95 97.3126 140.376 98.7713 144.987 99.763C142.515 99.6827 140.041 99.8801 137.619 100.351C132.274 101.483 129.445 103.848 129.937 105.919C130.429 107.99 134.059 108.988 139.403 107.856C145.356 106.595 151.44 102.719 153.533 101.293L153.903 101.345C154.055 101.48 154.145 101.554 154.145 101.554C154.145 101.554 154.145 101.491 154.145 101.378H154.232L154.165 101.304Z" fill="#3EC1F3"/>
<path d="M212.939 126.283L212.849 126.201V126.372L212.939 126.283Z" fill="#3EC1F3"/>
<path d="M205.961 132.937L205.888 119.698L198.727 113.009L198.87 139.694L205.961 132.937Z" fill="#3EC1F3"/>
<path d="M156.491 96.5073L156.73 141.035L163.891 147.724L163.58 89.7495L156.491 96.5073Z" fill="#3EC1F3"/>
<path d="M133.02 118.885L149.77 134.532L149.601 103.076L133.02 118.885Z" fill="#3EC1F3"/>
<path d="M191.982 146.26L191.77 106.51L184.606 99.8179L184.891 153.02L191.982 146.26Z" fill="#3EC1F3"/>
<path d="M177.648 93.318L170.487 86.6289L170.848 154.226L177.302 160.253L178.004 159.586L177.648 93.318Z" fill="#3EC1F3"/>
<path d="M149.601 103.076L149.77 134.532L156.73 141.035L156.491 96.5073L149.601 103.076Z" fill="#4756DF"/>
<path d="M168.653 84.915L163.58 89.7499L163.891 147.724L170.848 154.226L170.487 86.6292L168.653 84.915Z" fill="#4756DF"/>
<path d="M184.891 153.021L184.606 99.8179L177.648 93.3184L178.004 159.586L184.891 153.021Z" fill="#4756DF"/>
<path d="M198.87 139.694L198.727 113.009L191.77 106.51L191.982 146.26L198.87 139.694Z" fill="#4756DF"/>
<path d="M212.848 126.371V126.201L205.888 119.698L205.961 132.936L212.848 126.371Z" fill="#4756DF"/>
<path d="M179.701 95.3755L144.131 129.283" stroke="black" stroke-width="4" stroke-linejoin="round"/>
<path d="M170.496 83.1583L131.173 120.644L141.854 130.622L181.177 93.1364L170.496 83.1583Z" fill="#4756DF"/>
<path d="M159.862 143.719C159.862 143.719 163.647 131.906 161.318 129.983C158.506 127.662 153.749 135.203 149.915 144.268C145.884 153.792 134.196 180.804 133.614 182.727C133.614 182.727 113.699 172.453 104.795 168.717C96.9348 165.42 87.3605 164.223 87.3605 164.223L86.1437 157.325C86.1437 157.325 91.8289 159.248 96.7019 156.558C101.575 153.869 102.795 148.891 101.17 141.227C100.207 136.686 100.242 131.063 99.4237 126.049C96.1808 126.566 91.4301 125.514 91.4301 125.514C84.9298 132.412 78.0394 133.944 78.0394 133.944C73.571 129.346 65.4463 129.346 64.2295 135.867C62.8817 143.078 72.3512 145.065 72.3512 145.065C72.3512 145.065 74.2783 155.531 70.2029 165.97C64.541 180.474 41.7157 184.323 32.3597 178.057C15.4758 189.32 30.4122 223.54 44.5859 239.591C56.23 252.777 97.5665 245.91 97.5665 245.91C97.5665 245.91 102.224 249.206 107.755 250.305C117.653 268.71 121.728 263.491 121.728 263.491C121.728 263.491 125.221 267.062 127.841 263.216C133.081 263.491 132.79 260.469 128.132 250.03C133.372 256.074 138.501 256.093 138.612 254.426C138.903 250.03 123.475 234.647 113.868 230.801C106.652 227.911 103.097 226.955 103.097 226.955L101.642 204.704C101.642 204.704 132.534 220.714 147.054 213.22C165.684 203.605 173.253 156.355 173.253 156.355L159.862 143.719Z" fill="#EAA58B"/>
<path d="M70.2029 165.97C74.2783 155.531 72.3337 145.059 72.3337 145.059C72.3337 145.059 62.8642 143.073 64.212 135.862C65.4288 129.346 73.5534 129.346 78.0219 133.939C78.0219 133.939 84.9239 132.406 91.4126 125.508C91.4126 125.508 96.1633 126.56 99.4062 126.044C98.8386 122.591 97.8663 119.418 95.8781 117.075C91.005 111.328 77.6027 107.493 67.0444 114.775C56.4861 122.058 57.2954 133.939 57.7029 138.538C57.7029 138.538 39.4421 134.318 29.728 147.284C17.7929 163.217 32.348 178.052 32.348 178.052C41.7156 184.323 64.5409 180.474 70.2029 165.97Z" fill="#30242A"/>
<path d="M102.151 212.497L101.642 204.704H101.668L99.2315 166.75C96.5433 165.966 93.8128 165.318 91.0515 164.808L89.7066 190.968H67.0007L58.3753 177.741C55.2966 179.175 51.9994 180.145 48.603 180.618L61.5745 210.956L66.4185 222.285C66.4185 222.285 77.4803 222.835 87.3778 224.208C97.2753 225.582 103.097 226.955 103.097 226.955L102.151 212.497Z" fill="#FF7235"/>
<path d="M160.296 144.4C160.057 145.117 159.813 145.815 159.571 146.466C159.571 146.466 166.994 154.57 162.337 165.008" stroke="#BB7259" stroke-width="4" stroke-miterlimit="10" stroke-linecap="round"/>
<path d="M132.932 182.482L129.879 189.869" stroke="#BB7259" stroke-width="4" stroke-miterlimit="10" stroke-linecap="round"/>
<path d="M129.296 251.311C128.065 248.676 126.543 245.594 125.198 243.344" stroke="#BB7259" stroke-width="4" stroke-miterlimit="10" stroke-linecap="round"/>
<path d="M119.734 246.083C123.227 251.888 125.966 258.387 127.684 262.953" stroke="#BB7259" stroke-width="4" stroke-miterlimit="10" stroke-linecap="round"/>
<path d="M114.302 249.335C116.922 253.874 119.472 259.162 121.364 263.318" stroke="#BB7259" stroke-width="4" stroke-miterlimit="10" stroke-linecap="round"/>
<path d="M102.661 215.829L63.9441 215.555" stroke="#724342" stroke-width="4" stroke-miterlimit="10" stroke-linecap="round"/>
<path d="M52.2069 233.177C50.3176 232.572 48.2942 232.44 46.3347 232.794C44.3752 233.149 42.5468 233.977 41.0286 235.199C42.2075 236.773 43.3981 238.248 44.5858 239.594C47.8054 243.24 53.2927 245.363 59.5485 246.498C61.135 240.899 57.9765 235.051 52.2069 233.177Z" fill="#CA7358"/>
<path d="M147.054 213.22C149.583 211.915 151.906 209.923 154.04 207.434C152.659 205.474 150.632 203.998 148.273 203.234C142.233 201.275 135.616 204.407 133.494 210.228C132.941 211.746 132.736 213.357 132.892 214.956C138.175 215.544 143.194 215.211 147.054 213.22Z" fill="#CA7358"/>
<path d="M48.6002 180.617C42.3299 181.499 36.2051 180.634 32.3596 178.057C20.0897 186.243 24.6251 206.55 33.46 223.2L61.5746 210.956L48.6002 180.617Z" fill="#FFBE21"/>
<path d="M70.203 165.97C68.1012 171.352 63.6357 175.266 58.3755 177.741L67.0008 190.969H89.7068L91.0517 164.822C88.816 164.407 87.3605 164.223 87.3605 164.223L86.7958 161.025H71.7225C71.337 162.705 70.8293 164.357 70.203 165.97Z" fill="#FFBE21"/>
<path d="M104.791 168.717C102.978 167.968 101.122 167.316 99.2314 166.764L101.668 204.717C105.535 206.649 109.511 208.382 113.577 209.907L125.512 178.606C118.968 175.31 109.999 170.915 104.791 168.717Z" fill="#FFBE21"/>
<path d="M28.2769 192.082C36.0739 187.834 39.2249 179.21 35.315 172.819C31.405 166.428 21.9147 164.691 14.1177 168.939C6.3207 173.187 3.16965 181.812 7.0796 188.202C10.9896 194.593 20.4799 196.33 28.2769 192.082Z" fill="#30242A"/>
<path d="M25.2275 165.558C25.2275 165.558 27.2653 177.096 37.1627 180.667" stroke="black" stroke-width="4" stroke-linecap="round" stroke-linejoin="round"/>
<path d="M245.301 97.7051L246.465 105.946" stroke="#F5EBDC" stroke-width="4" stroke-miterlimit="10" stroke-linecap="round"/>
<path d="M342.092 87.9529C342.092 87.9529 355.192 73.3934 340.637 61.0316C331.741 53.4771 321.054 55.5814 321.054 55.5814C321.459 50.9828 322.271 39.0989 311.713 31.8192C301.154 24.5394 287.749 28.3716 282.876 34.1185C278.003 39.8654 279.223 50.6009 277.598 58.2653C275.974 65.9296 277.191 70.9018 282.064 73.5967C286.937 76.2916 292.625 74.3631 292.625 74.3631L291.405 81.261C291.405 81.261 281.834 82.4588 273.974 85.7552C265.067 89.4913 245.155 99.7653 245.155 99.7653C244.573 97.8424 241.371 66.5257 239.915 56.3615C238.806 48.6175 234.967 39.055 232.056 40.9779C229.232 42.8432 230.309 48.9444 230.309 48.9444L215.463 63.5039C215.463 63.5039 208.124 113.427 225.651 126.961C238.46 136.851 271.937 120.918 271.937 120.918L267.57 150.861H307.515C307.515 150.861 300.025 152.74 284.454 159.377C266.406 167.069 255.926 188.496 257.09 190.144C258.255 191.792 261.748 190.419 266.406 184.925C262.33 199.209 266.406 198.111 269.026 197.836C271.689 201.451 275.139 197.012 275.139 197.012C275.139 197.012 279.796 201.132 287.074 181.903C290.38 180.432 293.424 178.486 296.098 176.134C296.098 176.134 342.383 173.387 351.407 158.003C360.432 142.62 354.318 102.512 342.092 87.9529Z" fill="#A15842"/>
<path d="M281.587 54.7957C282.254 54.7957 282.795 54.2853 282.795 53.6557C282.795 53.026 282.254 52.5156 281.587 52.5156C280.919 52.5156 280.378 53.026 280.378 53.6557C280.378 54.2853 280.919 54.7957 281.587 54.7957Z" fill="#30242A"/>
<path d="M66.273 221.873L59.5776 221.599" stroke="#BB7259" stroke-width="4" stroke-miterlimit="10" stroke-linecap="round"/>
<path d="M86.0417 157.968C84.2827 157.398 82.576 156.693 80.9387 155.861" stroke="#BB7259" stroke-width="4" stroke-miterlimit="10" stroke-linecap="round"/>
<path d="M57.2605 138.463C57.4817 140.559 57.7816 143.169 58.0727 145.229" stroke="black" stroke-width="4" stroke-linecap="round" stroke-linejoin="round"/>
<path d="M84.6005 215.533C84.6005 215.533 77.8557 206.525 80.988 205.341C83.5176 204.385 84.2396 211.393 84.6005 215.533Z" stroke="#724342" stroke-width="4" stroke-linecap="round" stroke-linejoin="round"/>
<path d="M84.8132 215.692C84.8132 215.692 88.1289 208.467 90.2102 209.624C91.8899 210.558 87.4593 213.805 84.8132 215.692Z" stroke="#724342" stroke-width="4" stroke-linecap="round" stroke-linejoin="round"/>
<path d="M88.0239 164.415L88.5421 167.343" stroke="#BB7259" stroke-width="4" stroke-miterlimit="10" stroke-linecap="round"/>
<path d="M73.5329 138.898L69.9087 136.997" stroke="#BB7259" stroke-width="4" stroke-miterlimit="10" stroke-linecap="round"/>
<path d="M90.8333 145.326C91.0399 148.93 94.964 149.229 95.9246 146.699L90.8333 145.326Z" stroke="#BB7259" stroke-width="4" stroke-linecap="round" stroke-linejoin="round"/>
<path d="M88.4898 138.994C89.157 138.994 89.6979 138.484 89.6979 137.854C89.6979 137.224 89.157 136.714 88.4898 136.714C87.8226 136.714 87.2817 137.224 87.2817 137.854C87.2817 138.484 87.8226 138.994 88.4898 138.994Z" fill="#724342"/>
<path d="M97.4732 136.933C98.1404 136.933 98.6813 136.423 98.6813 135.793C98.6813 135.164 98.1404 134.653 97.4732 134.653C96.806 134.653 96.2651 135.164 96.2651 135.793C96.2651 136.423 96.806 136.933 97.4732 136.933Z" fill="#724342"/>
<path d="M94.3816 139.247C94.6727 139.975 94.9463 140.774 94.859 141.073C94.7354 141.433 94.486 141.742 94.1516 141.95" stroke="#BB7259" stroke-width="4" stroke-miterlimit="10" stroke-linecap="round"/>
<path d="M83.7011 108.754L85.2411 110.35L86.2599 111.41C86.9091 113.553 82.1845 116.968 75.6173 119.083C69.05 121.198 63.0999 121.217 62.2266 119.146L62.3488 117.718L62.5351 115.567C65.0008 116.116 69.28 115.674 73.859 114.193C78.438 112.712 82.1117 110.622 83.7011 108.754Z" fill="#FFB7D5"/>
<path d="M72.0832 109.309C75.5183 108.21 78.4467 106.743 80.368 105.292L83.7011 108.754C82.1117 110.622 78.4322 112.726 73.8502 114.201C69.2683 115.676 64.992 116.124 62.5264 115.575L62.9252 110.905C65.385 110.946 68.6482 110.413 72.0832 109.309Z" fill="#FF7235"/>
<path d="M76.799 101.59L80.3679 105.293C78.4466 106.743 75.5181 108.205 72.0831 109.309C68.6481 110.413 65.3878 110.957 62.925 110.908L63.3501 105.916C68.1036 105.375 72.6845 103.901 76.799 101.59Z" fill="#FFB7D5"/>
<path d="M68.5465 99.5238C70.1004 99.0278 71.615 98.4283 73.079 97.73L76.7993 101.59C72.6848 103.901 68.1039 105.374 63.3503 105.916L63.7986 100.719C65.4089 100.426 66.9954 100.026 68.5465 99.5238Z" fill="#FF7235"/>
<path d="M63.7986 100.719L64.7912 89.126L73.0818 97.7298C71.6179 98.4281 70.1032 99.0276 68.5494 99.5236C66.9973 100.026 65.4098 100.426 63.7986 100.719Z" fill="#FFB7D5"/>
<path d="M64.0897 91.4224C66.5655 91.4224 68.5726 89.5284 68.5726 87.1919C68.5726 84.8555 66.5655 82.9614 64.0897 82.9614C61.6138 82.9614 59.6067 84.8555 59.6067 87.1919C59.6067 89.5284 61.6138 91.4224 64.0897 91.4224Z" fill="#FF7235"/>
<path d="M71.2215 149.762C73.2312 149.762 74.8603 148.225 74.8603 146.328C74.8603 144.432 73.2312 142.895 71.2215 142.895C69.2119 142.895 67.5828 144.432 67.5828 146.328C67.5828 148.225 69.2119 149.762 71.2215 149.762Z" fill="#F4E6D8"/>
<path d="M299.338 164.28L300.086 165.86L304.569 175.34C318.367 173.73 344.82 169.236 351.407 158.003C360.431 142.62 354.318 102.512 342.092 87.9528C331.903 98.5263 316.149 95.6446 309.832 86.854C308.668 87.127 307.482 87.3107 306.286 87.4034C304.422 87.566 302.543 87.4958 300.697 87.1946C298.486 86.8465 296.392 86.0138 294.584 84.7634C292.282 83.1289 291.44 81.3598 291.44 81.3598L291.05 81.3076C289.263 81.5576 280.946 82.8295 273.974 85.7551C265.066 89.4912 245.155 99.7652 245.155 99.7652C244.893 98.9026 244.104 92.1091 243.181 83.9695L231.875 88.0901L230.649 88.5379L224.801 90.6751L214.167 94.5595C214.93 107.493 217.791 120.89 225.651 126.961C238.46 136.851 271.936 120.918 271.936 120.918L267.57 150.861H307.515C307.515 150.861 303.419 151.891 294.997 155.105L296.936 159.201L299.338 164.28Z" fill="#FFB7D5"/>
<path d="M244.282 114.875C240.73 114.875 237.324 116.206 234.813 118.576C232.302 120.945 230.891 124.16 230.891 127.511C230.891 128.168 230.945 128.824 231.051 129.472C238.684 131.395 249.175 129.137 257.623 126.451C257.341 123.294 255.814 120.353 253.343 118.209C250.872 116.065 247.638 114.875 244.282 114.875Z" fill="#FF7235"/>
<path d="M231.182 92.0736C231.182 90.8801 231.002 89.6926 230.649 88.5464L224.801 90.6836L214.167 94.568C214.362 97.8837 214.697 101.23 215.218 104.474C217.158 104.832 219.158 104.781 221.074 104.324C222.99 103.867 224.775 103.015 226.301 101.829C227.828 100.644 229.057 99.1545 229.9 97.4677C230.744 95.781 231.182 93.9389 231.182 92.0736Z" fill="#FF7235"/>
<path d="M269.899 100.864C272.13 100.863 274.326 100.336 276.286 99.3306C278.246 98.3252 279.909 96.8735 281.124 95.1073C282.339 93.3412 283.067 91.3166 283.242 89.2175C283.416 87.1184 283.033 85.0114 282.125 83.0879C279.341 83.7821 276.616 84.6737 273.974 85.7553C269.875 87.475 263.445 90.5792 257.696 93.4306C258.757 95.6461 260.472 97.5259 262.636 98.8444C264.801 100.163 267.323 100.864 269.899 100.864Z" fill="#FF7235"/>
<path d="M302.502 129.709C309.898 129.709 315.893 124.051 315.893 117.072C315.893 110.093 309.898 104.436 302.502 104.436C295.107 104.436 289.111 110.093 289.111 117.072C289.111 124.051 295.107 129.709 302.502 129.709Z" fill="#FF7235"/>
<path d="M276.303 137.125C273.836 137.125 271.417 137.771 269.316 138.991L267.57 150.861H289.638C289.673 150.498 289.694 150.133 289.694 149.762C289.694 146.411 288.283 143.196 285.772 140.827C283.26 138.457 279.854 137.125 276.303 137.125Z" fill="#FF7235"/>
<path d="M324.358 94.6505C324.358 94.8895 324.335 95.1285 324.335 95.3702C324.336 98.1732 325.324 100.896 327.145 103.111C328.966 105.326 331.515 106.906 334.392 107.604C337.269 108.302 340.31 108.077 343.036 106.966C345.763 105.854 348.021 103.918 349.454 101.463C347.396 96.0158 344.907 91.2991 342.092 87.9531C336.954 93.2852 330.401 95.1944 324.358 94.6505Z" fill="#FF7235"/>
<path d="M336.852 148.114C336.853 151.315 338.141 154.396 340.455 156.735C342.77 159.075 345.939 160.498 349.323 160.718C350.126 159.892 350.826 158.981 351.407 158.004C354.376 152.944 355.707 145.205 355.718 136.576C353.679 135.714 351.443 135.347 349.214 135.509C346.986 135.671 344.836 136.357 342.96 137.504C341.085 138.651 339.543 140.223 338.476 142.076C337.409 143.929 336.851 146.005 336.852 148.114Z" fill="#FF7235"/>
<path d="M308.615 160.75C305.155 160.747 301.828 162.013 299.338 164.28L300.086 165.86L304.569 175.34C310.416 174.67 316.223 173.722 321.968 172.5C321.73 169.311 320.22 166.325 317.742 164.145C315.265 161.965 312.003 160.752 308.615 160.75Z" fill="#FF7235"/>
<path d="M331.176 143.032C323.351 145.548 312.798 148.608 306.286 150.586" stroke="#F5EBDC" stroke-width="4" stroke-miterlimit="10" stroke-linecap="round"/>
<path d="M322.882 116.331L325.645 144.68" stroke="#F5EBDC" stroke-width="4" stroke-miterlimit="10" stroke-linecap="round"/>
<path d="M265.623 185.645C266.577 182.862 268.612 177.145 270.4 173.489" stroke="#30242A" stroke-width="4" stroke-miterlimit="10" stroke-linecap="round"/>
<path d="M276.085 175.788C272.027 184.029 269.645 193.424 268.763 197.32" stroke="#30242A" stroke-width="4" stroke-miterlimit="10" stroke-linecap="round"/>
<path d="M281.77 178.469C279.15 184.172 276.856 191.957 275.569 196.748" stroke="#30242A" stroke-width="4" stroke-miterlimit="10" stroke-linecap="round"/>
<path d="M272.877 111.152L271.293 121.124" stroke="#F5EBDC" stroke-width="4" stroke-miterlimit="10" stroke-linecap="round"/>
<path d="M340.637 61.0316C331.74 53.4771 321.054 55.5814 321.054 55.5814C321.459 50.9828 322.271 39.0989 311.713 31.8192C301.154 24.5394 287.749 28.3716 282.876 34.1185C280.891 36.4617 279.916 39.6346 279.348 43.0877C282.591 43.6041 287.345 42.552 287.345 42.552C293.842 49.4499 300.735 50.9828 300.735 50.9828C305.204 46.3842 313.325 46.3842 314.545 52.9057C315.893 60.1168 306.42 62.1029 306.42 62.1029C306.42 62.1029 304.412 72.3797 307.73 82.7389C308.203 84.2041 308.907 85.5934 309.82 86.8596C316.137 95.6502 331.895 98.5346 342.08 87.9584C342.584 87.3729 343.052 86.7601 343.481 86.1233C346.429 81.8242 352.08 70.7507 340.637 61.0316Z" fill="#30242A"/>
<path d="M292.581 74.8497C294.464 74.3295 296.278 73.6107 297.99 72.707" stroke="#30242A" stroke-width="4" stroke-miterlimit="10" stroke-linecap="round"/>
<path d="M321.505 55.502C321.284 57.598 320.987 60.2077 320.696 62.268" stroke="black" stroke-width="4" stroke-miterlimit="10" stroke-linecap="round"/>
<path d="M305.233 55.9361L308.857 54.0352" stroke="#30242A" stroke-width="4" stroke-miterlimit="10" stroke-linecap="round"/>
<path d="M284.634 64.8528C285.301 65.2456 287.796 65.5505 288.809 63.7402" stroke="#30242A" stroke-width="4" stroke-miterlimit="10" stroke-linecap="round"/>
<path d="M291.196 56.3069C291.863 56.3069 292.404 55.7965 292.404 55.1669C292.404 54.5373 291.863 54.0269 291.196 54.0269C290.528 54.0269 289.988 54.5373 289.988 55.1669C289.988 55.7965 290.528 56.3069 291.196 56.3069Z" fill="#30242A"/>
<path d="M284.486 57.9438C284.3 58.702 284.145 59.5289 284.273 59.8119C284.447 60.1529 284.739 60.428 285.1 60.592" stroke="#30242A" stroke-width="4" stroke-miterlimit="10" stroke-linecap="round"/>
<path d="M284.006 54.7211C284.732 51.7652 283.035 48.869 280.216 48.2523C277.397 47.6357 274.523 49.5321 273.797 52.4881C273.071 55.444 274.768 58.3402 277.587 58.9569C280.406 59.5735 283.28 57.6771 284.006 54.7211Z" stroke="black" stroke-width="4" stroke-miterlimit="10" stroke-linecap="round"/>
<path d="M296.816 56.6435C297.542 53.6875 295.845 50.7913 293.026 50.1747C290.207 49.5581 287.333 51.4545 286.607 54.4104C285.881 57.3664 287.577 60.2626 290.396 60.8792C293.216 61.4959 296.09 59.5995 296.816 56.6435Z" stroke="black" stroke-width="4" stroke-miterlimit="10" stroke-linecap="round"/>
<path d="M284.308 54.3013L286.346 54.576" stroke="black" stroke-width="4" stroke-miterlimit="10" stroke-linecap="round"/>
<path d="M226.67 50.4556C226.67 50.4556 232.201 54.8509 232.783 55.9497C232.783 55.9497 223.759 64.7404 230.746 75.454" stroke="#30242A" stroke-width="4" stroke-miterlimit="10" stroke-linecap="round"/>
<path d="M256.312 21.9978C256.981 20.9661 256.636 19.6182 255.543 18.987C254.45 18.3559 253.022 18.6806 252.353 19.7122L208.258 87.7312C207.589 88.7629 207.933 90.1108 209.026 90.742C210.12 91.3731 211.548 91.0484 212.217 90.0167L256.312 21.9978Z" fill="#30242A"/>
<path d="M260.319 4.32375L265.331 0.538273C265.74 0.228717 266.24 0.0449594 266.763 0.0117905C267.286 -0.0213784 267.807 0.0976379 268.256 0.352786C268.705 0.607933 269.06 0.986931 269.274 1.43863C269.488 1.89033 269.549 2.39299 269.45 2.87878L268.248 8.83719C268.153 9.3066 268.208 9.79198 268.406 10.232C268.603 10.6721 268.934 11.047 269.357 11.3096L274.719 14.639C275.158 14.9103 275.497 15.3019 275.692 15.761C275.887 16.2201 275.928 16.7246 275.81 17.2064C275.692 17.6882 275.42 18.1242 275.03 18.4555C274.641 18.7868 274.154 18.9974 273.634 19.0591L267.279 19.8255C266.776 19.8855 266.303 20.0849 265.92 20.3983C265.538 20.7117 265.262 21.1251 265.128 21.5864L263.431 27.4266C263.291 27.9031 263.001 28.3279 262.598 28.644C262.196 28.96 261.7 29.1522 261.179 29.1947C260.657 29.2372 260.134 29.1279 259.68 28.8816C259.226 28.6352 258.863 28.2636 258.639 27.8167L255.906 22.3226C255.688 21.892 255.34 21.5319 254.906 21.2875C254.472 21.0431 253.971 20.9253 253.466 20.949L247.062 21.2237C246.535 21.2549 246.011 21.1316 245.561 20.8708C245.111 20.6099 244.757 20.2243 244.549 19.7667C244.34 19.309 244.286 18.8017 244.395 18.3141C244.503 17.8265 244.769 17.3824 245.155 17.0427L249.833 12.8946C250.202 12.5671 250.461 12.1436 250.575 11.6776C250.69 11.2117 250.655 10.7242 250.476 10.2767L248.212 4.60944C248.026 4.14611 247.995 3.64011 248.124 3.15979C248.252 2.67948 248.534 2.24798 248.931 1.92358C249.328 1.59917 249.82 1.39749 250.342 1.34577C250.865 1.29405 251.391 1.39478 251.85 1.63436L257.477 4.5545C257.922 4.78535 258.429 4.88664 258.935 4.84557C259.441 4.8045 259.922 4.62291 260.319 4.32375Z" fill="#3EC1F3"/>
<path d="M230.309 48.9446C228.271 47.2964 224.356 46.2277 222.449 47.2964C219.229 49.1012 220.021 52.6064 220.021 52.6064C220.021 52.6064 214.781 51.8373 214.845 56.9029C214.845 56.9029 210.627 58.6445 212.473 62.625C212.473 62.625 208.823 63.4959 210.558 67.7373C211.969 71.1959 215.227 73.0062 217.209 73.943C218.956 74.7671 221.634 73.5776 220.702 70.3718C220.702 70.3718 222.74 70.9212 223.905 69.8224C225.511 68.306 224.778 65.427 224.778 65.427C224.778 65.427 226.816 65.9765 228.271 64.8776C230.047 63.5371 229.144 61.0317 229.144 61.0317C229.795 60.9489 230.41 60.7007 230.923 60.3135C231.435 59.9264 231.827 59.415 232.055 58.8341C233.22 56.087 228.853 52.7905 228.853 52.7905L230.309 48.9446Z" fill="#A15842"/>
<path d="M212.26 62.7817C214.823 65.7174 217.647 68.4405 220.702 70.9213" stroke="#30242A" stroke-width="4" stroke-miterlimit="10" stroke-linecap="round"/>
<path d="M214.881 56.8779C217.882 60.3414 221.308 63.4572 225.087 66.1603" stroke="#30242A" stroke-width="4" stroke-miterlimit="10" stroke-linecap="round"/>
<path d="M219.538 52.8374C222.289 56.2483 225.6 59.2224 229.345 61.6473" stroke="#30242A" stroke-width="4" stroke-miterlimit="10" stroke-linecap="round"/>
<path d="M226.67 50.4556C226.67 50.4556 229.398 52.623 231.223 54.3015" stroke="#30242A" stroke-width="4" stroke-miterlimit="10" stroke-linecap="round"/>
<path d="M295.064 25.7925L293.527 27.3885L292.506 28.4489C291.857 30.5916 296.581 34.0062 303.151 36.1215C309.721 38.2367 315.669 38.2559 316.542 36.1847L316.42 34.7562L316.236 32.6052C313.768 33.1546 309.491 32.7124 304.91 31.2317C300.328 29.751 296.657 27.6605 295.064 25.7925Z" fill="#FFBE21"/>
<path d="M306.685 26.3473C303.25 25.2485 300.322 23.7815 298.401 22.3311L295.064 25.7924C296.657 27.6604 300.336 29.7646 304.915 31.2398C309.494 32.715 313.774 33.1628 316.242 32.6134L315.843 27.9433C313.384 27.9845 310.12 27.4516 306.685 26.3473Z" fill="#FF7235"/>
<path d="M301.969 18.6279L298.4 22.331C300.322 23.7814 303.25 25.2429 306.685 26.3472C310.12 27.4515 313.38 27.9955 315.843 27.946L315.415 22.9546C310.663 22.4128 306.083 20.9391 301.969 18.6279Z" fill="#FFBE21"/>
<path d="M310.222 16.5619C308.667 16.0659 307.152 15.4664 305.687 14.7681L301.969 18.614C306.083 20.9251 310.663 22.3989 315.415 22.9406L314.97 17.7432C313.36 17.4543 311.774 17.0596 310.222 16.5619Z" fill="#FF7235"/>
<path d="M314.97 17.7572L313.977 6.16455L305.687 14.7684C307.152 15.4667 308.667 16.0662 310.222 16.5622C311.773 17.0646 313.36 17.4639 314.97 17.7572Z" fill="#FFBE21"/>
<path d="M314.676 8.46099C317.152 8.46099 319.159 6.56693 319.159 4.23049C319.159 1.89406 317.152 0 314.676 0C312.2 0 310.193 1.89406 310.193 4.23049C310.193 6.56693 312.2 8.46099 314.676 8.46099Z" fill="#FF7235"/>
</svg>
